<svg width="92" height="92" viewBox="0 0 92 92" fill="none" xmlns="http://www.w3.org/2000/svg">
<path d="M46 91.5443C71.1534 91.5443 91.5443 71.1534 91.5443 46C91.5443 20.8466 71.1534 0.455688 46 0.455688C20.8466 0.455688 0.455688 20.8466 0.455688 46C0.455688 71.1534 20.8466 91.5443 46 91.5443Z" fill="#0D72B9" stroke="#0D72B9" stroke-width="0.911433" stroke-miterlimit="10"/>
<path d="M46 81.1801C65.4294 81.1801 81.1801 65.4294 81.1801 46C81.1801 26.5705 65.4294 10.8198 46 10.8198C26.5705 10.8198 10.8198 26.5705 10.8198 46C10.8198 65.4294 26.5705 81.1801 46 81.1801Z" fill="#0D72B9" stroke="white" stroke-width="0.683574" stroke-miterlimit="10"/>
<path d="M27.4181 28.1143C28.0675 28.6839 28.84 28.6668 29.5885 28.5279C29.6785 28.8184 29.7161 29.1089 29.8517 29.3424C30.1092 29.7868 30.5672 29.9178 31.0479 29.9486C31.3817 29.9702 31.7178 29.9486 32.0733 29.9486C32.0733 29.9486 32.0824 29.9725 32.0892 29.9975C32.4857 31.2508 33.4985 31.8409 34.7677 31.5493C35.1508 31.4619 35.5075 31.2842 35.8079 31.0309C35.9116 30.9432 35.9981 30.9101 36.0802 31.0673C36.5359 31.9423 37.3072 32.3969 38.2369 32.5336C39.4035 32.7068 40.5621 32.5279 41.706 32.2647C41.7426 32.262 41.7783 32.2516 41.8106 32.2341C41.8429 32.2166 41.8712 32.1925 41.8936 32.1634C41.916 32.1343 41.9319 32.1007 41.9404 32.065C41.9489 32.0292 41.9498 31.9921 41.943 31.956C41.9247 31.187 41.9179 30.4168 41.9133 29.6466C41.9088 28.8765 41.9133 28.12 41.9133 27.3567C41.9133 27.2906 41.9065 27.2245 41.9008 27.1436C41.7675 27.1436 41.6513 27.1436 41.5362 27.1436C41.3773 27.1429 41.2215 27.0989 41.0857 27.0164C40.9498 26.9339 40.8389 26.816 40.7649 26.6754C40.6501 26.459 40.5489 26.2356 40.4619 26.0066C40.4216 25.893 40.3549 25.7905 40.2674 25.7075C40.1799 25.6245 40.074 25.5635 39.9583 25.5292C39.3472 25.3536 38.6967 25.3723 38.0967 25.5828C37.3983 25.822 36.7079 26.0909 35.9947 26.2743C34.7859 26.5854 33.5361 26.6264 32.2966 26.6788C30.4578 26.7551 28.6155 26.7688 26.7756 26.8098C26.7369 26.8098 26.6981 26.8098 26.6434 26.8201C26.7617 27.3212 27.0324 27.7733 27.4181 28.1143Z" fill="white"/>
<path d="M45.3632 27.1482C45.3028 27.1482 45.2413 27.1482 45.1672 27.1482C45.1558 27.3658 45.1365 27.5549 45.1353 27.744C45.1262 29.1601 45.1217 30.5763 45.1125 31.9924C45.1125 32.128 45.1422 32.2112 45.2926 32.2374C45.7642 32.3183 46.2325 32.4276 46.7053 32.4949C47.5575 32.6145 48.4142 32.6851 49.2584 32.4345C49.6195 32.3366 49.9574 32.1676 50.2524 31.9376C50.5474 31.7075 50.7935 31.421 50.9765 31.0947C51.0072 31.04 51.0483 30.9898 51.0699 30.9579C51.3588 31.1334 51.6566 31.2938 51.962 31.4387C53.0819 31.9036 54.5265 31.5128 54.9446 30.0545C54.9856 29.9121 55.0586 29.9223 55.1725 29.9235C55.5549 29.9458 55.9386 29.9378 56.3197 29.8995C56.7698 29.8323 57.1503 29.6011 57.3098 29.1374C57.363 28.9369 57.4011 28.7328 57.4237 28.5267C58.0572 28.6178 58.6952 28.6919 59.2944 28.3467C59.8937 28.0015 60.2195 27.4808 60.4189 26.8132H60.1649C59.6157 26.8052 59.0654 26.803 58.5163 26.787C57.1298 26.746 55.7421 26.7255 54.3567 26.648C53.3905 26.5996 52.4276 26.4995 51.4721 26.3484C50.8057 26.2276 50.1528 26.0418 49.5227 25.7935C48.8312 25.5315 48.1488 25.3378 47.4025 25.4518C46.9662 25.519 46.6643 25.7229 46.5344 26.1558C46.5055 26.2466 46.4712 26.3357 46.4318 26.4224C46.2279 26.8998 45.893 27.1937 45.3632 27.1482Z" fill="white"/>
<path d="M39.7647 44.9918C39.8234 45.0411 39.898 45.0676 39.9747 45.0661C40.0514 45.0646 40.1249 45.0354 40.1817 44.9838C40.4684 44.785 40.7679 44.6054 41.0783 44.446C41.5511 44.2182 42.0398 44.0142 42.5525 43.7864C42.4386 43.7374 42.3417 43.6987 42.246 43.6508C41.7186 43.3899 41.2982 43.0379 41.1375 42.434C40.9769 41.8302 41.1375 41.3415 41.6274 41.0669C41.7923 40.9671 41.973 40.8962 42.1617 40.8573C42.897 40.7327 43.6345 40.6214 44.3742 40.5235C45.0202 40.438 45.6787 40.4221 46.311 40.2956C47.3611 40.0848 48.3685 39.6997 49.2914 39.1563C50.1106 38.6698 50.8272 38.0865 51.3421 37.2662C51.8047 36.5268 51.8093 35.4012 51.3216 34.6857C50.9434 34.1298 50.3931 33.8244 49.7745 33.6262C48.9405 33.3585 48.0758 33.3209 47.2099 33.3425C46.9227 33.3493 46.6386 33.4036 46.3691 33.5031C45.6081 33.7948 45.1877 34.3827 45.0225 35.1676C44.9086 35.7259 45.1273 36.0973 45.6822 36.2249C45.9304 36.2733 46.1816 36.3045 46.4341 36.3183C46.9206 36.3582 47.3786 36.2728 47.7568 35.9401C48.1578 35.588 48.5885 35.3328 49.1479 35.4399C49.2469 35.4487 49.3406 35.4886 49.4156 35.5539C49.5626 35.735 49.4748 36.3514 49.3017 36.5211C48.9599 36.8629 48.5384 37.0486 48.102 37.2104C46.7996 37.6874 45.4291 37.9521 44.0427 37.9942C43.0504 38.0295 42.0729 38.099 41.1364 38.4727C40.0711 38.8977 39.1768 39.5266 38.5627 40.5155C38.1234 41.2057 37.9415 42.0286 38.0489 42.8396C38.0956 43.1217 38.1953 43.3923 38.3428 43.6371C38.6778 44.2353 39.2133 44.6249 39.7647 44.9918Z" fill="white"/>
<path d="M48.3298 44.0005C48.5558 43.7511 48.7293 43.4588 48.8399 43.1409C48.9505 42.823 48.9959 42.4861 48.9735 42.1503C48.9348 41.5214 48.7969 40.9347 48.4426 40.4049C48.3754 40.3035 48.3287 40.2716 48.2011 40.3252C47.833 40.4884 47.4519 40.6207 47.0618 40.7205C46.4693 40.8493 45.8644 40.9199 45.2446 41.0179C45.3545 41.0799 45.4589 41.1512 45.5568 41.2309C46.0546 41.7185 45.9863 42.303 45.6707 42.8077C45.3289 43.3523 44.798 43.6701 44.2192 43.8991C43.4001 44.225 42.5581 44.4961 41.7481 44.8402C40.8754 45.2105 40.0859 45.7254 39.4786 46.4694C38.8999 47.178 38.6595 47.9675 39.0298 48.8619C39.2645 49.4258 39.6837 49.8348 40.1622 50.1926C40.471 50.4204 40.4698 50.4204 40.7626 50.2017C40.7843 50.1846 40.8105 50.1743 40.8321 50.1573C41.2285 49.8613 41.6697 49.6305 42.1389 49.4737C42.3417 49.4042 42.5399 49.3256 42.7245 49.2561C42.4799 49.093 42.2476 48.9121 42.0295 48.7149C41.6877 48.3617 41.4872 47.6747 42.0557 47.1791C42.2864 46.9762 42.5484 46.8119 42.8316 46.6927C43.3693 46.4728 43.923 46.2916 44.4767 46.123C45.3046 45.8763 46.106 45.5481 46.8692 45.1432C47.4206 44.8529 47.9153 44.4658 48.3298 44.0005Z" fill="white"/>
<path d="M42.5753 25.658C42.6354 25.6769 42.6873 25.7158 42.7223 25.7682C42.7573 25.8207 42.7734 25.8834 42.7679 25.9462C42.7679 26.4202 42.7747 26.8953 42.777 27.3692C42.7899 29.1222 42.8013 30.8756 42.8111 32.6293C42.8191 34.0318 42.8214 35.4342 42.8305 36.8367C42.8305 37.0543 42.851 37.2708 42.8624 37.5009L44.2034 37.4314C44.2102 37.3528 44.217 37.3061 44.217 37.2594C44.2284 36.1041 44.2432 34.95 44.2501 33.7948C44.2603 31.9788 44.2637 30.1627 44.274 28.3479C44.2786 27.5359 44.2892 26.7244 44.3059 25.9132C44.3074 25.8728 44.3177 25.8333 44.336 25.7973C44.3543 25.7613 44.3802 25.7297 44.4119 25.7047C44.6638 25.572 44.8858 25.3889 45.0642 25.1669C45.2425 24.9448 45.3733 24.6885 45.4486 24.4139C45.7391 23.4592 45.1809 22.4156 44.2854 22.0214C44.037 21.9173 43.7704 21.8633 43.5011 21.8626C43.2318 21.8619 42.965 21.9145 42.716 22.0173C42.4671 22.1201 42.2409 22.2712 42.0506 22.4617C41.8602 22.6523 41.7095 22.8786 41.6069 23.1276C41.4163 23.5935 41.4103 24.1144 41.5902 24.5845C41.7701 25.0546 42.1224 25.4385 42.5753 25.658Z" fill="white"/>
<path d="M47.8912 47.4982C47.7453 46.9526 47.4553 46.4564 47.0515 46.0616C46.7929 45.7938 46.7929 45.8109 46.4568 45.9476C45.9943 46.1345 45.526 46.3065 45.0555 46.4717C44.3981 46.6996 43.7362 46.9194 43.0754 47.1382C43.0157 47.1529 42.9639 47.1898 42.9306 47.2416C42.8974 47.2933 42.8852 47.3557 42.8965 47.4162C42.9057 47.8628 42.8965 48.3094 42.8965 48.7571V49.2128C43.2475 49.0898 43.5539 48.9759 43.8649 48.871C44.062 48.8061 44.168 48.7081 44.1475 48.4768C44.127 48.2456 44.1532 47.9961 44.1555 47.7557C44.1555 47.4777 44.1555 47.1986 44.1555 46.8613C44.2993 46.9275 44.4393 47.0016 44.5747 47.0835C44.7885 47.2176 44.9901 47.3701 45.1774 47.5392C45.6274 47.9824 45.4417 48.511 45.0703 48.8061C44.6294 49.157 44.1167 49.3655 43.5892 49.5444C42.8988 49.7802 42.1913 49.9727 41.5522 50.3419C40.7421 50.8067 40.1782 51.4504 40.0119 52.404C39.8455 53.3576 40.1429 53.9625 40.8094 54.4183L42.4101 53.3929C42.3451 53.1833 42.2323 52.9565 42.2118 52.7218C42.1765 52.3231 42.4762 52.1123 42.7815 51.9756C43.3124 51.7398 43.8627 51.5484 44.405 51.3387C45.0988 51.0699 45.8131 50.842 46.4819 50.523C47.5824 50.0103 48.1794 48.6705 47.8912 47.4982Z" fill="white"/>
<path d="M37.7903 35.367C38.2517 35.3066 38.6812 35.3601 39.0253 35.7156C39.7328 36.4482 40.9268 36.3627 41.6024 36.0574C41.723 36.0043 41.8248 35.9162 41.8945 35.8044C41.9642 35.6926 41.9986 35.5624 41.9932 35.4308C41.9909 34.9141 41.8032 34.4155 41.4643 34.0255C41.1253 33.6356 40.6577 33.3802 40.1464 33.306C39.7229 33.2676 39.297 33.2623 38.8726 33.2901C38.123 33.2993 37.3831 33.4621 36.6989 33.7686C35.7168 34.2243 35.2258 35.0833 35.301 36.1531C35.3568 36.9506 35.7681 37.559 36.2978 38.1013C36.8994 38.7188 37.6411 39.1369 38.4158 39.4946C38.4505 39.5008 38.4861 39.4989 38.5199 39.489C38.5537 39.4792 38.5847 39.4616 38.6106 39.4377C39.0343 38.9686 39.5435 38.5846 40.1111 38.3064C40.5292 38.107 40.9678 37.952 41.4053 37.7743C41.3901 37.7682 41.3745 37.7633 41.3586 37.7595C40.3093 37.584 39.2634 37.3835 38.3053 36.8971C37.5773 36.5279 37.4793 36.3502 37.4998 35.7338C37.5055 35.5424 37.5818 35.3966 37.7903 35.367Z" fill="white"/>
<path d="M44.3902 53.0032C43.9106 53.3803 43.3307 53.5432 42.7952 53.8007C42.196 54.0935 41.6081 54.3966 41.1376 54.8796C40.6374 55.3934 40.5497 55.8605 40.7753 56.4382C40.9769 56.9543 41.3928 57.3086 41.8097 57.6595C42 57.819 42.1128 57.7552 42.2825 57.6504C42.373 57.6043 42.4464 57.5307 42.4923 57.4402C42.5382 57.3497 42.5541 57.2469 42.5377 57.1468C42.5184 56.9189 42.5377 56.6911 42.5298 56.4632C42.515 56.0235 42.5799 55.9027 43.0083 55.7717C43.538 55.6099 44.0781 55.4869 44.609 55.3285C45.0382 55.2067 45.4406 55.0049 45.795 54.7338C46.8477 53.9158 46.9684 52.2376 46.3646 51.1416C46.2928 51.1655 46.229 51.1849 46.1652 51.2077C45.5899 51.4082 45.0123 51.603 44.4404 51.8115C43.9641 51.9847 43.4925 52.1715 43.0208 52.3584C42.9627 52.3823 42.8772 52.4393 42.875 52.4848C42.8613 52.748 42.8681 53.0123 42.8681 53.3416C43.2395 53.173 43.5517 53.0431 43.857 52.8859C44.0952 52.7719 44.2353 52.5771 44.1783 52.2889C44.1761 52.2312 44.1807 52.1734 44.192 52.1168C44.2304 52.1238 44.2685 52.133 44.3059 52.1442C44.5474 52.2456 44.658 52.7913 44.3902 53.0032Z" fill="white"/>
<path d="M40.0951 59.8071C40.1205 59.83 40.1511 59.8464 40.1842 59.8549C40.2173 59.8635 40.252 59.8639 40.2853 59.8561C40.4755 59.7996 40.6623 59.7322 40.8447 59.6544C41.5556 59.3491 42.2609 59.0312 42.9741 58.7327C43.8388 58.3693 44.7069 58.015 45.4976 57.5012C46.1926 57.0454 46.6175 56.445 46.5423 55.5644C46.5139 55.3376 46.4033 55.1292 46.2313 54.9788C45.6799 55.5028 44.9883 55.7022 44.2945 55.897C43.873 56.011 43.448 56.1249 43.0265 56.2388C42.9763 56.2536 42.9057 56.3163 42.9034 56.3584C42.8932 56.6501 42.8977 56.9418 42.8977 57.287C43.3922 56.9839 43.8559 56.7264 44.2125 56.2798C44.3435 56.4234 44.3446 56.5715 44.2421 56.6843C44.0636 56.8985 43.8592 57.0899 43.6337 57.2539C42.7553 57.8236 41.8541 58.3602 40.9746 58.9275C40.6774 59.1366 40.3943 59.365 40.127 59.6111C40.1049 59.6381 40.0903 59.6704 40.0847 59.7048C40.0791 59.7392 40.0827 59.7745 40.0951 59.8071Z" fill="white"/>
<path d="M45.9373 59.5086C46.217 59.5961 46.502 59.6654 46.7907 59.7159C46.8465 59.7273 46.9547 59.6988 46.9672 59.6646C46.9779 59.5936 46.966 59.5211 46.9331 59.4573C46.9064 59.4074 46.8671 59.3654 46.8191 59.3354C46.3463 58.9628 45.869 58.5971 45.4007 58.2177C45.3638 58.1787 45.3143 58.154 45.2609 58.148C45.2076 58.1419 45.1538 58.1549 45.1091 58.1847C44.4392 58.5014 43.7704 58.817 43.0914 59.1132C42.9376 59.1816 42.8817 59.2511 42.8943 59.4117C42.9558 60.1784 43.0082 60.9452 43.0686 61.7119C43.0902 61.9785 43.1199 62.2451 43.1472 62.5094C43.1723 62.751 43.3489 62.9378 43.5448 62.9321C43.7613 62.9264 43.9048 62.7601 43.9253 62.5026C43.939 62.3249 43.9652 62.1483 43.9789 61.9706C44.045 61.1571 44.111 60.3436 44.1703 59.5291C44.1851 59.3251 44.1703 59.1178 44.1703 58.8671C44.2979 58.9036 44.3981 58.9252 44.4904 58.9617C44.9746 59.144 45.452 59.3422 45.9373 59.5086Z" fill="white"/>
<path d="M44.0473 41.0851C43.7157 41.1387 43.3819 41.1865 43.047 41.2139C42.8897 41.2275 42.8533 41.2868 42.8556 41.4303C42.8647 42.0558 42.8624 42.6835 42.867 43.3079C42.867 43.4366 42.8783 43.5653 42.8863 43.7499C43.3204 43.5859 43.7157 43.4389 44.1065 43.2817C44.1307 43.2652 44.1507 43.2434 44.1649 43.2179C44.1791 43.1924 44.1872 43.1639 44.1885 43.1347C44.1988 42.4956 44.2022 41.8564 44.209 41.2161C44.2113 41.0931 44.1703 41.0646 44.0473 41.0851Z" fill="white"/>
<path d="M62.8296 27.5059C62.7658 27.6267 62.7157 27.7235 62.6622 27.8238C62.0378 29.115 61.4135 30.4062 60.7892 31.6974C58.9663 35.4399 57.1594 39.1859 55.3206 42.9205C55.0932 43.4046 54.9635 43.9288 54.9389 44.4631C54.8352 45.8747 54.7111 47.2863 54.5971 48.6979C54.5652 49.1 54.539 49.5033 54.506 49.9591C54.6199 49.8736 54.6814 49.8326 54.7338 49.7882C56.2787 48.5486 57.8168 47.3072 59.348 46.0638C59.482 45.9539 59.5918 45.8173 59.6704 45.6628C61.7052 41.5089 63.7361 37.3528 65.7633 33.1944C66.3159 32.0642 66.8753 30.9375 67.4324 29.8084V29.7469L62.8296 27.5059ZM59.0552 45.6742C58.2098 46.3699 57.3565 47.0569 56.4952 47.7352C56.4452 47.7677 56.3885 47.7887 56.3294 47.7963C56.2702 47.804 56.2101 47.7983 56.1534 47.7796C55.1451 47.3455 55.1565 47.3421 55.275 46.2632C55.3491 45.5865 55.373 44.9029 55.4459 44.225C55.4959 43.9059 55.562 43.5895 55.6441 43.2771L55.7581 43.2828C55.8424 43.5733 55.9278 43.8627 56.011 44.1532C56.0942 44.4438 56.1807 44.7457 56.2742 45.0726L57.4294 44.3378C57.5149 44.8197 57.5946 45.2743 57.6778 45.746L59.3252 45.2002L59.3822 45.2629C59.2893 45.4121 59.1795 45.5501 59.0552 45.6742ZM65.4489 31.637L62.5665 30.2402C62.8012 29.7572 63.0222 29.2912 63.266 28.8002L66.1461 30.2003C65.9126 30.6754 65.687 31.1414 65.4489 31.637Z" fill="white"/>
<path d="M59.684 48.568C59.5769 48.7975 59.5198 49.0472 59.5165 49.3005C59.5074 53.623 59.5051 57.9459 59.5097 62.2691V62.7909C58.9617 62.6268 58.4911 62.4696 58.0126 62.3443C55.6338 61.7268 53.2276 61.8156 50.8351 62.1984C48.5579 62.5648 46.3333 63.2056 44.2101 64.1068C44.0472 64.1751 43.8797 64.2287 43.7145 64.289H43.2793C42.4568 64.0031 41.6353 63.6978 40.8014 63.4289C38.1047 62.5585 35.3533 61.9843 32.5062 61.9683C30.9465 61.9592 29.4073 62.1233 27.9263 62.6519C27.7964 62.6997 27.6585 62.7271 27.4705 62.7783V62.2828C27.4705 55.3194 27.4679 48.3568 27.4626 41.395C27.4626 41.0373 27.556 40.8812 27.9126 40.7832C30.1638 40.1668 32.4151 39.8718 34.6674 40.0609C34.5768 39.8355 34.5007 39.6045 34.4396 39.3693C34.4059 39.2312 34.3801 39.0912 34.3621 38.9501C33.5065 38.9034 32.6489 38.9103 31.7941 38.9706C30.0597 39.0959 28.3499 39.4534 26.7106 40.0335C26.4554 40.1224 26.3529 40.2398 26.3632 40.5177C26.3848 41.1284 26.37 41.7402 26.37 42.3406C26.0578 42.4329 25.7776 42.4933 25.5144 42.5958C24.6929 42.916 24.5642 43.1153 24.5642 43.9926V66.1142H25.1122C30.3203 66.1142 35.5276 66.1176 40.7342 66.1244C40.9972 66.1288 41.2537 66.2078 41.4736 66.3523C42.6425 67.1498 44.4357 67.1498 45.5989 66.3455C45.8057 66.2046 46.0484 66.1256 46.2985 66.1176C51.3774 66.1055 56.4564 66.1024 61.5353 66.1085H62.064V43.6645C61.95 43.8752 61.8885 43.9835 61.8361 44.0951C61.1127 45.5899 60.3881 47.0744 59.684 48.568Z" fill="white"/>
<path d="M37.8575 54.4843L38.1765 53.7027C35.0924 52.1146 32.0141 51.6589 28.8115 52.8027L29.0519 53.6344C32.0688 52.5919 34.9785 53.0465 37.8575 54.4843Z" fill="white"/>
<path d="M29.1739 56.0565C32.1975 54.9913 35.113 55.4732 37.9863 56.9019L38.2939 56.1169C35.2178 54.5299 32.1349 54.0662 28.9437 55.2157C28.9893 55.4014 29.0201 55.537 29.0577 55.6715C29.0953 55.8059 29.1272 55.9039 29.1739 56.0565Z" fill="white"/>
<path d="M33.2696 48.2398C34.7913 48.4206 36.2658 48.8843 37.6171 49.607C37.7231 49.3267 37.8176 49.0806 37.9247 48.7992C34.8486 47.2133 31.7668 46.769 28.5928 47.898C28.6144 48.0211 28.6224 48.1054 28.644 48.1851C28.6919 48.3583 28.7454 48.5269 28.8115 48.7548C30.2342 48.2258 31.7638 48.0491 33.2696 48.2398Z" fill="white"/>
<path d="M37.3801 44.8106C37.453 44.6329 37.5123 44.4961 37.567 44.3549C37.6023 44.2671 37.6319 44.1771 37.6877 44.0233C34.6116 42.442 31.5356 41.9874 28.333 43.129C28.4162 43.4241 28.4902 43.6838 28.5711 43.9675C31.5902 42.9057 34.5091 43.3865 37.3801 44.8106Z" fill="white"/>
<path d="M37.5032 47.2772L37.8142 46.5024C34.7461 44.8926 31.662 44.4677 28.4561 45.591L28.6896 46.4375C31.7167 45.3609 34.6242 45.8542 37.5032 47.2772Z" fill="white"/>
<path d="M37.7482 52.1305C37.8484 51.8765 37.9384 51.6498 38.058 51.349C34.982 49.754 31.8968 49.3119 28.6942 50.4512L28.9335 51.292C31.9617 50.2074 34.8749 50.7155 37.7482 52.1305Z" fill="white"/>
<path d="M29.0519 57.6401C29.1407 57.9546 29.208 58.195 29.2889 58.4832C30.7072 57.9579 32.231 57.7806 33.7321 57.966C35.2579 58.1495 36.7368 58.613 38.0944 59.3331L38.4112 58.5425C35.3396 56.9372 32.2521 56.5054 29.0519 57.6401Z" fill="white"/>
<path d="M57.4567 53.6344C57.5365 53.3587 57.6105 53.0989 57.6971 52.8027C54.4934 51.6634 51.4151 52.1192 48.3322 53.7028C48.4461 53.9956 48.5463 54.2314 48.65 54.4843C51.529 53.0465 54.4388 52.592 57.4567 53.6344Z" fill="white"/>
<path d="M48.2148 56.1169C48.3231 56.3949 48.4154 56.6318 48.5213 56.9019C51.3946 55.4732 54.31 54.9913 57.3349 56.0565C57.3804 55.9073 57.4192 55.7899 57.4488 55.6691C57.4784 55.5484 57.5149 55.4014 57.5627 55.2134C54.3727 54.0696 51.2921 54.5298 48.2148 56.1169Z" fill="white"/>
<path d="M48.094 58.5447C48.2079 58.8284 48.3013 59.0654 48.4096 59.3354C49.7672 58.6153 51.2461 58.1518 52.7719 57.9683C54.2731 57.7828 55.7968 57.9602 57.2152 58.4855C57.296 58.1973 57.3644 57.9569 57.4521 57.6424C54.2553 56.5054 51.1689 56.9372 48.094 58.5447Z" fill="white"/>
<path d="M6.40094 57.9397L5.68563 55.2608L6.83406 54.9541L7.02742 55.6783L6.54983 55.8058L6.78056 56.6699L7.44474 56.4926L7.26621 55.8239L7.9104 55.6519L8.08893 56.3206L8.86862 56.1124L8.63789 55.2483L8.04035 55.4078L7.84699 54.6837L9.05318 54.3616L9.76849 57.0405L9.15985 57.203L9.06554 56.8499L6.97748 57.4074L7.07179 57.7606L6.40094 57.9397Z" fill="white"/>
<path d="M8.54268 51.5325L7.95352 51.6336C8.13426 51.699 8.2708 51.7697 8.36314 51.8456C8.45549 51.9215 8.5348 52.0121 8.60108 52.1173C8.6671 52.2211 8.71556 52.3675 8.74647 52.5566C8.76103 52.6505 8.76653 52.746 8.76297 52.843C8.7579 52.9403 8.74476 53.0359 8.72354 53.1298C8.70081 53.2239 8.67103 53.3176 8.63419 53.411C8.59558 53.5032 8.54811 53.5891 8.4918 53.6687C8.35139 53.8655 8.17819 54.0297 7.97219 54.1615C7.76443 54.292 7.52912 54.3799 7.26626 54.425C7.10462 54.4527 6.94489 54.4599 6.78708 54.4466C6.62927 54.4332 6.47856 54.4023 6.33494 54.3539C6.19132 54.3055 6.05733 54.2406 5.93295 54.1593C5.80681 54.0768 5.69472 53.9809 5.59667 53.8718C5.49836 53.7611 5.41587 53.6384 5.34919 53.5037C5.28252 53.3689 5.23583 53.2238 5.20912 53.0682C5.17852 52.8899 5.17611 52.7309 5.20189 52.5912C5.22616 52.4517 5.29029 52.2953 5.39428 52.1219L5.30715 51.6143L6.07307 51.4829L6.19326 52.1831C6.09793 52.271 6.03141 52.35 5.9937 52.4203C5.95573 52.489 5.9271 52.5623 5.90783 52.6403C5.88829 52.7167 5.88954 52.8192 5.91158 52.9476C5.93337 53.0745 5.9823 53.1874 6.05837 53.2863C6.13445 53.3852 6.22846 53.4663 6.34039 53.5295C6.45056 53.5915 6.57601 53.6337 6.71672 53.6562C6.85593 53.6789 6.99503 53.6784 7.13401 53.6545C7.27148 53.6309 7.39866 53.5881 7.51553 53.5261C7.63241 53.464 7.73356 53.3829 7.81901 53.2827C7.90294 53.1827 7.96188 53.0731 7.99582 52.9537C8.02977 52.8344 8.03598 52.712 8.01445 52.5866C7.98697 52.4265 7.91615 52.2948 7.802 52.1915C7.68785 52.0883 7.54542 52.0241 7.3747 51.9989L7.48711 52.6538L6.86622 52.7604L6.59317 51.1696L8.42638 50.855L8.54268 51.5325Z" fill="white"/>
<path d="M7.74898 50.4116L7.72071 50.0564L5.50442 50.2327L5.53269 50.588L4.89783 50.6385L4.76763 48.9444C4.7551 48.787 4.77194 48.6412 4.81814 48.5068C4.86269 48.371 4.92932 48.2519 5.01805 48.1495C5.10524 48.0473 5.21094 47.965 5.33516 47.9029C5.45772 47.8393 5.59081 47.8018 5.73444 47.7904C5.90252 47.777 6.04393 47.7957 6.15868 47.8466C6.27332 47.8959 6.36856 47.9721 6.44443 48.0752C6.50865 47.9548 6.59239 47.8574 6.69564 47.7831C6.79725 47.7073 6.92521 47.6633 7.07954 47.651C7.23691 47.6385 7.38349 47.6545 7.51927 47.6991C7.65493 47.7421 7.77466 47.8071 7.87846 47.8942C7.98061 47.9799 8.06353 48.0848 8.12723 48.2089C8.18939 48.3331 8.22637 48.4693 8.23816 48.6175L8.37696 50.3616L7.74898 50.4116ZM6.85111 49.3598L7.66015 49.2955L7.61419 48.7179C7.61066 48.6736 7.59592 48.6332 7.56996 48.5969C7.54388 48.559 7.51141 48.5277 7.47255 48.5031C7.43204 48.4771 7.38667 48.4577 7.33644 48.4448C7.28468 48.432 7.23206 48.4277 7.17858 48.432C7.12205 48.4365 7.07077 48.449 7.02474 48.4696C6.97718 48.4903 6.93699 48.5165 6.90416 48.5484C6.8698 48.5803 6.84426 48.6169 6.82756 48.6582C6.80921 48.6981 6.80174 48.7395 6.80514 48.7823L6.85111 49.3598ZM5.44387 49.4718L6.22312 49.4098L6.17971 48.8643C6.17631 48.8216 6.16239 48.7819 6.13796 48.7454C6.11353 48.7089 6.08264 48.6783 6.04531 48.6536C6.00633 48.6275 5.96402 48.6078 5.91837 48.5945C5.87119 48.5814 5.82316 48.5767 5.77426 48.5806C5.7269 48.5844 5.6802 48.5966 5.63417 48.6171C5.58814 48.6377 5.54718 48.664 5.5113 48.6961C5.47529 48.7267 5.44734 48.7619 5.42746 48.802C5.40606 48.8421 5.39705 48.8836 5.40046 48.9263L5.44387 49.4718Z" fill="white"/>
<path d="M4.67783 47.2738L4.64798 45.7816L5.27796 45.769L5.28531 46.1369L7.5109 46.0924L7.50355 45.7245L8.13352 45.7119L8.16336 47.2041L7.53339 47.2167L7.52617 46.8557L5.30058 46.9002L5.3078 47.2612L4.67783 47.2738Z" fill="white"/>
<path d="M7.58132 43.548L7.59868 43.2008L7.08964 43.3321L7.03607 44.4035L7.52947 44.5849L7.54786 44.217L8.17783 44.2485L8.11173 45.5705L7.48176 45.539L7.49475 45.2792L4.68667 44.1869L4.73277 43.2649L7.63477 42.4789L7.64742 42.226L8.27739 42.2574L8.21129 43.5795L7.58132 43.548ZM6.45657 44.1924L6.49174 43.4889L5.34055 43.7863L6.45657 44.1924Z" fill="white"/>
<path d="M5.20276 39.3112L5.4001 38.0017L6.02531 38.0959L5.98317 38.3755L8.80458 38.8007L8.69083 39.5555L6.24661 40.6543L7.8517 40.8962L7.89521 40.6075L8.51815 40.7014L8.32115 42.0086L7.69821 41.9148L7.74104 41.6306L5.54257 41.2993L5.50043 41.5789L4.87522 41.4847L5.03213 40.4434L7.50453 39.3582L5.87216 39.1122L5.82797 39.4054L5.20276 39.3112Z" fill="white"/>
<path d="M7.41467 34.4184C7.27343 34.468 7.16916 34.5192 7.10185 34.5719C7.03306 34.6243 6.97758 34.6859 6.93542 34.7569C6.89178 34.8275 6.85817 34.9048 6.83461 34.9889C6.79987 35.1129 6.79566 35.2359 6.82198 35.3579C6.84682 35.4794 6.89625 35.5928 6.97027 35.6979C7.04323 35.8011 7.13698 35.8926 7.2515 35.9724C7.36456 36.0519 7.49193 36.1114 7.63362 36.1511C7.77679 36.1912 7.91783 36.2077 8.05675 36.2004C8.19461 36.1913 8.32153 36.1616 8.43749 36.1113C8.55345 36.061 8.65436 35.9906 8.74022 35.9C8.8246 35.8091 8.88457 35.7001 8.92013 35.5732C8.94494 35.4846 8.95407 35.398 8.94753 35.3134C8.93951 35.2284 8.92057 35.1483 8.8907 35.0731C8.86125 34.9964 8.82289 34.9259 8.7756 34.8617C8.72684 34.7972 8.67298 34.7423 8.614 34.6971L9.01297 34.04C9.14479 34.1263 9.26029 34.2311 9.35946 34.3544C9.45716 34.4773 9.53345 34.614 9.58834 34.7647C9.64364 34.9139 9.6752 35.074 9.68303 35.2449C9.69127 35.4143 9.67017 35.5891 9.61973 35.7692C9.57714 35.9212 9.51575 36.0608 9.43555 36.1879C9.35536 36.3151 9.26067 36.4287 9.15149 36.5286C9.04273 36.6271 8.92136 36.7109 8.78739 36.78C8.65383 36.8476 8.51313 36.8981 8.36529 36.9315C8.21597 36.9645 8.06214 36.9795 7.90379 36.9765C7.74397 36.9732 7.58362 36.9489 7.42274 36.9039C7.18216 36.8365 6.96886 36.7313 6.78285 36.5885C6.59535 36.4452 6.44385 36.2786 6.32833 36.0887C6.21134 35.8983 6.13533 35.6924 6.10029 35.4709C6.06418 35.2474 6.07797 35.0221 6.14165 34.7948C6.1925 34.6133 6.25818 34.4669 6.33866 34.3557C6.41768 34.2442 6.54448 34.1324 6.71908 34.0206L6.85801 33.5247L7.60631 33.7343L7.41467 34.4184Z" fill="white"/>
<path d="M10.726 32.4445C10.6691 32.5917 10.5946 32.7248 10.5027 32.8438C10.4107 32.9627 10.3056 33.0667 10.1874 33.1557C10.0697 33.2433 9.9416 33.3154 9.80307 33.372C9.66366 33.4266 9.51878 33.4634 9.36843 33.4826C9.21664 33.5011 9.06208 33.5014 8.90474 33.4833C8.7474 33.4652 8.59082 33.4261 8.43498 33.3658C8.27914 33.3056 8.13691 33.2293 8.00831 33.1369C7.87827 33.0439 7.76405 32.9397 7.66563 32.8245C7.56578 32.7087 7.48334 32.584 7.4183 32.4504C7.35238 32.3148 7.30534 32.175 7.27718 32.031C7.24957 31.8856 7.24172 31.738 7.25363 31.5881C7.26554 31.4382 7.29995 31.2897 7.35686 31.1424C7.41377 30.9951 7.48821 30.8621 7.58018 30.7431C7.67271 30.6228 7.7778 30.5188 7.89548 30.4312C8.0137 30.3421 8.14252 30.2703 8.28192 30.2157C8.42045 30.1591 8.56561 30.1216 8.7174 30.103C8.8683 30.0825 9.02314 30.0815 9.18191 30.1001C9.33925 30.1182 9.49584 30.1574 9.65168 30.2176C9.80609 30.2773 9.94831 30.3536 10.0783 30.4466C10.2069 30.539 10.3209 30.6438 10.4202 30.7611C10.5186 30.8764 10.6008 31.0018 10.6667 31.1374C10.7317 31.2709 10.7781 31.4104 10.8057 31.5559C10.8338 31.6999 10.8417 31.8475 10.8292 31.9988C10.8173 32.1487 10.7829 32.2972 10.726 32.4445ZM10.0526 32.1842C10.1007 32.0598 10.1181 31.936 10.105 31.8126C10.091 31.6872 10.0527 31.5697 9.98988 31.46C9.92568 31.3497 9.84055 31.2511 9.7345 31.1641C9.62757 31.0751 9.50547 31.0041 9.36822 30.951C9.22954 30.8974 9.09071 30.8676 8.95173 30.8616C8.81275 30.8555 8.68286 30.8727 8.56208 30.9131C8.44041 30.9515 8.33324 31.012 8.24056 31.0945C8.14645 31.1764 8.07563 31.2789 8.02811 31.4018C7.98059 31.5248 7.96411 31.6482 7.97865 31.7722C7.99177 31.8955 8.03043 32.0124 8.09463 32.1226C8.1574 32.2323 8.24197 32.3324 8.34835 32.4228C8.45528 32.5118 8.57809 32.5831 8.71677 32.6367C8.85403 32.6897 8.99214 32.7193 9.13112 32.7253C9.26922 32.7294 9.39911 32.7122 9.52077 32.6738C9.64101 32.6348 9.74818 32.5743 9.84229 32.4924C9.93497 32.4099 10.0051 32.3072 10.0526 32.1842Z" fill="white"/>
<path d="M8.32918 28.9394L8.98868 27.6009L9.55584 27.8804L9.39325 28.2103L11.3876 29.193L11.7229 28.5124C11.7318 28.4945 11.7354 28.475 11.7339 28.4537C11.7317 28.4304 11.7254 28.4085 11.715 28.388C11.7053 28.3661 11.6928 28.3463 11.6777 28.3286C11.6625 28.3109 11.6459 28.2976 11.6281 28.2888L11.2094 28.0825L11.5386 27.4143L12.6874 27.9803L11.4558 30.4799L10.8907 30.2015L11.0502 29.8777L9.05588 28.8951L8.89634 29.2189L8.32918 28.9394Z" fill="white"/>
<path d="M9.83237 25.96L10.5978 24.6791L11.1405 25.0034L10.9518 25.3192L12.8603 26.4596L13.2495 25.8083C13.2597 25.7912 13.265 25.772 13.2652 25.7507C13.2649 25.7273 13.2604 25.705 13.2517 25.6837C13.2437 25.6611 13.2329 25.6404 13.2192 25.6215C13.2055 25.6026 13.1901 25.588 13.173 25.5778L12.7724 25.3384L13.1545 24.6989L14.2538 25.3558L12.8244 27.7479L12.2836 27.4247L12.4688 27.1149L10.5603 25.9745L10.3751 26.2843L9.83237 25.96Z" fill="white"/>
<path d="M11.5953 23.1273L13.2035 20.8813L14.1664 21.5708L13.7316 22.1779L13.3312 21.8912L12.8125 22.6156L13.3693 23.0144L13.7707 22.4538L14.3108 22.8405L13.9094 23.4011L14.5631 23.8691L15.0818 23.1447L14.5808 22.786L15.0156 22.1789L16.0268 22.903L14.4186 25.1489L13.9083 24.7835L14.1203 24.4874L12.3698 23.2339L12.1577 23.53L11.5953 23.1273Z" fill="white"/>
<path d="M17.8728 20.684L17.4193 20.2945C17.4841 20.4755 17.5167 20.6257 17.5171 20.7452C17.5175 20.8648 17.4982 20.9836 17.4594 21.1018C17.4215 21.2188 17.3396 21.3495 17.2136 21.4938C17.1505 21.5649 17.0804 21.63 17.0034 21.6891C16.9252 21.7472 16.8432 21.798 16.7573 21.8415C16.6704 21.884 16.5791 21.9208 16.4837 21.9519C16.388 21.9809 16.2916 21.9991 16.1943 22.0065C15.9532 22.0237 15.7163 21.9949 15.4834 21.9202C15.2504 21.8433 15.0328 21.718 14.8304 21.5442C14.706 21.4374 14.5987 21.3189 14.5084 21.1888C14.4181 21.0587 14.3458 20.9229 14.2916 20.7813C14.2374 20.6398 14.2019 20.4952 14.1853 20.3476C14.1685 20.1977 14.1709 20.0503 14.1925 19.9052C14.2151 19.7589 14.257 19.6171 14.3183 19.4799C14.3797 19.3426 14.4618 19.2141 14.5646 19.0943C14.6825 18.9571 14.8034 18.8539 14.9275 18.7847C15.0505 18.7145 15.2119 18.6642 15.4117 18.6338L15.7473 18.2431L16.3368 18.7495L15.8739 19.2884C15.7454 19.271 15.6421 19.2702 15.5639 19.2859C15.4868 19.3004 15.412 19.3251 15.3397 19.36C15.2683 19.3936 15.1902 19.4599 15.1053 19.5587C15.0214 19.6564 14.9656 19.7661 14.9379 19.8877C14.9102 20.0094 14.9076 20.1335 14.9303 20.26C14.9528 20.3844 15.0002 20.508 15.0725 20.6308C15.1437 20.7525 15.2328 20.8594 15.3398 20.9512C15.4456 21.0421 15.5597 21.1128 15.682 21.1633C15.8043 21.2138 15.9313 21.24 16.0629 21.242C16.1934 21.243 16.3155 21.2185 16.4291 21.1686C16.5427 21.1186 16.641 21.0454 16.7238 20.9489C16.8297 20.8257 16.886 20.6872 16.8929 20.5334C16.8997 20.3796 16.8583 20.2289 16.7689 20.0814L16.3359 20.5854L15.858 20.175L16.9097 18.9506L18.3207 20.1625L17.8728 20.684Z" fill="white"/>
<path d="M16.2165 17.2837L18.2129 15.3427L19.0449 16.1986L18.5053 16.7232L18.1593 16.3673L17.5153 16.9934L17.9965 17.4883L18.4948 17.0039L18.9615 17.484L18.4633 17.9684L19.0282 18.5494L19.6721 17.9234L19.2392 17.4781L19.7788 16.9534L20.6527 17.8523L18.6563 19.7932L18.2154 19.3397L18.4786 19.0838L16.9657 17.5277L16.7025 17.7836L16.2165 17.2837Z" fill="white"/>
<path d="M22.9307 16.1017C22.806 16.198 22.6736 16.2731 22.5336 16.3271C22.3936 16.3811 22.2501 16.4155 22.1031 16.4305C21.9573 16.4444 21.8107 16.4398 21.6632 16.4164C21.516 16.391 21.3732 16.3475 21.235 16.2861C21.0958 16.2235 20.9637 16.1438 20.8387 16.047C20.7137 15.9502 20.6003 15.8359 20.4983 15.7039C20.3964 15.5719 20.3145 15.4332 20.2524 15.2878C20.1895 15.1412 20.1458 14.9932 20.1214 14.8439C20.096 14.6934 20.0901 14.5443 20.1036 14.3967C20.1174 14.2468 20.1495 14.1032 20.1999 13.9657C20.2515 13.8273 20.3212 13.6971 20.4088 13.5754C20.4965 13.4536 20.6026 13.3445 20.7274 13.2482C20.8521 13.1519 20.9844 13.0768 21.1245 13.0228C21.2657 12.9679 21.4092 12.9334 21.5549 12.9194C21.7019 12.9045 21.849 12.9098 21.9963 12.9353C22.1438 12.9586 22.2871 13.0016 22.4263 13.0642C22.5658 13.1246 22.6985 13.2039 22.8244 13.3019C22.9494 13.3986 23.0628 13.513 23.1647 13.645C23.2657 13.7758 23.3477 13.9145 23.4106 14.0611C23.4726 14.2065 23.5157 14.3549 23.5399 14.5064C23.5643 14.6556 23.5696 14.8052 23.5558 14.955C23.5423 15.1027 23.5097 15.2458 23.4581 15.3842C23.4077 15.5217 23.3381 15.6518 23.2492 15.7745C23.1616 15.8963 23.0554 16.0054 22.9307 16.1017ZM22.4903 15.5313C22.5956 15.45 22.6746 15.3533 22.7272 15.2411C22.7801 15.1269 22.8081 15.0067 22.8112 14.8806C22.8134 14.7532 22.7917 14.625 22.7461 14.4959C22.7008 14.3647 22.6333 14.2409 22.5435 14.1247C22.4528 14.0072 22.3497 13.91 22.2342 13.833C22.1187 13.7559 21.9989 13.7034 21.8749 13.6755C21.7512 13.6454 21.6284 13.6416 21.5066 13.6641C21.3839 13.6855 21.2705 13.7363 21.1663 13.8167C21.0622 13.8971 20.9843 13.994 20.9327 14.1073C20.8801 14.2195 20.8527 14.3392 20.8505 14.4665C20.8474 14.5926 20.8678 14.7218 20.9119 14.854C20.9572 14.9852 21.0252 15.1096 21.1159 15.227C21.2057 15.3433 21.3083 15.4399 21.4238 15.5169C21.5396 15.5918 21.6594 15.6443 21.7831 15.6744C21.9059 15.7033 22.0287 15.707 22.1514 15.6857C22.2732 15.6632 22.3862 15.6118 22.4903 15.5313Z" fill="white"/>
<path d="M22.6905 11.8577L24.9595 10.3999L25.602 11.3999L24.9734 11.8038L24.7086 11.3918L24.0142 11.838L24.4107 12.455L25.0122 12.0685L25.3739 12.6314L24.7723 13.0179L25.1799 13.6524L25.4894 13.4535L25.83 13.9836L24.5746 14.7901L24.234 14.2601L24.5377 14.065L23.372 12.2506L23.0683 12.4457L22.6905 11.8577Z" fill="white"/>
<path d="M28.4124 8.5663L29.7574 7.90874L30.0356 8.47778L29.7046 8.63964L30.6828 10.6406L31.0139 10.4787L31.2911 11.0457L29.9461 11.7033L29.6689 11.1363L29.9958 10.9765L29.6033 10.1736L28.1879 10.8656L28.5804 11.6684L28.9115 11.5066L29.1887 12.0735L27.8458 12.7301L27.5686 12.1631L27.8935 12.0043L26.9152 10.0033L26.5903 10.1621L26.3121 9.59311L27.6551 8.93656L27.9333 9.5056L27.6022 9.66746L27.9209 10.3193L29.3362 9.62732L29.0176 8.9755L28.6906 9.13534L28.4124 8.5663Z" fill="white"/>
<path d="M30.5203 7.64923L33.1226 6.69179L33.533 7.80735L32.8296 8.06616L32.6589 7.60224L31.8195 7.91107L32.0569 8.55624L32.7064 8.31727L32.9366 8.94302L32.2871 9.18198L32.5658 9.93935L33.4051 9.63053L33.1916 9.05009L33.895 8.79128L34.3261 9.96294L31.7239 10.9204L31.5063 10.3292L31.8494 10.2029L31.1031 8.17464L30.7601 8.30087L30.5203 7.64923Z" fill="white"/>
<path d="M36.2269 8.77681L36.5619 8.68561L36.2794 8.24306L35.2456 8.52452L35.2264 9.0492L35.5814 8.95256L35.7469 9.56041L34.4713 9.9077L34.3058 9.29985L34.5565 9.2316L34.7225 6.22689L35.6121 5.98469L37.2585 8.49596L37.5025 8.42952L37.668 9.03737L36.3924 9.38465L36.2269 8.77681ZM35.2662 7.90889L35.9451 7.72407L35.3057 6.7234L35.2662 7.90889Z" fill="white"/>
<path d="M37.3079 5.59382L38.7703 5.32523L38.8841 5.94486L38.5236 6.01107L38.9237 8.1899L39.6673 8.05333C39.6868 8.04974 39.7046 8.04104 39.7207 8.02721C39.738 8.01161 39.7518 7.99355 39.762 7.97304C39.7737 7.95226 39.7822 7.93052 39.7873 7.90784C39.7925 7.88515 39.7932 7.86405 39.7897 7.84452L39.7056 7.38712L40.4357 7.25304L40.6662 8.50806L37.9353 9.00964L37.8219 8.39227L38.1757 8.3273L37.7755 6.14847L37.4217 6.21344L37.3079 5.59382Z" fill="white"/>
<path d="M41.4708 7.77732L41.8301 7.74247L41.6132 5.50668L41.1921 5.54752L41.2356 5.99606L40.4896 6.06842L40.3873 5.01345L43.543 4.70737L43.6454 5.76233L42.8947 5.83513L42.8512 5.3866L42.373 5.43299L42.5898 7.66878L42.956 7.63327L43.0168 8.2603L41.5316 8.40435L41.4708 7.77732Z" fill="white"/>
<path d="M46.5225 4.67178L48.0168 4.69604L48.0065 5.32822L47.6387 5.32225L47.6026 7.54525L47.9704 7.55122L47.9602 8.18111L46.4659 8.15685L46.4762 7.52696L46.8394 7.53286L46.8539 6.6409L45.2814 6.61538L45.267 7.50734L45.6348 7.51331L45.6246 8.14319L44.1326 8.11898L44.1428 7.48909L44.5037 7.49495L44.5398 5.27195L44.1789 5.26609L44.1892 4.6339L45.6811 4.65812L45.6709 5.29031L45.3031 5.28434L45.2913 6.00848L46.8637 6.034L46.8755 5.30986L46.5123 5.30397L46.5225 4.67178Z" fill="white"/>
<path d="M51.3622 5.99902C51.361 5.94484 51.348 5.89233 51.3233 5.84148C51.3001 5.79082 51.2669 5.7459 51.2238 5.70673C51.1823 5.66622 51.1331 5.6325 51.0762 5.60555C51.0207 5.57879 50.9611 5.56156 50.8972 5.55384C50.8393 5.54687 50.7846 5.54644 50.7329 5.55255C50.6812 5.55867 50.6348 5.57236 50.5936 5.59364C50.5542 5.61358 50.5206 5.64196 50.493 5.67877C50.4669 5.71576 50.4506 5.76165 50.444 5.81644C50.4357 5.88491 50.4436 5.94144 50.4675 5.98602C50.4932 6.02925 50.5273 6.06656 50.5698 6.09794C50.6139 6.1295 50.6631 6.15629 50.7176 6.1783C50.7721 6.20031 50.8248 6.22366 50.8759 6.24835L51.4783 6.53409C51.5613 6.57499 51.6377 6.62666 51.7074 6.6891C51.777 6.75154 51.8346 6.82411 51.8803 6.90681C51.9274 6.98969 51.9609 7.08251 51.981 7.18528C52.001 7.28805 52.0036 7.40106 51.9887 7.52433C51.9685 7.69172 51.9188 7.84089 51.8397 7.97184C51.7622 8.10297 51.6619 8.21129 51.5388 8.2968C51.4158 8.38231 51.2734 8.44309 51.1116 8.47915C50.9497 8.5152 50.7745 8.52185 50.5858 8.49908C50.4534 8.4831 50.3297 8.45274 50.2147 8.40798C50.101 8.36493 49.9988 8.30938 49.9082 8.24132C49.8176 8.17327 49.7405 8.09603 49.6768 8.00961C49.6133 7.92166 49.567 7.82575 49.5379 7.72188L49.3027 7.69352L49.3856 7.00645L50.212 7.10615L50.1949 7.24767C50.1866 7.31615 50.1896 7.38059 50.204 7.44099C50.2198 7.50157 50.2472 7.55582 50.2862 7.60376C50.3252 7.65169 50.3767 7.69187 50.4407 7.7243C50.5049 7.7552 50.5819 7.77607 50.6717 7.7869C50.8087 7.80343 50.9167 7.78481 50.9957 7.73105C51.075 7.67577 51.1214 7.59182 51.135 7.47921C51.1419 7.42138 51.1348 7.37189 51.1135 7.33072C51.0939 7.28822 51.0659 7.25165 51.0295 7.221C50.9932 7.18884 50.9518 7.16069 50.9054 7.13655C50.8589 7.11242 50.8129 7.08989 50.7676 7.06898L50.2653 6.837C50.17 6.79463 50.0793 6.74045 49.9931 6.67447C49.9084 6.60867 49.8352 6.53037 49.7736 6.43957C49.7135 6.34895 49.6688 6.24628 49.6394 6.13158C49.6117 6.01553 49.6064 5.88675 49.6235 5.74523C49.6433 5.58088 49.6914 5.43847 49.7677 5.31798C49.8442 5.19598 49.9425 5.09746 50.0627 5.02242C50.1829 4.94738 50.3211 4.89612 50.4773 4.86864C50.6335 4.84117 50.8013 4.83827 50.9809 4.85993C51.1224 4.87701 51.2513 4.90954 51.3674 4.95752C51.4838 5.00398 51.5858 5.0603 51.6736 5.12646C51.7628 5.19281 51.8359 5.2657 51.8927 5.34511C51.9512 5.42319 51.9934 5.50239 52.0192 5.5827L52.2474 5.61024L52.1643 6.29959L51.338 6.19989L51.3622 5.99902Z" fill="white"/>
<path d="M54.9238 6.71457C54.8646 6.57708 54.8064 6.47657 54.7491 6.41304C54.6921 6.34802 54.6268 6.29691 54.5531 6.25972C54.4797 6.22103 54.4003 6.19282 54.3147 6.17509C54.1887 6.14895 54.0657 6.15321 53.9458 6.18784C53.8262 6.22097 53.7166 6.27808 53.6168 6.35914C53.5188 6.43902 53.434 6.53884 53.3622 6.65858C53.2907 6.77682 53.24 6.90798 53.2102 7.05207C53.18 7.19765 53.1733 7.33949 53.1901 7.47759C53.2087 7.6145 53.247 7.73907 53.3052 7.8513C53.3633 7.96353 53.4405 8.05936 53.5367 8.1388C53.6333 8.21673 53.7461 8.26907 53.8752 8.29582C53.9652 8.31449 54.0522 8.31765 54.1362 8.30531C54.2204 8.29147 54.2991 8.26707 54.3721 8.23211C54.4466 8.19745 54.5142 8.15434 54.575 8.10276C54.6361 8.04968 54.6871 7.99216 54.7281 7.93022L55.4111 8.2831C55.3341 8.42054 55.2375 8.54297 55.1213 8.65037C55.0054 8.75628 54.8742 8.84179 54.7276 8.9069C54.5826 8.97232 54.4251 9.01481 54.2551 9.03437C54.0866 9.05423 53.9108 9.04519 53.7277 9.00724C53.5731 8.97519 53.4296 8.92354 53.2973 8.85227C53.1649 8.78101 53.0451 8.69435 52.9379 8.59229C52.8322 8.49055 52.7403 8.37522 52.6621 8.24632C52.5854 8.11772 52.5254 7.98083 52.4819 7.83563C52.4387 7.68893 52.4132 7.53649 52.4053 7.37832C52.3977 7.21864 52.4108 7.05701 52.4447 6.89341C52.4954 6.64877 52.5857 6.42875 52.7154 6.23336C52.8454 6.03647 53.0012 5.87387 53.1828 5.74558C53.3647 5.61578 53.5649 5.52579 53.7835 5.47562C54.0039 5.42425 54.2297 5.42252 54.4608 5.47042C54.6454 5.50869 54.7959 5.56415 54.9123 5.63681C55.0291 5.70797 55.1493 5.82679 55.2728 5.99329L55.7771 6.09782L55.6194 6.85876L54.9238 6.71457Z" fill="white"/>
<path d="M56.6014 6.03766L58.0371 6.4442L57.8655 7.05034L57.5115 6.95011L56.9052 9.09151L57.2591 9.19174L57.0875 9.79788L55.6518 9.39134L55.8234 8.7852L56.1707 8.88355L56.7771 6.74215L56.4298 6.6438L56.6014 6.03766Z" fill="white"/>
<path d="M58.6029 6.61214L61.2093 7.55489L60.8052 8.67224L60.1006 8.4174L60.2687 7.95274L59.428 7.64865L59.1942 8.29485L59.8448 8.53015L59.6181 9.1569L58.9675 8.92161L58.6932 9.68019L59.5339 9.98428L59.7441 9.40291L60.4487 9.65775L60.0242 10.8313L57.4178 9.88854L57.632 9.29637L57.9756 9.42066L58.7104 7.38912L58.3668 7.26483L58.6029 6.61214Z" fill="white"/>
<path d="M63.8232 8.70357L65.0243 9.26137L64.758 9.83482L64.5015 9.71571L63.2998 12.3035L62.6075 11.982L62.2407 9.3274L61.557 10.7996L61.8218 10.9226L61.5565 11.494L60.3574 10.9371L60.6228 10.3658L60.8834 10.4868L61.8199 8.47035L61.5634 8.35124L61.8297 7.77779L62.7848 8.22131L63.1306 10.8992L63.8259 9.40195L63.5569 9.27702L63.8232 8.70357Z" fill="white"/>
<path d="M67.0277 11.6528C67.016 11.5036 66.9932 11.3897 66.9594 11.3111C66.9265 11.2312 66.8811 11.1618 66.8233 11.1029C66.7662 11.0426 66.7001 10.9903 66.6248 10.946C66.5139 10.8807 66.3961 10.8451 66.2714 10.8393C66.1475 10.8322 66.0253 10.8509 65.9048 10.8956C65.7863 10.9397 65.6738 11.0068 65.5673 11.0971C65.4616 11.186 65.3714 11.2939 65.2967 11.4207C65.2213 11.5488 65.1693 11.681 65.1407 11.8171C65.1142 11.9527 65.1104 12.083 65.1293 12.208C65.1483 12.3329 65.1905 12.4485 65.256 12.5547C65.3224 12.6596 65.4123 12.7454 65.5259 12.8123C65.6052 12.859 65.6865 12.89 65.77 12.9053C65.8542 12.9194 65.9365 12.9216 66.0169 12.912C66.0985 12.9031 66.1765 12.8841 66.2506 12.8548C66.3255 12.8242 66.3924 12.7862 66.4512 12.7408L66.9841 13.2947C66.867 13.4001 66.7361 13.4849 66.5915 13.5492C66.4477 13.6121 66.296 13.6508 66.1363 13.6653C65.9779 13.6806 65.8151 13.6701 65.6478 13.6339C65.4819 13.5984 65.3184 13.5333 65.1573 13.4384C65.0212 13.3583 64.902 13.2632 64.7996 13.1531C64.6972 13.043 64.6117 12.9224 64.5431 12.7913C64.4758 12.6609 64.4259 12.5221 64.3934 12.3749C64.3622 12.2285 64.3494 12.0796 64.355 11.9281C64.3613 11.7753 64.3862 11.6228 64.4296 11.4705C64.4739 11.3168 64.5383 11.168 64.6231 11.0241C64.7499 10.8088 64.9061 10.6295 65.0918 10.4863C65.2783 10.3417 65.4782 10.238 65.6914 10.175C65.9054 10.1106 66.1239 10.0899 66.347 10.1127C66.5722 10.1351 66.7865 10.2061 66.9899 10.3259C67.1524 10.4215 67.2771 10.5225 67.3639 10.6288C67.4515 10.7337 67.527 10.8849 67.5904 11.0823L68.0342 11.3437L67.6399 12.0133L67.0277 11.6528Z" fill="white"/>
<path d="M68.8602 11.5874L71.1061 13.1956L70.4167 14.1584L69.8096 13.7237L70.0963 13.3233L69.3719 12.8046L68.9731 13.3614L69.5337 13.7628L69.147 14.3029L68.5864 13.9015L68.1184 14.5551L68.8428 15.0739L69.2015 14.5729L69.8086 15.0076L69.0845 16.0189L66.8386 14.4107L67.204 13.9004L67.5001 14.1124L68.7536 12.3618L68.4575 12.1498L68.8602 11.5874Z" fill="white"/>
<path d="M71.9227 17.5404L72.1831 17.773L72.4017 17.2923L71.5981 16.5745L71.1451 16.8456L71.421 17.0921L70.9989 17.5646L70.0074 16.6788L70.4294 16.2064L70.6243 16.3804L73.2497 14.875L73.9412 15.4927L72.7246 18.2567L72.9143 18.4261L72.4922 18.8986L71.5007 18.0129L71.9227 17.5404ZM72.1287 16.2547L72.6564 16.7261L73.1502 15.6388L72.1287 16.2547Z" fill="white"/>
<path d="M76.6982 18.3402L77.5971 19.3127L77.1328 19.7419L76.9409 19.5342L74.8456 21.471L74.3275 20.9105L74.9973 18.3157L73.8053 19.4176L74.0035 19.632L73.5409 20.0596L72.6435 19.0888L73.1061 18.6612L73.3012 18.8722L74.9338 17.3631L74.7419 17.1554L75.2062 16.7262L75.921 17.4995L75.223 20.1078L76.4352 18.9872L76.2339 18.7694L76.6982 18.3402Z" fill="white"/>
<path d="M77.9335 19.7594L78.7498 20.8165C78.847 20.9424 78.9237 21.0755 78.9798 21.2158C79.0369 21.3573 79.0741 21.5006 79.0914 21.6457C79.1097 21.792 79.1084 21.938 79.0875 22.0836C79.0687 22.2296 79.0309 22.3708 78.9741 22.5075C78.9172 22.6442 78.8422 22.7736 78.7491 22.8958C78.6559 23.0179 78.5458 23.1281 78.4187 23.2263C78.2915 23.3245 78.1571 23.4032 78.0153 23.4624C77.8735 23.5216 77.7287 23.5619 77.5809 23.5832C77.4343 23.6036 77.2869 23.6054 77.1385 23.5885C76.9923 23.5719 76.8502 23.5367 76.712 23.483C76.576 23.4295 76.4468 23.3572 76.3243 23.2662C76.2028 23.1764 76.0934 23.0686 75.9962 22.9426L75.1799 21.8855L75.6776 21.5013L75.8473 21.721L77.6037 20.3648L77.434 20.145L77.9335 19.7594ZM78.0693 20.9678L76.3129 22.3241L76.4911 22.5547C76.5668 22.6528 76.6613 22.7277 76.7747 22.7793C76.888 22.831 77.0088 22.8585 77.1371 22.8619C77.2665 22.8644 77.399 22.8433 77.5346 22.7985C77.6713 22.7528 77.8015 22.6823 77.925 22.5869C78.0473 22.4925 78.1472 22.3854 78.2248 22.2656C78.3024 22.1457 78.3557 22.0234 78.3849 21.8984C78.414 21.7735 78.4174 21.6501 78.3948 21.5283C78.3723 21.4065 78.3232 21.2966 78.2475 21.1985L78.0693 20.9678Z" fill="white"/>
<path d="M78.6147 25.5833L78.8004 25.8928L80.7265 24.7369L80.5088 24.3741L80.1224 24.606L79.7367 23.9634L80.6455 23.4179L82.277 26.1365L81.3682 26.6819L80.9802 26.0353L81.3666 25.8034L81.1193 25.3914L79.1932 26.5473L79.3825 26.8627L78.8424 27.1869L78.0745 25.9075L78.6147 25.5833Z" fill="white"/>
<path d="M82.5441 26.6504L83.7661 29.1393L82.6991 29.6632L82.3688 28.9904L82.8125 28.7726L82.4184 27.9697L81.8013 28.2727L82.1063 28.8939L81.5078 29.1878L81.2028 28.5666L80.4784 28.9222L80.8725 29.725L81.4277 29.4525L81.758 30.1253L80.6374 30.6755L79.4153 28.1865L79.9808 27.9089L80.142 28.237L82.082 27.2845L81.9208 26.9564L82.5441 26.6504Z" fill="white"/>
<path d="M83.8655 32.2515C83.949 32.1273 84.002 32.0239 84.0243 31.9413C84.0481 31.8582 84.0557 31.7756 84.0471 31.6935C84.0398 31.6109 84.0205 31.5288 83.9891 31.4473C83.9427 31.3272 83.8725 31.2261 83.7785 31.1441C83.6858 31.0615 83.5784 31.0003 83.4563 30.9603C83.336 30.9213 83.2062 30.904 83.0666 30.9085C82.9285 30.9125 82.7908 30.941 82.6535 30.9939C82.5148 31.0474 82.392 31.1186 82.285 31.2075C82.18 31.2973 82.096 31.397 82.0332 31.5067C81.9703 31.6164 81.9316 31.7332 81.917 31.8571C81.9038 31.9805 81.9209 32.1036 81.9683 32.2266C82.0014 32.3124 82.0459 32.3873 82.1017 32.4512C82.159 32.5145 82.2221 32.5674 82.291 32.6098C82.3605 32.6536 82.4334 32.6871 82.5097 32.7103C82.5874 32.7329 82.6634 32.7446 82.7377 32.7456L82.811 33.5108C82.6538 33.5205 82.4985 33.5056 82.3453 33.4661C82.1935 33.4261 82.0506 33.3621 81.9164 33.2742C81.7829 33.1877 81.6618 33.0783 81.5533 32.9461C81.4454 32.8152 81.3577 32.6625 81.2904 32.4881C81.2336 32.3408 81.1993 32.1922 81.1875 32.0423C81.1757 31.8924 81.1837 31.7448 81.2114 31.5994C81.2396 31.4554 81.2868 31.3157 81.3528 31.1802C81.4194 31.0461 81.5019 30.9214 81.6004 30.8062C81.7003 30.6905 81.8146 30.5864 81.9433 30.4941C82.0734 30.4012 82.2164 30.3247 82.3723 30.2646C82.6054 30.1747 82.8392 30.1313 83.0737 30.1345C83.3096 30.1372 83.5307 30.18 83.7369 30.2631C83.9445 30.3457 84.1286 30.4653 84.2892 30.6218C84.4518 30.7793 84.5755 30.9681 84.6605 31.1883C84.7283 31.3643 84.7632 31.5208 84.7652 31.658C84.7687 31.7947 84.7339 31.9601 84.6609 32.1542L84.8462 32.6347L84.1211 32.9143L83.8655 32.2515Z" fill="white"/>
<path d="M86.0144 35.6091L86.405 37.0517L85.7947 37.2169L85.6986 36.8618L83.5525 37.4429L83.6487 37.798L83.0406 37.9626L82.65 36.5201L83.2581 36.3554L83.353 36.7061L84.2141 36.4729L83.8031 34.955L82.942 35.1881L83.0382 35.5432L82.4301 35.7078L82.0401 34.2675L82.6482 34.1029L82.7426 34.4513L84.8886 33.8703L84.7942 33.5218L85.4045 33.3566L85.7945 34.7969L85.1842 34.9621L85.0881 34.6071L84.389 34.7963L84.8 36.3143L85.4991 36.125L85.4041 35.7744L86.0144 35.6091Z" fill="white"/>
<path d="M86.9402 40.0257L87.1521 41.3368L86.5261 41.438L86.4809 41.158L83.6562 41.6145L83.534 40.8588L85.5326 39.0621L83.9256 39.3218L83.9723 39.6108L83.3486 39.7116L83.1371 38.4028L83.7608 38.302L83.8068 38.5866L86.0078 38.2308L85.9626 37.9509L86.5885 37.8497L86.757 38.8922L84.7274 40.6846L86.3617 40.4205L86.3143 40.1269L86.9402 40.0257Z" fill="white"/>
<path d="M83.7361 43.7858C83.7266 43.628 83.739 43.4757 83.7733 43.3291C83.8075 43.1824 83.86 43.0439 83.9306 42.9135C84.0014 42.7847 84.088 42.6656 84.1907 42.5564C84.295 42.4486 84.4117 42.3547 84.5407 42.2747C84.6713 42.1945 84.812 42.1299 84.9629 42.0809C85.1138 42.0318 85.2727 42.0023 85.4398 41.9923C85.6069 41.9822 85.7682 41.9926 85.9239 42.0232C86.0811 42.0538 86.2286 42.1011 86.3662 42.1651C86.5054 42.2291 86.6325 42.3084 86.7474 42.403C86.8639 42.4991 86.965 42.6068 87.0506 42.7263C87.1363 42.8473 87.2049 42.9786 87.2565 43.1201C87.3081 43.2616 87.3386 43.4113 87.3481 43.5691C87.3575 43.727 87.3451 43.8793 87.3109 44.0259C87.2767 44.1741 87.2242 44.3126 87.1535 44.4415C87.0829 44.5719 86.9954 44.6909 86.8911 44.7987C86.7885 44.9079 86.6718 45.0026 86.5413 45.0828C86.4123 45.1643 86.2717 45.2297 86.1193 45.2788C85.9684 45.3279 85.8094 45.3574 85.6423 45.3674C85.4768 45.3774 85.3154 45.3671 85.1582 45.3365C85.0025 45.3058 84.855 45.2578 84.7157 45.1923C84.5781 45.1283 84.451 45.0482 84.3345 44.9521C84.2196 44.8575 84.1193 44.7497 84.0335 44.6287C83.9479 44.5092 83.8793 44.378 83.8276 44.2349C83.7761 44.0934 83.7455 43.9437 83.7361 43.7858ZM84.458 43.7425C84.466 43.8759 84.5017 43.996 84.565 44.103C84.63 44.2114 84.7139 44.3025 84.8168 44.3763C84.9212 44.45 85.0398 44.5045 85.1727 44.5396C85.3072 44.5761 85.448 44.59 85.5951 44.5811C85.7438 44.5722 85.8827 44.5416 86.0119 44.4892C86.141 44.4368 86.2522 44.3671 86.3454 44.28C86.4403 44.1943 86.5128 44.0946 86.5629 43.9808C86.6145 43.867 86.6363 43.7441 86.6284 43.6123C86.6205 43.4805 86.5841 43.3611 86.5193 43.2543C86.4559 43.1473 86.3721 43.057 86.2676 42.9833C86.1648 42.9094 86.046 42.8535 85.9115 42.8154C85.777 42.7789 85.6354 42.7651 85.4867 42.774C85.3396 42.7828 85.2014 42.8134 85.0723 42.8658C84.9447 42.9196 84.8335 42.9893 84.7387 43.075C84.6454 43.1606 84.5729 43.2603 84.5213 43.3742C84.4712 43.4879 84.4501 43.6107 84.458 43.7425Z" fill="white"/>
<path d="M87.3546 45.9807L87.3093 47.4722L86.6773 47.453L86.6884 47.0853L84.4662 47.0178L84.4431 47.7762C84.4425 47.7961 84.4473 47.8154 84.4575 47.8341C84.4691 47.8544 84.4839 47.8717 84.5019 47.8861C84.5198 47.9019 84.5394 47.9148 84.5605 47.9247C84.5817 47.9345 84.6023 47.9397 84.6222 47.9403L85.0887 47.9545L85.0661 48.6991L83.786 48.6602L83.8706 45.8749L84.5003 45.894L84.4894 46.2548L86.7116 46.3223L86.7226 45.9615L87.3546 45.9807Z" fill="white"/>
<path d="M83.5237 50.4779C83.5424 50.3211 83.5816 50.1737 83.6413 50.0357C83.7009 49.8977 83.777 49.771 83.8695 49.6554C83.9619 49.5414 84.0681 49.4398 84.1884 49.3508C84.3099 49.2634 84.4412 49.1918 84.5821 49.1361C84.7246 49.0805 84.8743 49.042 85.0312 49.0206C85.1881 48.9992 85.3495 48.9983 85.5154 49.0181C85.6813 49.0379 85.838 49.0767 85.9855 49.1344C86.1345 49.1923 86.2709 49.2649 86.3948 49.3522C86.5202 49.4397 86.631 49.5401 86.727 49.6535C86.8245 49.7685 86.9046 49.8923 86.9676 50.0248C87.0303 50.1589 87.0744 50.3 87.1 50.4482C87.1256 50.5963 87.129 50.7488 87.1103 50.9055C87.0916 51.0623 87.0524 51.2097 86.9927 51.3477C86.9329 51.4872 86.8568 51.6139 86.7645 51.728C86.672 51.8435 86.5649 51.945 86.4434 52.0324C86.3232 52.1214 86.1918 52.1938 86.0493 52.2493C85.9082 52.3066 85.7584 52.3458 85.6 52.3671C85.4431 52.3885 85.2817 52.3893 85.1158 52.3696C84.9514 52.35 84.7947 52.3112 84.6457 52.2533C84.4982 52.1956 84.3619 52.1222 84.2367 52.0332C84.1128 51.9459 84.0021 51.8447 83.9047 51.7296C83.8086 51.6163 83.7292 51.4926 83.6665 51.3585C83.6035 51.226 83.5594 51.0849 83.534 50.9352C83.5085 50.7871 83.505 50.6346 83.5237 50.4779ZM84.2406 50.5633C84.2248 50.6957 84.2385 50.8201 84.2818 50.9364C84.3264 51.0544 84.3926 51.1588 84.4806 51.2495C84.5701 51.3405 84.677 51.415 84.8013 51.473C84.9269 51.5328 85.0628 51.5713 85.2089 51.5888C85.3565 51.6064 85.4984 51.6009 85.6346 51.5724C85.7707 51.5438 85.8923 51.4951 85.9993 51.426C86.1077 51.3587 86.1966 51.2736 86.266 51.1707C86.3369 51.068 86.3801 50.9512 86.3957 50.8203C86.4113 50.6894 86.3967 50.5657 86.352 50.4493C86.3087 50.333 86.2424 50.2293 86.1529 50.1384C86.0649 50.0476 85.9582 49.9716 85.8327 49.9104C85.7071 49.8506 85.5705 49.8119 85.4229 49.7943C85.2767 49.7769 85.1356 49.7825 84.9995 49.811C84.8646 49.8412 84.7431 49.89 84.6347 49.9574C84.5278 50.0249 84.439 50.11 84.3681 50.2127C84.2987 50.3156 84.2562 50.4324 84.2406 50.5633Z" fill="white"/>
<path d="M82.7973 55.0384L83.3831 55.1639C83.2393 55.0357 83.1386 54.9191 83.081 54.814C83.0234 54.709 82.9834 54.5951 82.961 54.4725C82.9382 54.3514 82.9477 54.1971 82.9895 54.0096C83.0109 53.9168 83.0414 53.8259 83.0809 53.737C83.1219 53.6484 83.1697 53.5644 83.2244 53.485C83.2807 53.4059 83.3433 53.3298 83.4124 53.2566C83.4827 53.1852 83.5589 53.123 83.6409 53.0699C83.8449 52.9392 84.0673 52.851 84.308 52.8051C84.55 52.7612 84.8017 52.7672 85.063 52.8232C85.2238 52.8576 85.375 52.9105 85.5169 52.9817C85.6587 53.0529 85.7874 53.1379 85.903 53.2365C86.0185 53.3351 86.119 53.4454 86.2044 53.5674C86.291 53.6912 86.3596 53.8221 86.4101 53.9602C86.4603 54.0998 86.4913 54.2447 86.5031 54.3949C86.5149 54.5451 86.5043 54.6976 86.4711 54.8523C86.4331 55.0296 86.3761 55.1784 86.3 55.2988C86.2255 55.4195 86.1075 55.5411 85.9461 55.6636L85.838 56.1683L85.0764 56.0051L85.2256 55.3089C85.347 55.2627 85.4384 55.2139 85.4997 55.1626C85.5606 55.1128 85.6146 55.0553 85.6616 54.9899C85.7082 54.9261 85.7453 54.8303 85.7726 54.7026C85.7997 54.5765 85.7962 54.4532 85.7623 54.3328C85.7284 54.2124 85.6712 54.102 85.5906 54.0014C85.5112 53.9027 85.4102 53.8167 85.2877 53.7433C85.1667 53.6702 85.0371 53.6189 84.8989 53.5893C84.7622 53.56 84.6279 53.5524 84.496 53.5666C84.3642 53.5807 84.2398 53.6185 84.123 53.6799C84.0076 53.7416 83.9119 53.8216 83.8358 53.92C83.7598 54.0184 83.7084 54.1299 83.6817 54.2546C83.6475 54.4138 83.6643 54.5627 83.732 54.7014C83.7997 54.84 83.9083 54.9528 84.0578 55.0398L84.1973 54.3887L84.8147 54.5209L84.4757 56.1027L82.6529 55.7121L82.7973 55.0384Z" fill="white"/>
<path d="M85.8491 57.1005L85.3866 58.518L84.7859 58.322L84.8764 58.0446L83.9716 58.24L84.5785 58.9576L84.6819 58.6409L85.2825 58.8369L84.8199 60.2545L84.2193 60.0585L84.2991 59.8138L83.2838 58.3926L82.5084 58.1395L82.3773 58.5414L81.7788 58.3461L82.2606 56.8696L82.8591 57.0649L82.7394 57.4318L83.5235 57.6877L85.1537 57.195L85.2485 56.9045L85.8491 57.1005Z" fill="white"/>
<path d="M31.1395 81.9079L32.3161 82.4146L32.0741 82.9763L31.8229 82.8681L30.7311 85.4031L30.053 85.111L29.6262 82.5541L29.0051 83.9962L29.2645 84.1079L29.0235 84.6676L27.8489 84.1618L28.09 83.6021L28.3453 83.7121L29.196 81.7368L28.9447 81.6286L29.1867 81.0668L30.1222 81.4698L30.5294 84.0497L31.161 82.5831L30.8975 82.4696L31.1395 81.9079Z" fill="white"/>
<path d="M33.0292 82.638L34.3973 83.0982L34.203 83.6758L33.8657 83.5623L33.1794 85.6029L33.5167 85.7163L33.3224 86.2939L31.9543 85.8338L32.1486 85.2562L32.4795 85.3675L33.1659 83.3269L32.8349 83.2156L33.0292 82.638Z" fill="white"/>
<path d="M36.6561 87.1967L36.7949 86.6358C36.6669 86.7705 36.5515 86.8641 36.4484 86.9164C36.3454 86.9688 36.2345 87.0039 36.1156 87.0218C35.9981 87.0401 35.8497 87.0262 35.6703 86.9803C35.5815 86.9568 35.4948 86.9247 35.4102 86.8839C35.326 86.8417 35.2465 86.793 35.1716 86.7379C35.0971 86.6813 35.0256 86.6186 34.9572 86.5497C34.8905 86.4798 34.8329 86.4045 34.7842 86.3238C34.6644 86.1232 34.586 85.9062 34.5492 85.6727C34.5141 85.4381 34.5275 85.1957 34.5895 84.9455C34.6275 84.7916 34.6831 84.6473 34.756 84.5128C34.829 84.3782 34.9148 84.2567 35.0133 84.1483C35.1119 84.0399 35.2213 83.9464 35.3415 83.8678C35.4634 83.7881 35.5918 83.7259 35.7264 83.6814C35.8625 83.6372 36.0031 83.6117 36.1483 83.6049C36.2934 83.5981 36.4401 83.613 36.5882 83.6497C36.7579 83.6917 36.8996 83.7512 37.0134 83.8281C37.1275 83.9037 37.2411 84.0211 37.3544 84.1804L37.8376 84.2999L37.6572 85.0291L36.9906 84.8642C36.9497 84.7457 36.9054 84.6561 36.8579 84.5955C36.8117 84.5353 36.7579 84.4815 36.6963 84.4342C36.6362 84.3873 36.545 84.3487 36.4227 84.3184C36.3019 84.2886 36.183 84.2881 36.0659 84.3172C35.9488 84.3462 35.8406 84.398 35.7413 84.4726C35.6437 84.5462 35.5577 84.6409 35.4832 84.7568C35.4091 84.8712 35.3557 84.9946 35.323 85.1269C35.2906 85.2578 35.2792 85.387 35.2889 85.5146C35.2985 85.6421 35.3312 85.7631 35.3868 85.8776C35.4427 85.9907 35.517 86.0854 35.6095 86.1617C35.7021 86.238 35.808 86.2909 35.9274 86.3205C36.0798 86.3582 36.2239 86.3465 36.3596 86.2855C36.4953 86.2244 36.6073 86.1232 36.6957 85.9817L36.0723 85.8275L36.2185 85.2363L37.733 85.6111L37.3012 87.3563L36.6561 87.1967Z" fill="white"/>
<path d="M39.0004 84.2488L41.6536 84.6424L41.4849 85.7798L40.7677 85.6734L40.8378 85.2004L39.9821 85.0734L39.8845 85.7312L40.5466 85.8295L40.452 86.4675L39.7898 86.3692L39.6752 87.1414L40.531 87.2684L40.6188 86.6766L41.336 86.783L41.1587 87.9776L38.5056 87.5839L38.595 86.9811L38.9448 87.033L39.2517 84.9651L38.9019 84.9132L39.0004 84.2488Z" fill="white"/>
<path d="M42.4073 84.7201L44.1883 84.8174C44.3615 84.8269 44.5148 84.8613 44.6482 84.9206C44.7816 84.9798 44.8925 85.0557 44.981 85.1481C45.0696 85.2391 45.1351 85.3437 45.1777 85.4618C45.2218 85.5786 45.2404 85.6991 45.2336 85.8235C45.2274 85.9375 45.2093 86.0367 45.1795 86.1212C45.1511 86.2058 45.1114 86.2801 45.0604 86.3441C45.0108 86.4082 44.9506 86.4643 44.8797 86.5124C44.8088 86.559 44.7286 86.6007 44.639 86.6374C44.7124 86.68 44.7757 86.7429 44.8291 86.826C44.8826 86.9076 44.9206 87.0121 44.9434 87.1396L45.0327 87.5833L45.3103 87.5984L45.2789 88.2538L44.3018 88.2004L44.2123 87.3936C44.2041 87.2981 44.1878 87.2156 44.1634 87.1459C44.1406 87.0749 44.1074 87.0167 44.0639 86.9712C44.0204 86.9243 43.9659 86.8886 43.9004 86.8643C43.8364 86.84 43.7593 86.8254 43.6689 86.8204L43.3825 86.8048L43.3424 87.5376L43.6511 87.5545L43.6178 88.163L42.2232 88.0867L42.2564 87.4782L42.6051 87.4973L42.7225 85.3498L42.3739 85.3308L42.4073 84.7201ZM43.4598 85.3901L43.4153 86.2052L43.8572 86.2293C43.9416 86.2339 44.0175 86.2307 44.0849 86.2195C44.1539 86.2069 44.213 86.1857 44.2621 86.1557C44.3129 86.1243 44.3522 86.0841 44.3801 86.0352C44.4095 85.9863 44.4261 85.9271 44.4299 85.8575C44.437 85.7272 44.3959 85.6232 44.3066 85.5456C44.2173 85.4679 44.0824 85.4242 43.9018 85.4143L43.4598 85.3901Z" fill="white"/>
<path d="M49.1841 85.6845C49.1732 85.6332 49.1514 85.5856 49.1187 85.5417C49.0876 85.4978 49.0479 85.461 48.9999 85.4316C48.9532 85.4005 48.9004 85.3773 48.8414 85.362C48.7839 85.3465 48.7241 85.3409 48.662 85.345C48.6057 85.3488 48.5536 85.3582 48.5056 85.3734C48.4576 85.3885 48.4159 85.4098 48.3806 85.4375C48.3467 85.4635 48.3199 85.4965 48.3003 85.5365C48.2822 85.5763 48.2749 85.6229 48.2785 85.6761C48.283 85.7427 48.3006 85.795 48.3314 85.8331C48.3635 85.8696 48.4027 85.8989 48.4487 85.9211C48.4963 85.9431 48.5479 85.9597 48.6037 85.9708C48.6594 85.982 48.7137 85.9947 48.7667 86.0089L49.3907 86.1721C49.477 86.1961 49.5588 86.2314 49.6363 86.2782C49.7137 86.3251 49.7816 86.3837 49.8398 86.4541C49.8995 86.5244 49.9481 86.6065 49.9856 86.7006C50.0231 86.7947 50.0459 86.9016 50.054 87.0215C50.0649 87.1842 50.0445 87.3349 49.9929 87.4736C49.9428 87.6122 49.8669 87.7332 49.7654 87.8366C49.6639 87.94 49.5394 88.0234 49.3921 88.0868C49.2448 88.1502 49.0794 88.188 48.896 88.2004C48.7673 88.209 48.6442 88.2024 48.5268 88.1806C48.411 88.1601 48.304 88.1257 48.2056 88.0773C48.1073 88.0289 48.02 87.9694 47.944 87.8987C47.8678 87.8265 47.8065 87.7437 47.7601 87.6502L47.5315 87.6656L47.4867 86.9976L48.29 86.9437L48.2992 87.0813C48.3037 87.1479 48.3182 87.2086 48.3427 87.2634C48.3686 87.3181 48.4045 87.3648 48.4501 87.4033C48.4958 87.4418 48.552 87.4708 48.6187 87.4901C48.6853 87.5079 48.7622 87.5139 48.8495 87.508C48.9826 87.4991 49.0819 87.4619 49.1474 87.3966C49.2128 87.3298 49.2418 87.2417 49.2344 87.1322C49.2306 87.076 49.2149 87.0302 49.1873 86.9949C49.1611 86.9581 49.1279 86.9283 49.0877 86.9058C49.0475 86.8817 49.0031 86.8624 48.9545 86.8478C48.906 86.8333 48.8583 86.8201 48.8114 86.8084L48.2923 86.6783C48.1941 86.6552 48.0981 86.62 48.0043 86.5728C47.912 86.5255 47.8284 86.4642 47.7535 86.389C47.6801 86.3137 47.6191 86.2242 47.5705 86.1204C47.5233 86.0151 47.4951 85.8937 47.4859 85.7561C47.4751 85.5963 47.4952 85.4523 47.546 85.3241C47.5968 85.1944 47.6725 85.083 47.7733 84.9901C47.874 84.8971 47.9961 84.8235 48.1396 84.7693C48.2831 84.7151 48.4421 84.6821 48.6167 84.6704C48.7543 84.6612 48.8826 84.6689 49.0016 84.6936C49.1206 84.7168 49.2277 84.752 49.323 84.7991C49.4198 84.8461 49.5023 84.9022 49.5706 84.9675C49.6403 85.0312 49.6946 85.0989 49.7336 85.1706L49.9555 85.1557L50.0005 85.8258L49.1972 85.8797L49.1841 85.6845Z" fill="white"/>
<path d="M51.6356 87.2471L51.9806 87.1938L51.6486 85.0464L51.2442 85.1089L51.3108 85.5397L50.5942 85.6505L50.4376 84.6372L53.4685 84.1686L53.6252 85.1818L52.9043 85.2933L52.8377 84.8625L52.3783 84.9335L52.7103 87.0809L53.062 87.0265L53.1551 87.6288L51.7287 87.8494L51.6356 87.2471Z" fill="white"/>
<path d="M56.2766 86.3377L56.6026 86.2574L56.3398 85.8228L55.3335 86.0707L55.3026 86.5777L55.6482 86.4925L55.7939 87.0842L54.5522 87.3902L54.4064 86.7985L54.6505 86.7383L54.8816 83.8365L55.7475 83.6232L57.2807 86.0903L57.5183 86.0318L57.664 86.6235L56.4223 86.9294L56.2766 86.3377ZM55.3679 85.4759L56.0287 85.3131L55.4339 84.3304L55.3679 85.4759Z" fill="white"/>
<path d="M58.7318 85.6368L59.0622 85.5237L58.3583 83.4679L57.9712 83.6005L58.1124 84.0129L57.4264 84.2477L57.0943 83.2777L59.9959 82.2843L60.328 83.2543L59.6379 83.4906L59.4967 83.0782L59.0569 83.2287L59.7608 85.2845L60.0974 85.1692L60.2948 85.7458L58.9292 86.2133L58.7318 85.6368Z" fill="white"/>
<path d="M60.6404 82.0188L63.0888 80.9235L63.5583 81.9732L62.8965 82.2692L62.7012 81.8327L61.9115 82.186L62.183 82.793L62.7941 82.5197L63.0575 83.1084L62.4464 83.3818L62.7652 84.0944L63.5549 83.7411L63.3106 83.195L63.9725 82.8989L64.4656 84.0013L62.0172 85.0966L61.7683 84.5403L62.0911 84.3959L61.2375 82.4875L60.9147 82.6319L60.6404 82.0188Z" fill="white"/>
</svg>
