<svg width="20" height="20" viewBox="0 0 20 20" fill="none" xmlns="http://www.w3.org/2000/svg">
<path d="M4.27367 14.3505L3.93686 14.8461L4.34595 15.284C5.75819 16.7957 7.76637 17.75 10 17.75C12.2336 17.75 14.2418 16.7957 15.6541 15.284L16.0631 14.8461L15.7263 14.3505C14.6999 12.84 12.98 11.822 11 11.822H9C7.02106 11.822 5.30014 12.8399 4.27367 14.3505ZM0.75 10C0.75 4.99321 4.99321 0.75 10 0.75C15.0068 0.75 19.25 4.99321 19.25 10C19.25 15.0068 15.0068 19.25 10 19.25C4.99321 19.25 0.75 15.0068 0.75 10ZM13.75 8C13.75 5.85762 12.141 4.25 10 4.25C7.86012 4.25 6.25 5.85746 6.25 8C6.25 10.1425 7.86012 11.75 10 11.75C12.141 11.75 13.75 10.1424 13.75 8Z" stroke="white" stroke-width="1.5"/>
</svg>
