<svg width="30" height="30" viewBox="0 0 30 30" fill="none" xmlns="http://www.w3.org/2000/svg">
<path fill-rule="evenodd" clip-rule="evenodd" d="M8.62415 0.421496C10.1882 0.349496 10.6868 0.333496 14.6708 0.333496C18.6548 0.333496 19.1535 0.350829 20.7162 0.421496C22.2788 0.492163 23.3455 0.741496 24.2788 1.10283C25.2561 1.47216 26.1428 2.0495 26.8761 2.79616C27.6228 3.52816 28.1988 4.4135 28.5668 5.39216C28.9295 6.3255 29.1775 7.39216 29.2495 8.95216C29.3215 10.5188 29.3375 11.0175 29.3375 15.0002C29.3375 18.9842 29.3201 19.4828 29.2495 21.0468C29.1788 22.6068 28.9295 23.6735 28.5668 24.6068C28.1988 25.5856 27.6219 26.4724 26.8761 27.2055C26.1428 27.9522 25.2561 28.5282 24.2788 28.8962C23.3455 29.2588 22.2788 29.5068 20.7188 29.5788C19.1535 29.6508 18.6548 29.6668 14.6708 29.6668C10.6868 29.6668 10.1882 29.6495 8.62415 29.5788C7.06415 29.5082 5.99748 29.2588 5.06415 28.8962C4.08538 28.5281 3.19858 27.9512 2.46548 27.2055C1.71932 26.4731 1.1419 25.5867 0.773484 24.6082C0.41215 23.6748 0.16415 22.6082 0.0921504 21.0482C0.0201504 19.4815 0.00415039 18.9828 0.00415039 15.0002C0.00415039 11.0162 0.0214837 10.5175 0.0921504 8.95483C0.162817 7.39216 0.41215 6.3255 0.773484 5.39216C1.14245 4.4136 1.72031 3.52725 2.46682 2.79483C3.19887 2.04883 4.08478 1.47142 5.06282 1.10283C5.99615 0.741496 7.06282 0.493496 8.62282 0.421496H8.62415ZM20.5975 3.0615C19.0508 2.99083 18.5868 2.97616 14.6708 2.97616C10.7548 2.97616 10.2908 2.99083 8.74415 3.0615C7.31348 3.12683 6.53748 3.3655 6.02015 3.56683C5.33615 3.8335 4.84682 4.1495 4.33348 4.66283C3.84688 5.13623 3.47239 5.71254 3.23748 6.3495C3.03615 6.86683 2.79748 7.64283 2.73215 9.07349C2.66148 10.6202 2.64682 11.0842 2.64682 15.0002C2.64682 18.9162 2.66148 19.3802 2.73215 20.9268C2.79748 22.3575 3.03615 23.1335 3.23748 23.6508C3.47215 24.2868 3.84682 24.8642 4.33348 25.3375C4.80682 25.8242 5.38415 26.1988 6.02015 26.4335C6.53748 26.6348 7.31348 26.8735 8.74415 26.9388C10.2908 27.0095 10.7535 27.0242 14.6708 27.0242C18.5882 27.0242 19.0508 27.0095 20.5975 26.9388C22.0281 26.8735 22.8041 26.6348 23.3215 26.4335C24.0055 26.1668 24.4948 25.8508 25.0082 25.3375C25.4948 24.8642 25.8695 24.2868 26.1042 23.6508C26.3055 23.1335 26.5441 22.3575 26.6095 20.9268C26.6801 19.3802 26.6948 18.9162 26.6948 15.0002C26.6948 11.0842 26.6801 10.6202 26.6095 9.07349C26.5441 7.64283 26.3055 6.86683 26.1042 6.3495C25.8375 5.6655 25.5215 5.17616 25.0082 4.66283C24.5347 4.17626 23.9584 3.80178 23.3215 3.56683C22.8041 3.3655 22.0281 3.12683 20.5975 3.0615ZM12.7975 19.5215C13.8437 19.957 15.0087 20.0158 16.0934 19.6878C17.1781 19.3598 18.1153 18.6654 18.745 17.7232C19.3746 16.7809 19.6576 15.6493 19.5455 14.5216C19.4335 13.3939 18.9335 12.3401 18.1308 11.5402C17.6191 11.0288 17.0004 10.6372 16.3193 10.3937C15.6381 10.1501 14.9114 10.0606 14.1915 10.1316C13.4716 10.2027 12.7764 10.4324 12.1559 10.8043C11.5354 11.1763 11.0051 11.6812 10.6032 12.2826C10.2013 12.8841 9.93773 13.5672 9.8315 14.2828C9.72527 14.9983 9.77902 15.7286 9.98887 16.4209C10.1987 17.1131 10.5595 17.7503 11.0451 18.2865C11.5308 18.8226 12.1292 19.2444 12.7975 19.5215ZM9.34015 9.6695C10.0402 8.96946 10.8712 8.41417 11.7859 8.03531C12.7005 7.65646 13.6808 7.46146 14.6708 7.46146C15.6608 7.46146 16.6411 7.65646 17.5558 8.03531C18.4704 8.41417 19.3014 8.96946 20.0015 9.6695C20.7015 10.3695 21.2568 11.2006 21.6357 12.1152C22.0145 13.0299 22.2095 14.0102 22.2095 15.0002C22.2095 15.9902 22.0145 16.9705 21.6357 17.8851C21.2568 18.7997 20.7015 19.6308 20.0015 20.3308C18.5877 21.7446 16.6702 22.5389 14.6708 22.5389C12.6714 22.5389 10.7539 21.7446 9.34015 20.3308C7.92637 18.917 7.13212 16.9995 7.13212 15.0002C7.13212 13.0008 7.92637 11.0833 9.34015 9.6695ZM23.8815 8.58416C24.055 8.42052 24.1938 8.22374 24.2899 8.00546C24.3859 7.78718 24.4372 7.55185 24.4407 7.3134C24.4442 7.07495 24.3998 6.83823 24.3101 6.61724C24.2205 6.39626 24.0874 6.19551 23.9188 6.02688C23.7501 5.85825 23.5494 5.72517 23.3284 5.63552C23.1074 5.54587 22.8707 5.50146 22.6322 5.50494C22.3938 5.50842 22.1585 5.5597 21.9402 5.65576C21.7219 5.75181 21.5251 5.89069 21.3615 6.06416C21.0432 6.40154 20.869 6.84966 20.8758 7.3134C20.8825 7.77715 21.0697 8.22 21.3977 8.54795C21.7256 8.87591 22.1685 9.06313 22.6322 9.06989C23.096 9.07666 23.5441 8.90242 23.8815 8.58416Z" fill="#E5E5E5"/>
</svg>
