<svg width="22" height="22" viewBox="0 0 22 22" fill="none" xmlns="http://www.w3.org/2000/svg">
<path d="M11.2167 12.2956C12.6756 12.2956 13.8582 11.1129 13.8582 9.65405C13.8582 8.19519 12.6756 7.01254 11.2167 7.01254C9.75784 7.01254 8.5752 8.19519 8.5752 9.65405C8.5752 11.1129 9.75784 12.2956 11.2167 12.2956Z" stroke="#0A369D" stroke-width="1.32075" stroke-linecap="round" stroke-linejoin="round"/>
<path d="M11.2159 2.61005C9.34771 2.61005 7.55603 3.35218 6.23502 4.67319C4.91401 5.9942 4.17188 7.78588 4.17188 9.65407C4.17188 11.32 4.52584 12.41 5.49263 13.6163L11.2159 20.2201L16.9392 13.6163C17.906 12.41 18.2599 11.32 18.2599 9.65407C18.2599 7.78588 17.5178 5.9942 16.1968 4.67319C14.8758 3.35218 13.0841 2.61005 11.2159 2.61005V2.61005Z" stroke="#0A369D" stroke-width="1.32075" stroke-linecap="round" stroke-linejoin="round"/>
</svg>
