<svg width="100" height="100" viewBox="0 0 100 100" fill="none" xmlns="http://www.w3.org/2000/svg">
<g clip-path="url(#clip0)">
<path d="M48.4509 15.7814H48.4685L79.7086 7.40221C81.5511 6.91699 83.4386 8.01102 83.9329 9.85042L88.3815 26.4707L90.3987 34.0053V34.0229L99.8811 69.3668C100.375 71.2039 99.2867 73.0944 97.4496 73.5903L78.433 78.6767L48.4509 15.7814Z" fill="#F3D55B"/>
<path d="M19.4514 9.19586C20.2624 8.6519 21.2694 8.48787 22.2101 8.74726L88.8293 26.592C90.6664 27.0879 91.7543 28.9785 91.2607 30.8156L73.416 97.4348C72.9201 99.2719 71.0295 100.36 69.1917 99.8662L2.57249 82.0214C0.735373 81.5255 -0.352554 79.635 0.14182 77.7971L14.4863 24.2468L19.4514 9.19586Z" fill="#F9EAB0"/>
<path d="M77.9745 38.798C77.8234 38.7988 77.6739 38.7789 77.5282 38.74L53.004 32.1758C52.0847 31.9294 51.5385 30.9841 51.7856 30.064C52.0321 29.144 52.9773 28.5985 53.8974 28.8449L78.4208 35.4175C79.257 35.641 79.7971 36.4497 79.685 37.3073C79.5721 38.1648 78.8412 38.8064 77.976 38.8072L77.9745 38.798Z" fill="#802F34"/>
<path d="M75.2951 48.7983C75.1448 48.7983 74.9945 48.7785 74.8488 48.7396L58.1767 44.2788C57.5793 44.1224 57.1109 43.6577 56.9499 43.0611C56.7889 42.4645 56.9598 41.8275 57.397 41.3911C57.8341 40.9547 58.4719 40.7853 59.0678 40.9478L75.7399 45.4086C76.5761 45.6322 77.1162 46.4401 77.0041 47.2984C76.8911 48.1559 76.1603 48.7975 75.2951 48.7983Z" fill="#802F34"/>
<path d="M72.6247 58.798C72.4729 58.798 72.3226 58.7782 72.1761 58.7392L51.4352 53.1722C50.5151 52.925 49.9704 51.979 50.2168 51.0589C50.464 50.1395 51.41 49.5941 52.3301 49.8412L73.071 55.4083C73.9072 55.6318 74.4473 56.4405 74.3344 57.2988C74.2215 58.1571 73.4898 58.798 72.6247 58.798Z" fill="#802F34"/>
<path d="M21.648 55.8426C21.497 55.8433 21.3459 55.8235 21.2002 55.7846L16.1999 54.4448C15.2805 54.1976 14.735 53.2516 14.9822 52.3315C15.2287 51.4121 16.1747 50.8666 17.0948 51.1138L22.0951 52.4528C22.9306 52.6771 23.4715 53.4858 23.3586 54.3441C23.2456 55.2017 22.514 55.8433 21.648 55.8426Z" fill="#802F34"/>
<path d="M69.9416 68.7824C69.7913 68.7824 69.641 68.7625 69.4953 68.7236L31.1928 58.4531C30.2727 58.2067 29.7272 57.2607 29.9736 56.3406C30.22 55.4213 31.1661 54.875 32.0861 55.1222L70.3886 65.3835C71.224 65.6078 71.765 66.4158 71.652 67.2741C71.5391 68.1316 70.809 68.7732 69.9439 68.7732L69.9416 68.7824Z" fill="#802F34"/>
<path d="M18.9694 65.8338C18.8183 65.8346 18.668 65.8148 18.5223 65.7751L13.5228 64.4376C12.6026 64.1912 12.0571 63.2452 12.3036 62.3251C12.55 61.4057 13.496 60.8594 14.4154 61.1066L19.4157 62.4441C20.2519 62.6684 20.792 63.4771 20.6791 64.3354C20.5662 65.193 19.8345 65.8346 18.9694 65.8338Z" fill="#802F34"/>
<path d="M67.266 78.775C67.1149 78.775 66.9654 78.7552 66.8197 78.7163L28.5148 68.4527C27.9197 68.2933 27.4551 67.8286 27.2957 67.2336C27.137 66.6385 27.3071 66.003 27.7427 65.5681C28.1784 65.1325 28.8131 64.9623 29.4082 65.1218L67.7108 75.3854C68.5462 75.6089 69.0871 76.4176 68.9742 77.2751C68.862 78.1327 68.1311 78.7743 67.266 78.775Z" fill="#802F34"/>
<path d="M49.9509 52.143L38.5895 48.3498L48.348 38.5912L52.1405 49.9535C52.3442 50.5745 52.1802 51.2581 51.7178 51.7204C51.2555 52.1827 50.5727 52.346 49.9509 52.143Z" fill="#BDC3C7"/>
<path d="M16.6584 6.90249L6.89987 16.661L2.02098 11.7814C-0.673661 9.08674 -0.673661 4.71824 2.02098 2.0236C4.71562 -0.671807 9.08488 -0.671807 11.7795 2.0236L16.6584 6.90249Z" fill="#FB7B76"/>
<path d="M48.3478 38.5912L44.6927 42.2464V42.2639L42.2612 44.6946H42.2444L38.5893 48.3498L11.7794 21.5399L15.4514 17.8848L17.8828 15.4541L21.538 11.7814L48.3478 38.5912Z" fill="#E64C3C"/>
<path d="M6.90125 16.661L16.659 6.9025L21.5379 11.7821L11.7801 21.5399L6.90125 16.661Z" fill="#BDC3C7"/>
<path d="M23.9687 23.9714C23.6406 24.2903 23.202 24.4696 22.745 24.4711C22.2926 24.4688 21.8592 24.2895 21.538 23.9714L15.4514 17.8848L17.8829 15.4541L23.9687 21.5399C24.637 22.2128 24.637 23.2985 23.9687 23.9714Z" fill="#C03A2B"/>
<path d="M44.6929 42.2465V42.264L42.2614 44.6947H42.2447L26.4003 28.8503C25.9623 28.4132 25.7914 27.7754 25.9517 27.178C26.1119 26.5806 26.5788 26.1137 27.1762 25.9543C27.7735 25.7941 28.4106 25.9649 28.8485 26.4021L44.6929 42.2465Z" fill="#C03A2B"/>
</g>
<defs>
<clipPath id="clip0">
<rect width="100" height="100" fill="white"/>
</clipPath>
</defs>
</svg>
