<svg width="37" height="37" viewBox="0 0 37 37" fill="none" xmlns="http://www.w3.org/2000/svg">
<path d="M22.3907 23.8179C23.1635 23.8179 23.9047 24.1249 24.4512 24.6714C24.9977 25.2179 25.3047 25.9591 25.3047 26.732V28.6772L25.2944 28.8171C24.8929 31.5719 22.4192 32.8955 18.2683 32.8955C14.1329 32.8955 11.6191 31.5874 11.0764 28.865L11.0583 28.6747V26.732C11.0583 25.9591 11.3653 25.2179 11.9118 24.6714C12.4583 24.1249 13.1995 23.8179 13.9723 23.8179H22.3907ZM22.3907 25.7606H13.9723C13.7147 25.7606 13.4676 25.8629 13.2855 26.0451C13.1033 26.2273 13.001 26.4743 13.001 26.732V28.571C13.3636 30.1252 15.0084 30.9528 18.2683 30.9528C21.5268 30.9528 23.0991 30.1356 23.362 28.6008V26.732C23.362 26.4743 23.2597 26.2273 23.0775 26.0451C22.8954 25.8629 22.6483 25.7606 22.3907 25.7606ZM23.678 16.0458L30.809 16.0471C31.5819 16.0471 32.3231 16.3541 32.8696 16.9006C33.4161 17.4471 33.7231 18.1883 33.7231 18.9612V20.9064L33.7127 21.0463C33.3112 23.8011 30.8375 25.1247 26.6866 25.1247L26.2787 25.1208C25.8962 24.1989 25.1991 23.4426 24.3114 22.9864C24.9783 23.1159 25.7684 23.182 26.6866 23.182C29.9452 23.182 31.5175 22.3648 31.7804 20.83V18.9612C31.7804 18.7035 31.6781 18.4565 31.4959 18.2743C31.3137 18.0921 31.0667 17.9898 30.809 17.9898H24.0096C24.0096 17.3086 23.893 16.6532 23.678 16.0458ZM5.55394 16.0471L12.6849 16.0458C12.5021 16.5632 12.3935 17.1039 12.3625 17.6518L12.3534 17.9898H5.55394C5.29632 17.9898 5.04926 18.0921 4.86709 18.2743C4.68493 18.4565 4.58259 18.7035 4.58259 18.9612V20.8002C4.94523 22.3544 6.59005 23.182 9.8499 23.182C10.6555 23.182 11.3574 23.1315 11.9636 23.033C11.1158 23.4937 10.4516 24.231 10.0817 25.1221L9.8486 25.1247C5.71454 25.1247 3.20069 23.8166 2.65802 21.0942L2.63989 20.9039V18.9612C2.63989 18.1883 2.94691 17.4471 3.4934 16.9006C4.03989 16.3541 4.78109 16.0471 5.55394 16.0471ZM18.1815 13.4568C19.3837 13.4568 20.5367 13.9344 21.3868 14.7845C22.2369 15.6346 22.7145 16.7876 22.7145 17.9898C22.7145 19.192 22.2369 20.345 21.3868 21.1951C20.5367 22.0452 19.3837 22.5228 18.1815 22.5228C16.9793 22.5228 15.8263 22.0452 14.9762 21.1951C14.1261 20.345 13.6485 19.192 13.6485 17.9898C13.6485 16.7876 14.1261 15.6346 14.9762 14.7845C15.8263 13.9344 16.9793 13.4568 18.1815 13.4568ZM18.1815 15.3995C17.4945 15.3995 16.8357 15.6724 16.3499 16.1582C15.8641 16.644 15.5912 17.3028 15.5912 17.9898C15.5912 18.6768 15.8641 19.3356 16.3499 19.8214C16.8357 20.3072 17.4945 20.5801 18.1815 20.5801C18.8685 20.5801 19.5273 20.3072 20.0131 19.8214C20.4989 19.3356 20.7718 18.6768 20.7718 17.9898C20.7718 17.3028 20.4989 16.644 20.0131 16.1582C19.5273 15.6724 18.8685 15.3995 18.1815 15.3995ZM26.5999 5.68604C27.8021 5.68604 28.9551 6.16361 29.8051 7.01371C30.6552 7.86381 31.1328 9.01678 31.1328 10.219C31.1328 11.4212 30.6552 12.5742 29.8051 13.4243C28.9551 14.2744 27.8021 14.752 26.5999 14.752C25.3976 14.752 24.2447 14.2744 23.3946 13.4243C22.5445 12.5742 22.0669 11.4212 22.0669 10.219C22.0669 9.01678 22.5445 7.86381 23.3946 7.01371C24.2447 6.16361 25.3976 5.68604 26.5999 5.68604ZM9.76313 5.68604C10.9653 5.68604 12.1183 6.16361 12.9684 7.01371C13.8185 7.86381 14.2961 9.01678 14.2961 10.219C14.2961 11.4212 13.8185 12.5742 12.9684 13.4243C12.1183 14.2744 10.9653 14.752 9.76313 14.752C8.56091 14.752 7.40793 14.2744 6.55783 13.4243C5.70774 12.5742 5.23016 11.4212 5.23016 10.219C5.23016 9.01678 5.70774 7.86381 6.55783 7.01371C7.40793 6.16361 8.56091 5.68604 9.76313 5.68604ZM26.5999 7.62874C25.9129 7.62874 25.254 7.90164 24.7683 8.38741C24.2825 8.87318 24.0096 9.53202 24.0096 10.219C24.0096 10.906 24.2825 11.5648 24.7683 12.0506C25.254 12.5364 25.9129 12.8093 26.5999 12.8093C27.2868 12.8093 27.9457 12.5364 28.4315 12.0506C28.9172 11.5648 29.1901 10.906 29.1901 10.219C29.1901 9.53202 28.9172 8.87318 28.4315 8.38741C27.9457 7.90164 27.2868 7.62874 26.5999 7.62874ZM9.76313 7.62874C9.07614 7.62874 8.4173 7.90164 7.93153 8.38741C7.44576 8.87318 7.17286 9.53202 7.17286 10.219C7.17286 10.906 7.44576 11.5648 7.93153 12.0506C8.4173 12.5364 9.07614 12.8093 9.76313 12.8093C10.4501 12.8093 11.109 12.5364 11.5947 12.0506C12.0805 11.5648 12.3534 10.906 12.3534 10.219C12.3534 9.53202 12.0805 8.87318 11.5947 8.38741C11.109 7.90164 10.4501 7.62874 9.76313 7.62874Z" fill="#0A369D"/>
</svg>
