<svg width="24" height="24" viewBox="0 0 24 24" fill="none" xmlns="http://www.w3.org/2000/svg">
<path d="M11.7048 0.134766C5.39578 0.134766 0.0666504 5.46389 0.0666504 11.773C0.0666504 18.082 5.39578 23.4111 11.7048 23.4111C18.0139 23.4111 23.343 18.082 23.343 11.773C23.343 5.46389 18.0139 0.134766 11.7048 0.134766ZM11.7048 5.95386C13.7148 5.95386 15.1963 7.43424 15.1963 9.44532C15.1963 11.4564 13.7148 12.9368 11.7048 12.9368C9.69609 12.9368 8.21338 11.4564 8.21338 9.44532C8.21338 7.43424 9.69609 5.95386 11.7048 5.95386ZM5.76238 17.3267C6.80633 15.7905 8.5474 14.7663 10.541 14.7663H12.8687C14.8634 14.7663 16.6034 15.7905 17.6473 17.3267C16.1599 18.9188 14.0499 19.9197 11.7048 19.9197C9.35975 19.9197 7.24974 18.9188 5.76238 17.3267Z" fill="#0A369D"/>
</svg>
