<svg width="100" height="100" viewBox="0 0 100 100" fill="none" xmlns="http://www.w3.org/2000/svg">
<path d="M46.1047 100C71.5676 100 92.2094 79.3583 92.2094 53.8953C92.2094 28.4324 71.5676 7.79065 46.1047 7.79065C20.6418 7.79065 0 28.4324 0 53.8953C0 79.3583 20.6418 100 46.1047 100Z" fill="#E94444"/>
<path d="M46.1049 87.3268C64.5686 87.3268 79.5364 72.359 79.5364 53.8953C79.5364 35.4316 64.5686 20.4639 46.1049 20.4639C27.6412 20.4639 12.6735 35.4316 12.6735 53.8953C12.6735 72.359 27.6412 87.3268 46.1049 87.3268Z" fill="#EBEBEB"/>
<path d="M46.1049 74.6533C57.5693 74.6533 66.8629 65.3597 66.8629 53.8953C66.8629 42.431 57.5693 33.1373 46.1049 33.1373C34.6406 33.1373 25.3469 42.431 25.3469 53.8953C25.3469 65.3597 34.6406 74.6533 46.1049 74.6533Z" fill="#E94444"/>
<path d="M46.1049 61.98C50.57 61.98 54.1897 58.3603 54.1897 53.8952C54.1897 49.4302 50.57 45.8105 46.1049 45.8105C41.6398 45.8105 38.0201 49.4302 38.0201 53.8952C38.0201 58.3603 41.6398 61.98 46.1049 61.98Z" fill="#5A5A5A"/>
<path d="M46.1048 7.79047C44.7599 7.79047 43.4294 7.8514 42.1138 7.96429C65.7075 9.98793 84.2274 29.7772 84.2274 53.8952C84.2274 78.0131 65.7075 97.8026 42.1138 99.8262C43.4294 99.9391 44.7599 100 46.1048 100C71.5677 100 92.2095 79.3582 92.2095 53.8954C92.2095 28.4325 71.5679 7.79047 46.1048 7.79047Z" fill="#D83131"/>
<path d="M88.8463 0.210362L78.732 10.3246C78.2973 10.7594 78.0703 11.3598 78.109 11.9733L78.6947 21.3055L90.6109 9.38927L90.0637 0.670518C90.0252 0.0568464 89.2811 -0.224404 88.8463 0.210362Z" fill="#0055A3"/>
<path d="M99.7898 11.1537L89.6756 21.2679C89.2408 21.7027 88.6404 21.9297 88.0269 21.891L78.6947 21.3052L90.6109 9.38904L99.3297 9.9363C99.9432 9.97478 100.224 10.7191 99.7898 11.1537Z" fill="#0055A3"/>
<path d="M46.1047 55.4037C45.7187 55.4037 45.3326 55.2564 45.0379 54.9619C44.4488 54.3728 44.4488 53.4175 45.0379 52.8285L95.4201 2.44644C96.0093 1.85737 96.9644 1.85737 97.5537 2.44644C98.1427 3.0355 98.1427 3.99077 97.5537 4.57983L47.1715 54.9619C46.8769 55.2564 46.4906 55.4037 46.1047 55.4037Z" fill="#BFBFBF"/>
</svg>
