<svg width="37" height="37" viewBox="0 0 37 37" fill="none" xmlns="http://www.w3.org/2000/svg">
<g clip-path="url(#clip0)">
<path fill-rule="evenodd" clip-rule="evenodd" d="M34.0094 0.675335C34.1736 0.776861 34.3091 0.918632 34.4031 1.08721C34.4971 1.25578 34.5465 1.44558 34.5466 1.63859V35.6358C34.5466 35.9364 34.4272 36.2246 34.2146 36.4372C34.0021 36.6497 33.7139 36.7691 33.4133 36.7691H26.6139C26.3133 36.7691 26.0251 36.6497 25.8126 36.4372C25.6 36.2246 25.4806 35.9364 25.4806 35.6358V32.2361H23.2141V35.6358C23.2141 35.9364 23.0948 36.2246 22.8822 36.4372C22.6697 36.6497 22.3815 36.7691 22.0809 36.7691H1.68256C1.382 36.7691 1.09376 36.6497 0.881235 36.4372C0.668711 36.2246 0.549316 35.9364 0.549316 35.6358V23.1702C0.549497 22.9324 0.624446 22.7008 0.763556 22.508C0.902665 22.3152 1.09889 22.171 1.32445 22.0959L14.1482 17.8213V10.7045C14.1482 10.4942 14.2067 10.2881 14.3172 10.1092C14.4277 9.93027 14.5858 9.78561 14.7738 9.69141L32.9056 0.625472C33.0786 0.538906 33.2708 0.498042 33.464 0.50677C33.6572 0.515498 33.845 0.573527 34.0094 0.675335ZM14.1482 20.2102L2.8158 23.9861V34.5026H14.1482V20.2102ZM16.4147 34.5026H20.9477V31.1029C20.9477 30.8023 21.0671 30.5141 21.2796 30.3016C21.4921 30.089 21.7804 29.9696 22.0809 29.9696H26.6139C26.9144 29.9696 27.2027 30.089 27.4152 30.3016C27.6277 30.5141 27.7471 30.8023 27.7471 31.1029V34.5026H32.2801V3.47218L16.4147 11.4049V34.5026Z" fill="#0A369D"/>
<path d="M5.08203 25.4368H7.34851V27.7033H5.08203V25.4368ZM9.615 25.4368H11.8815V27.7033H9.615V25.4368ZM5.08203 29.9698H7.34851V32.2362H5.08203V29.9698ZM9.615 29.9698H11.8815V32.2362H9.615V29.9698ZM18.6809 20.9038H20.9474V23.1703H18.6809V20.9038ZM23.2139 20.9038H25.4804V23.1703H23.2139V20.9038ZM18.6809 25.4368H20.9474V27.7033H18.6809V25.4368ZM23.2139 25.4368H25.4804V27.7033H23.2139V25.4368ZM27.7469 20.9038H30.0133V23.1703H27.7469V20.9038ZM27.7469 25.4368H30.0133V27.7033H27.7469V25.4368ZM18.6809 16.3709H20.9474V18.6373H18.6809V16.3709ZM23.2139 16.3709H25.4804V18.6373H23.2139V16.3709ZM27.7469 16.3709H30.0133V18.6373H27.7469V16.3709ZM18.6809 11.8379H20.9474V14.1044H18.6809V11.8379ZM23.2139 11.8379H25.4804V14.1044H23.2139V11.8379ZM27.7469 11.8379H30.0133V14.1044H27.7469V11.8379ZM27.7469 7.30493H30.0133V9.57141H27.7469V7.30493Z" fill="#0A369D"/>
</g>
<defs>
<clipPath id="clip0">
<rect width="36.2637" height="36.2637" fill="white" transform="translate(0.549316 0.505493)"/>
</clipPath>
</defs>
</svg>
