<svg width="19" height="19" viewBox="0 0 19 19" fill="none" xmlns="http://www.w3.org/2000/svg">
<path d="M16.5509 3.20941H14.9259V4.20941H16.4259V15.2094H2.42591V4.20941H3.92591V3.20941H2.30091C2.18403 3.21136 2.06868 3.23632 1.96144 3.28287C1.85421 3.32941 1.7572 3.39662 1.67594 3.48066C1.59469 3.5647 1.53078 3.66392 1.48788 3.77266C1.44498 3.8814 1.42392 3.99753 1.42591 4.11441V15.3044C1.42392 15.4213 1.44498 15.5374 1.48788 15.6462C1.53078 15.7549 1.59469 15.8541 1.67594 15.9382C1.7572 16.0222 1.85421 16.0894 1.96144 16.136C2.06868 16.1825 2.18403 16.2075 2.30091 16.2094H16.5509C16.6678 16.2075 16.7831 16.1825 16.8904 16.136C16.9976 16.0894 17.0946 16.0222 17.1759 15.9382C17.2571 15.8541 17.321 15.7549 17.3639 15.6462C17.4068 15.5374 17.4279 15.4213 17.4259 15.3044V4.11441C17.4279 3.99753 17.4068 3.8814 17.3639 3.77266C17.321 3.66392 17.2571 3.5647 17.1759 3.48066C17.0946 3.39662 16.9976 3.32941 16.8904 3.28287C16.7831 3.23632 16.6678 3.21136 16.5509 3.20941Z" fill="#333333"/>
<path d="M4.42578 7.20941H5.42578V8.20941H4.42578V7.20941Z" fill="#333333"/>
<path d="M7.42578 7.20941H8.42578V8.20941H7.42578V7.20941Z" fill="#333333"/>
<path d="M10.4258 7.20941H11.4258V8.20941H10.4258V7.20941Z" fill="#333333"/>
<path d="M13.4258 7.20941H14.4258V8.20941H13.4258V7.20941Z" fill="#333333"/>
<path d="M4.42578 9.70941H5.42578V10.7094H4.42578V9.70941Z" fill="#333333"/>
<path d="M7.42578 9.70941H8.42578V10.7094H7.42578V9.70941Z" fill="#333333"/>
<path d="M10.4258 9.70941H11.4258V10.7094H10.4258V9.70941Z" fill="#333333"/>
<path d="M13.4258 9.70941H14.4258V10.7094H13.4258V9.70941Z" fill="#333333"/>
<path d="M4.42578 12.2094H5.42578V13.2094H4.42578V12.2094Z" fill="#333333"/>
<path d="M7.42578 12.2094H8.42578V13.2094H7.42578V12.2094Z" fill="#333333"/>
<path d="M10.4258 12.2094H11.4258V13.2094H10.4258V12.2094Z" fill="#333333"/>
<path d="M13.4258 12.2094H14.4258V13.2094H13.4258V12.2094Z" fill="#333333"/>
<path d="M5.42578 5.20941C5.55839 5.20941 5.68557 5.15673 5.77933 5.06296C5.8731 4.9692 5.92578 4.84202 5.92578 4.70941V1.70941C5.92578 1.5768 5.8731 1.44963 5.77933 1.35586C5.68557 1.26209 5.55839 1.20941 5.42578 1.20941C5.29317 1.20941 5.166 1.26209 5.07223 1.35586C4.97846 1.44963 4.92578 1.5768 4.92578 1.70941V4.70941C4.92578 4.84202 4.97846 4.9692 5.07223 5.06296C5.166 5.15673 5.29317 5.20941 5.42578 5.20941Z" fill="#333333"/>
<path d="M13.4258 5.20941C13.5584 5.20941 13.6856 5.15673 13.7793 5.06296C13.8731 4.9692 13.9258 4.84202 13.9258 4.70941V1.70941C13.9258 1.5768 13.8731 1.44963 13.7793 1.35586C13.6856 1.26209 13.5584 1.20941 13.4258 1.20941C13.2932 1.20941 13.166 1.26209 13.0722 1.35586C12.9785 1.44963 12.9258 1.5768 12.9258 1.70941V4.70941C12.9258 4.84202 12.9785 4.9692 13.0722 5.06296C13.166 5.15673 13.2932 5.20941 13.4258 5.20941Z" fill="#333333"/>
<path d="M6.92578 3.20941H11.9258V4.20941H6.92578V3.20941Z" fill="#333333"/>
</svg>
