<svg width="43" height="42" viewBox="0 0 43 42" fill="none" xmlns="http://www.w3.org/2000/svg">
<circle cx="21.2124" cy="21" r="21" fill="#DFDFFF"/>
<path d="M23.1525 14.9401C23.4342 14.6719 23.8091 14.5236 24.1981 14.5265C24.5871 14.5295 24.9597 14.6834 25.2374 14.9559C25.515 15.2283 25.676 15.598 25.6862 15.9868C25.6965 16.3757 25.5553 16.7533 25.2925 17.0401L17.3125 27.0201C17.1753 27.1679 17.0096 27.2865 16.8255 27.3688C16.6414 27.4511 16.4426 27.4955 16.241 27.4992C16.0393 27.503 15.839 27.466 15.652 27.3906C15.465 27.3151 15.2951 27.2027 15.1525 27.0601L9.86047 21.7681C9.7131 21.6308 9.5949 21.4652 9.51291 21.2812C9.43093 21.0972 9.38684 20.8985 9.38329 20.6971C9.37974 20.4957 9.41679 20.2957 9.49223 20.1089C9.56767 19.9221 9.67996 19.7524 9.8224 19.61C9.96483 19.4676 10.1345 19.3553 10.3213 19.2798C10.5081 19.2044 10.7081 19.1673 10.9095 19.1709C11.1109 19.1745 11.3096 19.2185 11.4935 19.3005C11.6775 19.3825 11.8431 19.5007 11.9805 19.6481L16.1685 23.8341L23.1125 14.9841C23.1249 14.9686 23.1383 14.954 23.1525 14.9401ZM21.3125 25.2201L23.1525 27.0601C23.295 27.2024 23.4648 27.3145 23.6516 27.3898C23.8385 27.4651 24.0386 27.5019 24.24 27.4982C24.4414 27.4945 24.6399 27.4502 24.8239 27.3681C25.0078 27.2859 25.1733 27.1676 25.3105 27.0201L33.2945 17.0401C33.4379 16.8985 33.5513 16.7294 33.6279 16.543C33.7046 16.3566 33.7429 16.1567 33.7405 15.9552C33.7382 15.7536 33.6952 15.5546 33.6143 15.3701C33.5333 15.1855 33.416 15.0192 33.2693 14.8809C33.1226 14.7427 32.9496 14.6355 32.7605 14.5656C32.5715 14.4958 32.3703 14.4647 32.169 14.4744C31.9677 14.484 31.7704 14.5341 31.5888 14.6217C31.4073 14.7092 31.2453 14.8325 31.1125 14.9841L24.1665 23.8341L23.1965 22.8621L21.3105 25.2201H21.3125Z" fill="#0A369D"/>
</svg>
