<svg width="25" height="25" viewBox="0 0 25 25" fill="none" xmlns="http://www.w3.org/2000/svg">
<path d="M22.2118 10.3577H16.3927C16.2927 10.3577 16.2109 10.4395 16.2109 10.5395V11.6306C16.2109 11.7306 16.2927 11.8124 16.3927 11.8124H22.2118C22.3119 11.8124 22.3937 11.7306 22.3937 11.6306V10.5395C22.3937 10.4395 22.3119 10.3577 22.2118 10.3577ZM19.1659 13.449H16.3927C16.2927 13.449 16.2109 13.5309 16.2109 13.6309V14.722C16.2109 14.822 16.2927 14.9038 16.3927 14.9038H19.1659C19.2659 14.9038 19.3478 14.822 19.3478 14.722V13.6309C19.3478 13.5309 19.2659 13.449 19.1659 13.449ZM11.5806 8.32324H10.5964C10.4555 8.32324 10.3418 8.4369 10.3418 8.57783V14.2151C10.3418 14.2969 10.3804 14.3719 10.4464 14.4197L13.831 16.8882C13.9446 16.9701 14.1038 16.9473 14.1856 16.8337L14.7698 16.0358V16.0335C14.8516 15.9199 14.8266 15.7608 14.7129 15.6789L11.8329 13.5968V8.57783C11.8352 8.4369 11.7193 8.32324 11.5806 8.32324Z" fill="#0A369D"/>
<path d="M19.0249 16.3109H17.711C17.5837 16.3109 17.4632 16.3769 17.3951 16.486C17.1064 16.9428 16.77 17.3656 16.3835 17.7521C15.7175 18.4181 14.9424 18.9409 14.0809 19.3046C13.1876 19.6819 12.2397 19.8729 11.2623 19.8729C10.2826 19.8729 9.33469 19.6819 8.44365 19.3046C7.58215 18.9409 6.80703 18.4181 6.14101 17.7521C5.475 17.0861 4.95219 16.3109 4.58849 15.4494C4.21116 14.5584 4.02022 13.6105 4.02022 12.6308C4.02022 11.6511 4.21116 10.7055 4.58849 9.81218C4.95219 8.95069 5.475 8.17556 6.14101 7.50955C6.80703 6.84354 7.58215 6.32073 8.44365 5.95703C9.33469 5.5797 10.2848 5.38876 11.2623 5.38876C12.242 5.38876 13.1898 5.5797 14.0809 5.95703C14.9424 6.32073 15.7175 6.84354 16.3835 7.50955C16.77 7.89597 17.1064 8.31877 17.3951 8.77566C17.4632 8.88477 17.5837 8.95069 17.711 8.95069H19.0249C19.1817 8.95069 19.2817 8.78702 19.2112 8.64837C17.7292 5.70017 14.7242 3.78396 11.3691 3.74532C6.45697 3.68395 2.37678 7.70504 2.36769 12.6126C2.3586 17.5293 6.34332 21.5186 11.26 21.5186C14.6583 21.5186 17.7133 19.5955 19.2112 16.6133C19.2817 16.4746 19.1794 16.3109 19.0249 16.3109Z" fill="#0A369D"/>
</svg>
