<svg width="30" height="30" viewBox="0 0 30 30" fill="none" xmlns="http://www.w3.org/2000/svg">
<path fill-rule="evenodd" clip-rule="evenodd" d="M14.7502 0.333252C6.65016 0.333252 0.0834961 6.89992 0.0834961 14.9999C0.0834961 23.0999 6.65016 29.6666 14.7502 29.6666C22.8502 29.6666 29.4168 23.0999 29.4168 14.9999C29.4168 6.89992 22.8502 0.333252 14.7502 0.333252ZM9.41683 13.6666C9.06321 13.6666 8.72407 13.8071 8.47402 14.0571C8.22397 14.3072 8.0835 14.6463 8.0835 14.9999C8.0835 15.3535 8.22397 15.6927 8.47402 15.9427C8.72407 16.1928 9.06321 16.3333 9.41683 16.3333H20.0835C20.4371 16.3333 20.7763 16.1928 21.0263 15.9427C21.2764 15.6927 21.4168 15.3535 21.4168 14.9999C21.4168 14.6463 21.2764 14.3072 21.0263 14.0571C20.7763 13.8071 20.4371 13.6666 20.0835 13.6666H9.41683Z" fill="#131206"/>
</svg>
