<svg width="24" height="25" viewBox="0 0 24 25" fill="none" xmlns="http://www.w3.org/2000/svg">
<path d="M22.6948 24.287C23.4053 24.287 23.9814 23.7109 23.9814 23.0004V2.26171C23.9814 1.55106 23.4053 0.975098 22.6948 0.975098H1.95629C1.24555 0.975098 0.669678 1.55106 0.669678 2.26171V23.0004C0.669678 23.7109 1.24555 24.287 1.95629 24.287H22.6948Z" fill="#395185"/>
<path d="M16.7543 24.2866V15.259H19.7846L20.2383 11.7408H16.7543V9.49452C16.7543 8.47591 17.0373 7.78175 18.498 7.78175L20.361 7.78093V4.63429C20.0387 4.5914 18.9328 4.49561 17.6463 4.49561C14.9601 4.49561 13.1212 6.13517 13.1212 9.14621V11.7408H10.0833V15.259H13.1212V24.2866H16.7543Z" fill="white"/>
</svg>
