<svg width="24" height="25" viewBox="0 0 24 25" fill="none" xmlns="http://www.w3.org/2000/svg">
<path d="M20.3014 20.8381H16.8474V15.4288C16.8474 14.1389 16.8243 12.4784 15.0509 12.4784C13.2519 12.4784 12.9766 13.8839 12.9766 15.3349V20.8378H9.52266V9.71406H12.8385V11.2342H12.8849C13.2168 10.6668 13.6963 10.2001 14.2724 9.88363C14.8486 9.5672 15.4997 9.41295 16.1566 9.43733C19.6575 9.43733 20.3029 11.7401 20.3029 14.7358L20.3014 20.8381ZM5.62523 8.19361C4.51819 8.19379 3.62059 7.29647 3.62041 6.18943C3.62023 5.0824 4.51746 4.1848 5.6245 4.18462C6.73153 4.18435 7.62913 5.08167 7.62931 6.1887C7.62941 6.72033 7.41832 7.23021 7.04248 7.6062C6.66665 7.98219 6.15685 8.19349 5.62523 8.19361ZM7.3523 20.8382H3.8946V9.71406H7.35221V20.8381L7.3523 20.8382ZM22.0234 0.976794H2.15897C1.22012 0.966231 0.450194 1.71831 0.438721 2.65715V22.6045C0.44983 23.5438 1.21966 24.2966 2.15887 24.2867H22.0234C22.9646 24.2984 23.7375 23.5456 23.7505 22.6045V2.65561C23.7371 1.71494 22.9642 0.962953 22.0234 0.975246" fill="#0A66C2"/>
</svg>
