<svg width="29" height="25" viewBox="0 0 29 25" fill="none" xmlns="http://www.w3.org/2000/svg">
<path d="M28.7619 3.72209C27.7112 4.18799 26.5822 4.50287 25.3972 4.64453C26.6068 3.91952 27.5356 2.77144 27.973 1.40352C26.8231 2.0859 25.565 2.56669 24.253 2.82509C23.1844 1.68661 21.662 0.975098 19.9769 0.975098C16.7416 0.975098 14.1185 3.59806 14.1185 6.83316C14.1185 7.29236 14.1704 7.73941 14.2702 8.16828C9.40152 7.9239 5.08494 5.59172 2.19551 2.04744C1.69135 2.91265 1.40246 3.91907 1.40246 4.99253C1.40246 7.025 2.43677 8.818 4.00859 9.86859C3.07829 9.83946 2.16846 9.58819 1.35506 9.13578C1.35473 9.16032 1.35472 9.18486 1.35472 9.20951C1.35472 12.0479 3.37404 14.4156 6.05389 14.9538C5.19122 15.1884 4.28635 15.2227 3.40839 15.0542C4.15381 17.3816 6.31734 19.0752 8.88075 19.1226C6.87582 20.6937 4.34979 21.6303 1.60524 21.6303C1.13232 21.6303 0.66608 21.6026 0.207764 21.5485C2.80028 23.2106 5.87955 24.1805 9.18781 24.1805C19.9633 24.1805 25.8556 15.2538 25.8556 7.51254C25.8556 7.25846 25.85 7.00582 25.8387 6.75463C26.9855 5.92554 27.9754 4.89863 28.7619 3.72209Z" fill="#55ACEE"/>
</svg>
