<svg width="32" height="25" viewBox="0 0 32 25" fill="none" xmlns="http://www.w3.org/2000/svg">
<g clip-path="url(#clip0)">
<path d="M7.24683 24.1722V12.2252L3.54171 8.8356L0.219238 6.95459V22.0639C0.219238 23.2304 1.16439 24.1722 2.32756 24.1722H7.24683Z" fill="#4285F4"/>
<path d="M24.1128 24.1721H29.0321C30.1987 24.1721 31.1404 23.2268 31.1404 22.0638V6.95459L27.3772 9.10906L24.1128 12.2251V24.1721Z" fill="#34A853"/>
<path d="M7.24684 12.2252L6.74268 7.55712L7.24684 3.08936L15.6799 9.41421L24.113 3.08936L24.677 7.31591L24.113 12.2252L15.6799 18.55L7.24684 12.2252Z" fill="#EA4335"/>
<path d="M24.1128 3.0893V12.2251L31.1404 6.95447V4.14341C31.1404 1.53623 28.1642 0.0499576 26.0806 1.61354L24.1128 3.0893Z" fill="#FBBC04"/>
<path d="M0.219238 6.95452L3.45136 9.37871L7.24683 12.2252V3.08936L5.27898 1.61359C3.19179 0.0498921 0.219238 1.53629 0.219238 4.14334V6.9544V6.95452Z" fill="#C5221F"/>
</g>
<defs>
<clipPath id="clip0">
<rect width="30.9213" height="23.3118" fill="white" transform="translate(0.219238 0.975098)"/>
</clipPath>
</defs>
</svg>
