<svg width="92" height="92" viewBox="0 0 92 92" fill="none" xmlns="http://www.w3.org/2000/svg">
<path d="M45.9999 91.5443C71.1533 91.5443 91.5441 71.1534 91.5441 46C91.5441 20.8466 71.1533 0.455688 45.9999 0.455688C20.8464 0.455688 0.455566 20.8466 0.455566 46C0.455566 71.1534 20.8464 91.5443 45.9999 91.5443Z" fill="#0A369D" stroke="white" stroke-width="0.911433" stroke-miterlimit="10"/>
<path d="M46 81.1801C65.4294 81.1801 81.1801 65.4294 81.1801 46C81.1801 26.5705 65.4294 10.8198 46 10.8198C26.5705 10.8198 10.8198 26.5705 10.8198 46C10.8198 65.4294 26.5705 81.1801 46 81.1801Z" fill="#0A369D" stroke="white" stroke-width="0.683574" stroke-miterlimit="10"/>
<path d="M27.4183 28.1143C28.0677 28.6839 28.8401 28.6668 29.5886 28.5279C29.6786 28.8184 29.7162 29.1089 29.8518 29.3424C30.1093 29.7868 30.5673 29.9178 31.0481 29.9486C31.3819 29.9702 31.718 29.9486 32.0734 29.9486C32.0734 29.9486 32.0825 29.9725 32.0894 29.9975C32.4858 31.2508 33.4987 31.8409 34.7678 31.5493C35.151 31.4619 35.5076 31.2842 35.808 31.0309C35.9117 30.9432 35.9983 30.9101 36.0803 31.0673C36.536 31.9423 37.3073 32.3969 38.237 32.5336C39.4036 32.7068 40.5623 32.5279 41.7061 32.2647C41.7428 32.262 41.7784 32.2516 41.8107 32.2341C41.8431 32.2166 41.8713 32.1925 41.8937 32.1634C41.9161 32.1343 41.9321 32.1007 41.9406 32.065C41.9491 32.0292 41.9499 31.9921 41.9431 31.956C41.9249 31.187 41.918 30.4168 41.9135 29.6466C41.9089 28.8765 41.9135 28.12 41.9135 27.3567C41.9135 27.2906 41.9066 27.2245 41.9009 27.1436C41.7676 27.1436 41.6514 27.1436 41.5364 27.1436C41.3774 27.1429 41.2217 27.0989 41.0858 27.0164C40.9499 26.9339 40.8391 26.816 40.7651 26.6754C40.6502 26.459 40.549 26.2356 40.462 26.0066C40.4217 25.893 40.355 25.7905 40.2675 25.7075C40.18 25.6245 40.0741 25.5635 39.9584 25.5292C39.3474 25.3536 38.6968 25.3723 38.0968 25.5828C37.3985 25.822 36.708 26.0909 35.9949 26.2743C34.7861 26.5854 33.5363 26.6264 32.2967 26.6788C30.4579 26.7551 28.6157 26.7688 26.7757 26.8098C26.737 26.8098 26.6982 26.8098 26.6436 26.8201C26.7619 27.3212 27.0325 27.7733 27.4183 28.1143Z" fill="white"/>
<path d="M45.3629 27.1482C45.3026 27.1482 45.241 27.1482 45.167 27.1482C45.1556 27.3658 45.1362 27.5549 45.1351 27.744C45.126 29.1601 45.1214 30.5763 45.1123 31.9924C45.1123 32.128 45.1419 32.2112 45.2923 32.2374C45.764 32.3183 46.2322 32.4276 46.705 32.4949C47.5572 32.6145 48.414 32.6851 49.2582 32.4345C49.6192 32.3366 49.9571 32.1676 50.2521 31.9376C50.5471 31.7075 50.7933 31.421 50.9762 31.0947C51.007 31.04 51.048 30.9898 51.0697 30.9579C51.3586 31.1334 51.6563 31.2938 51.9617 31.4387C53.0816 31.9036 54.5263 31.5128 54.9444 30.0545C54.9854 29.9121 55.0583 29.9223 55.1722 29.9235C55.5547 29.9458 55.9383 29.9378 56.3195 29.8995C56.7695 29.8323 57.15 29.6011 57.3096 29.1374C57.3628 28.9369 57.4008 28.7328 57.4235 28.5267C58.0569 28.6178 58.6949 28.6919 59.2942 28.3467C59.8935 28.0015 60.2193 27.4808 60.4187 26.8132H60.1646C59.6155 26.8052 59.0652 26.803 58.5161 26.787C57.1295 26.746 55.7419 26.7255 54.3565 26.648C53.3903 26.5996 52.4274 26.4995 51.4718 26.3484C50.8055 26.2276 50.1526 26.0418 49.5225 25.7935C48.8309 25.5315 48.1485 25.3378 47.4023 25.4518C46.9659 25.519 46.664 25.7229 46.5341 26.1558C46.5052 26.2466 46.471 26.3357 46.4316 26.4224C46.2277 26.8998 45.8927 27.1937 45.3629 27.1482Z" fill="white"/>
<path d="M39.7644 44.9918C39.8231 45.0411 39.8977 45.0676 39.9744 45.0661C40.0511 45.0646 40.1247 45.0354 40.1814 44.9838C40.4682 44.785 40.7677 44.6054 41.078 44.446C41.5508 44.2182 42.0396 44.0142 42.5523 43.7864C42.4383 43.7374 42.3415 43.6987 42.2458 43.6508C41.7183 43.3899 41.2979 43.0379 41.1373 42.434C40.9766 41.8302 41.1373 41.3415 41.6272 41.0669C41.792 40.9671 41.9727 40.8962 42.1615 40.8573C42.8967 40.7327 43.6342 40.6214 44.374 40.5235C45.02 40.438 45.6785 40.4221 46.3108 40.2956C47.3609 40.0848 48.3682 39.6997 49.2912 39.1563C50.1103 38.6698 50.8269 38.0865 51.3419 37.2662C51.8045 36.5268 51.809 35.4012 51.3214 34.6857C50.9432 34.1298 50.3929 33.8244 49.7742 33.6262C48.9403 33.3585 48.0756 33.3209 47.2097 33.3425C46.9225 33.3493 46.6384 33.4036 46.3689 33.5031C45.6078 33.7948 45.1875 34.3827 45.0223 35.1676C44.9083 35.7259 45.1271 36.0973 45.6819 36.2249C45.9301 36.2733 46.1813 36.3045 46.4338 36.3183C46.9203 36.3582 47.3783 36.2728 47.7566 35.9401C48.1576 35.588 48.5882 35.3328 49.1476 35.4399C49.2467 35.4487 49.3404 35.4886 49.4154 35.5539C49.5623 35.735 49.4746 36.3514 49.3014 36.5211C48.9596 36.8629 48.5381 37.0486 48.1018 37.2104C46.7994 37.6874 45.4288 37.9521 44.0425 37.9942C43.0501 38.0295 42.0726 38.099 41.1361 38.4727C40.0709 38.8977 39.1766 39.5266 38.5625 40.5155C38.1232 41.2057 37.9413 42.0286 38.0487 42.8396C38.0953 43.1217 38.1951 43.3923 38.3426 43.6371C38.6775 44.2353 39.213 44.6249 39.7644 44.9918Z" fill="white"/>
<path d="M48.3299 44.0005C48.5559 43.7511 48.7294 43.4588 48.84 43.1409C48.9506 42.823 48.996 42.4861 48.9736 42.1503C48.9349 41.5214 48.797 40.9347 48.4427 40.4049C48.3755 40.3035 48.3288 40.2716 48.2012 40.3252C47.8331 40.4884 47.452 40.6207 47.0619 40.7205C46.4695 40.8493 45.8645 40.9199 45.2447 41.0179C45.3546 41.0799 45.459 41.1512 45.5569 41.2309C46.0548 41.7185 45.9864 42.303 45.6708 42.8077C45.329 43.3523 44.7981 43.6701 44.2194 43.8991C43.4002 44.225 42.5583 44.4961 41.7482 44.8402C40.8755 45.2105 40.086 45.7254 39.4788 46.4694C38.9 47.178 38.6596 47.9675 39.0299 48.8619C39.2646 49.4258 39.6838 49.8348 40.1623 50.1926C40.4711 50.4204 40.47 50.4204 40.7628 50.2017C40.7844 50.1846 40.8106 50.1743 40.8322 50.1573C41.2287 49.8613 41.6698 49.6305 42.139 49.4737C42.3418 49.4042 42.54 49.3256 42.7246 49.2561C42.48 49.093 42.2477 48.9121 42.0296 48.7149C41.6879 48.3617 41.4873 47.6747 42.0558 47.1791C42.2865 46.9762 42.5485 46.8119 42.8317 46.6927C43.3694 46.4728 43.9231 46.2916 44.4768 46.123C45.3047 45.8763 46.1062 45.5481 46.8693 45.1432C47.4207 44.8529 47.9154 44.4658 48.3299 44.0005Z" fill="white"/>
<path d="M42.5753 25.658C42.6354 25.6769 42.6873 25.7158 42.7223 25.7682C42.7573 25.8207 42.7734 25.8834 42.7679 25.9462C42.7679 26.4202 42.7747 26.8953 42.777 27.3692C42.7899 29.1222 42.8013 30.8756 42.8111 32.6293C42.8191 34.0318 42.8214 35.4342 42.8305 36.8367C42.8305 37.0543 42.851 37.2708 42.8624 37.5009L44.2034 37.4314C44.2102 37.3528 44.217 37.3061 44.217 37.2594C44.2284 36.1041 44.2432 34.95 44.2501 33.7948C44.2603 31.9788 44.2637 30.1627 44.274 28.3479C44.2786 27.5359 44.2892 26.7244 44.3059 25.9132C44.3074 25.8728 44.3177 25.8333 44.336 25.7973C44.3543 25.7613 44.3802 25.7297 44.4119 25.7047C44.6638 25.572 44.8858 25.3889 45.0642 25.1669C45.2425 24.9448 45.3733 24.6885 45.4486 24.4139C45.7391 23.4592 45.1809 22.4156 44.2854 22.0214C44.037 21.9173 43.7704 21.8633 43.5011 21.8626C43.2318 21.8619 42.965 21.9145 42.716 22.0173C42.4671 22.1201 42.2409 22.2712 42.0506 22.4617C41.8602 22.6523 41.7095 22.8786 41.6069 23.1276C41.4163 23.5935 41.4103 24.1144 41.5902 24.5845C41.7701 25.0546 42.1224 25.4385 42.5753 25.658Z" fill="white"/>
<path d="M47.8914 47.4982C47.7455 46.9526 47.4555 46.4564 47.0518 46.0616C46.7932 45.7938 46.7932 45.8109 46.4571 45.9476C45.9945 46.1345 45.5263 46.3065 45.0558 46.4717C44.3984 46.6996 43.7365 46.9194 43.0757 47.1382C43.016 47.1529 42.9641 47.1898 42.9309 47.2416C42.8976 47.2933 42.8854 47.3557 42.8968 47.4162C42.9059 47.8628 42.8968 48.3094 42.8968 48.7571V49.2128C43.2477 49.0898 43.5542 48.9759 43.8652 48.871C44.0623 48.8061 44.1682 48.7081 44.1477 48.4768C44.1272 48.2456 44.1534 47.9961 44.1557 47.7557C44.1557 47.4777 44.1557 47.1986 44.1557 46.8613C44.2995 46.9275 44.4395 47.0016 44.575 47.0835C44.7887 47.2176 44.9904 47.3701 45.1777 47.5392C45.6277 47.9824 45.442 48.511 45.0706 48.8061C44.6297 49.157 44.117 49.3655 43.5895 49.5444C42.8991 49.7802 42.1916 49.9727 41.5524 50.3419C40.7424 50.8067 40.1784 51.4504 40.0121 52.404C39.8458 53.3576 40.1431 53.9625 40.8096 54.4183L42.4103 53.3929C42.3454 53.1833 42.2326 52.9565 42.2121 52.7218C42.1768 52.3231 42.4764 52.1123 42.7817 51.9756C43.3126 51.7398 43.8629 51.5484 44.4052 51.3387C45.099 51.0699 45.8134 50.842 46.4821 50.523C47.5827 50.0103 48.1797 48.6705 47.8914 47.4982Z" fill="white"/>
<path d="M37.7903 35.367C38.2517 35.3066 38.6812 35.3601 39.0253 35.7156C39.7328 36.4482 40.9268 36.3627 41.6024 36.0574C41.723 36.0043 41.8248 35.9162 41.8945 35.8044C41.9642 35.6926 41.9986 35.5624 41.9932 35.4308C41.9909 34.9141 41.8032 34.4155 41.4643 34.0255C41.1253 33.6356 40.6577 33.3802 40.1464 33.306C39.7229 33.2676 39.297 33.2623 38.8726 33.2901C38.123 33.2993 37.3831 33.4621 36.6989 33.7686C35.7168 34.2243 35.2258 35.0833 35.301 36.1531C35.3568 36.9506 35.7681 37.559 36.2978 38.1013C36.8994 38.7188 37.6411 39.1369 38.4158 39.4946C38.4505 39.5008 38.4861 39.4989 38.5199 39.489C38.5537 39.4792 38.5847 39.4616 38.6106 39.4377C39.0343 38.9686 39.5435 38.5846 40.1111 38.3064C40.5292 38.107 40.9678 37.952 41.4053 37.7743C41.3901 37.7682 41.3745 37.7633 41.3586 37.7595C40.3093 37.584 39.2634 37.3835 38.3053 36.8971C37.5773 36.5279 37.4793 36.3502 37.4998 35.7338C37.5055 35.5424 37.5818 35.3966 37.7903 35.367Z" fill="white"/>
<path d="M44.3902 53.0032C43.9106 53.3803 43.3307 53.5432 42.7952 53.8007C42.196 54.0935 41.6081 54.3966 41.1376 54.8796C40.6374 55.3934 40.5497 55.8605 40.7753 56.4382C40.9769 56.9543 41.3928 57.3086 41.8097 57.6595C42 57.819 42.1128 57.7552 42.2825 57.6504C42.373 57.6043 42.4464 57.5307 42.4923 57.4402C42.5382 57.3497 42.5541 57.2469 42.5377 57.1468C42.5184 56.9189 42.5377 56.6911 42.5298 56.4632C42.515 56.0235 42.5799 55.9027 43.0083 55.7717C43.538 55.6099 44.0781 55.4869 44.609 55.3285C45.0382 55.2067 45.4406 55.0049 45.795 54.7338C46.8477 53.9158 46.9684 52.2376 46.3646 51.1416C46.2928 51.1655 46.229 51.1849 46.1652 51.2077C45.5899 51.4082 45.0123 51.603 44.4404 51.8115C43.9641 51.9847 43.4925 52.1715 43.0208 52.3584C42.9627 52.3823 42.8772 52.4393 42.875 52.4848C42.8613 52.748 42.8681 53.0123 42.8681 53.3416C43.2395 53.173 43.5517 53.0431 43.857 52.8859C44.0952 52.7719 44.2353 52.5771 44.1783 52.2889C44.1761 52.2312 44.1807 52.1734 44.192 52.1168C44.2304 52.1238 44.2685 52.133 44.3059 52.1442C44.5474 52.2456 44.658 52.7913 44.3902 53.0032Z" fill="white"/>
<path d="M40.095 59.8071C40.1204 59.83 40.1509 59.8464 40.1841 59.8549C40.2172 59.8635 40.2519 59.8639 40.2852 59.8561C40.4754 59.7996 40.6621 59.7322 40.8446 59.6544C41.5555 59.3491 42.2607 59.0312 42.9739 58.7327C43.8387 58.3693 44.7068 58.015 45.4975 57.5012C46.1924 57.0454 46.6174 56.445 46.5422 55.5644C46.5138 55.3376 46.4031 55.1292 46.2312 54.9788C45.6798 55.5028 44.9882 55.7022 44.2944 55.897C43.8728 56.011 43.4479 56.1249 43.0264 56.2388C42.9762 56.2536 42.9056 56.3163 42.9033 56.3584C42.8931 56.6501 42.8976 56.9418 42.8976 57.287C43.3921 56.9839 43.8558 56.7264 44.2124 56.2798C44.3434 56.4234 44.3445 56.5715 44.242 56.6843C44.0634 56.8985 43.8591 57.0899 43.6336 57.2539C42.7552 57.8236 41.854 58.3602 40.9745 58.9275C40.6773 59.1366 40.3941 59.365 40.1269 59.6111C40.1048 59.6381 40.0902 59.6704 40.0846 59.7048C40.079 59.7392 40.0826 59.7745 40.095 59.8071Z" fill="white"/>
<path d="M45.9373 59.5086C46.217 59.5961 46.502 59.6654 46.7907 59.7159C46.8465 59.7273 46.9547 59.6988 46.9672 59.6646C46.9779 59.5936 46.966 59.5211 46.9331 59.4573C46.9064 59.4074 46.8671 59.3654 46.8191 59.3354C46.3463 58.9628 45.869 58.5971 45.4007 58.2177C45.3638 58.1787 45.3143 58.154 45.2609 58.148C45.2076 58.1419 45.1538 58.1549 45.1091 58.1847C44.4392 58.5014 43.7704 58.817 43.0914 59.1132C42.9376 59.1816 42.8817 59.2511 42.8943 59.4117C42.9558 60.1784 43.0082 60.9452 43.0686 61.7119C43.0902 61.9785 43.1199 62.2451 43.1472 62.5094C43.1723 62.751 43.3489 62.9378 43.5448 62.9321C43.7613 62.9264 43.9048 62.7601 43.9253 62.5026C43.939 62.3249 43.9652 62.1483 43.9789 61.9706C44.045 61.1571 44.111 60.3436 44.1703 59.5291C44.1851 59.3251 44.1703 59.1178 44.1703 58.8671C44.2979 58.9036 44.3981 58.9252 44.4904 58.9617C44.9746 59.144 45.452 59.3422 45.9373 59.5086Z" fill="white"/>
<path d="M44.0473 41.0851C43.7157 41.1387 43.3819 41.1865 43.047 41.2139C42.8897 41.2275 42.8533 41.2868 42.8556 41.4303C42.8647 42.0558 42.8624 42.6835 42.867 43.3079C42.867 43.4366 42.8783 43.5653 42.8863 43.7499C43.3204 43.5859 43.7157 43.4389 44.1065 43.2817C44.1307 43.2652 44.1507 43.2434 44.1649 43.2179C44.1791 43.1924 44.1872 43.1639 44.1885 43.1347C44.1988 42.4956 44.2022 41.8564 44.209 41.2161C44.2113 41.0931 44.1703 41.0646 44.0473 41.0851Z" fill="white"/>
<path d="M62.8295 27.5059C62.7657 27.6267 62.7156 27.7235 62.662 27.8238C62.0377 29.115 61.4134 30.4062 60.7891 31.6974C58.9662 35.4399 57.1593 39.1859 55.3205 42.9205C55.0931 43.4046 54.9634 43.9288 54.9388 44.4631C54.8351 45.8747 54.7109 47.2863 54.597 48.6979C54.5651 49.1 54.5389 49.5033 54.5059 49.9591C54.6198 49.8736 54.6813 49.8326 54.7337 49.7882C56.2786 48.5486 57.8166 47.3072 59.3478 46.0638C59.4819 45.9539 59.5917 45.8173 59.6703 45.6628C61.705 41.5089 63.736 37.3528 65.7632 33.1944C66.3157 32.0642 66.8751 30.9375 67.4323 29.8084V29.7469L62.8295 27.5059ZM59.0551 45.6742C58.2097 46.3699 57.3564 47.0569 56.4951 47.7352C56.4451 47.7677 56.3884 47.7887 56.3292 47.7963C56.2701 47.804 56.2099 47.7983 56.1533 47.7796C55.145 47.3455 55.1564 47.3421 55.2749 46.2632C55.3489 45.5865 55.3729 44.9029 55.4458 44.225C55.4958 43.9059 55.5619 43.5895 55.644 43.2771L55.7579 43.2828C55.8423 43.5733 55.9277 43.8627 56.0109 44.1532C56.094 44.4438 56.1806 44.7457 56.274 45.0726L57.4293 44.3378C57.5147 44.8197 57.5945 45.2743 57.6776 45.746L59.3251 45.2002L59.382 45.2629C59.2891 45.4121 59.1794 45.5501 59.0551 45.6742ZM65.4488 31.637L62.5663 30.2402C62.801 29.7572 63.0221 29.2912 63.2659 28.8002L66.146 30.2003C65.9124 30.6754 65.6869 31.1414 65.4488 31.637Z" fill="white"/>
<path d="M59.6842 48.568C59.5772 48.7975 59.5201 49.0472 59.5168 49.3005C59.5076 53.623 59.5054 57.9459 59.5099 62.2691V62.7909C58.9619 62.6268 58.4914 62.4696 58.0129 62.3443C55.6341 61.7268 53.2279 61.8156 50.8354 62.1984C48.5581 62.5648 46.3336 63.2056 44.2104 64.1068C44.0475 64.1751 43.88 64.2287 43.7148 64.289H43.2796C42.457 64.0031 41.6356 63.6978 40.8016 63.4289C38.1049 62.5585 35.3535 61.9843 32.5064 61.9683C30.9468 61.9592 29.4076 62.1233 27.9265 62.6519C27.7966 62.6997 27.6588 62.7271 27.4708 62.7783V62.2828C27.4708 55.3194 27.4681 48.3568 27.4628 41.395C27.4628 41.0373 27.5562 40.8812 27.9128 40.7832C30.1641 40.1668 32.4153 39.8718 34.6677 40.0609C34.5771 39.8355 34.501 39.6045 34.4398 39.3693C34.4062 39.2312 34.3803 39.0912 34.3624 38.9501C33.5068 38.9034 32.6491 38.9103 31.7944 38.9706C30.06 39.0959 28.3502 39.4534 26.7109 40.0335C26.4557 40.1224 26.3531 40.2398 26.3634 40.5177C26.385 41.1284 26.3702 41.7402 26.3702 42.3406C26.0581 42.4329 25.7778 42.4933 25.5146 42.5958C24.6932 42.916 24.5645 43.1153 24.5645 43.9926V66.1142H25.1125C30.3205 66.1142 35.5278 66.1176 40.7344 66.1244C40.9975 66.1288 41.2539 66.2078 41.4738 66.3523C42.6427 67.1498 44.436 67.1498 45.5992 66.3455C45.806 66.2046 46.0486 66.1256 46.2987 66.1176C51.3777 66.1055 56.4566 66.1024 61.5356 66.1085H62.0642V43.6645C61.9503 43.8752 61.8888 43.9835 61.8363 44.0951C61.1129 45.5899 60.3883 47.0744 59.6842 48.568Z" fill="white"/>
<path d="M37.8575 54.4843L38.1765 53.7027C35.0924 52.1146 32.0141 51.6589 28.8115 52.8027L29.0519 53.6344C32.0688 52.5919 34.9785 53.0465 37.8575 54.4843Z" fill="white"/>
<path d="M29.174 56.0565C32.1977 54.9913 35.1131 55.4732 37.9864 56.9019L38.294 56.1169C35.2179 54.5299 32.135 54.0662 28.9438 55.2157C28.9894 55.4014 29.0202 55.537 29.0578 55.6715C29.0954 55.8059 29.1273 55.9039 29.174 56.0565Z" fill="white"/>
<path d="M33.2696 48.2398C34.7913 48.4206 36.2658 48.8843 37.6171 49.607C37.7231 49.3267 37.8176 49.0806 37.9247 48.7992C34.8486 47.2133 31.7668 46.769 28.5928 47.898C28.6144 48.0211 28.6224 48.1054 28.644 48.1851C28.6919 48.3583 28.7454 48.5269 28.8115 48.7548C30.2342 48.2258 31.7638 48.0491 33.2696 48.2398Z" fill="white"/>
<path d="M37.3801 44.8106C37.453 44.6329 37.5123 44.4961 37.567 44.3549C37.6023 44.2671 37.6319 44.1771 37.6877 44.0233C34.6116 42.442 31.5356 41.9874 28.333 43.129C28.4162 43.4241 28.4902 43.6838 28.5711 43.9675C31.5902 42.9057 34.5091 43.3865 37.3801 44.8106Z" fill="white"/>
<path d="M37.5032 47.2772L37.8142 46.5024C34.7461 44.8926 31.662 44.4677 28.4561 45.591L28.6896 46.4375C31.7167 45.3609 34.6242 45.8542 37.5032 47.2772Z" fill="white"/>
<path d="M37.7483 52.1305C37.8485 51.8765 37.9385 51.6498 38.0582 51.349C34.9821 49.754 31.8969 49.3119 28.6943 50.4512L28.9336 51.292C31.9618 50.2074 34.875 50.7155 37.7483 52.1305Z" fill="white"/>
<path d="M29.0518 57.6401C29.1406 57.9546 29.2078 58.195 29.2887 58.4832C30.7071 57.9579 32.2308 57.7806 33.732 57.966C35.2578 58.1495 36.7366 58.613 38.0943 59.3331L38.411 58.5425C35.3395 56.9372 32.252 56.5054 29.0518 57.6401Z" fill="white"/>
<path d="M57.4566 53.6344C57.5364 53.3587 57.6104 53.0989 57.697 52.8027C54.4933 51.6634 51.415 52.1192 48.332 53.7028C48.446 53.9956 48.5462 54.2314 48.6499 54.4843C51.5289 53.0465 54.4386 52.592 57.4566 53.6344Z" fill="white"/>
<path d="M48.2148 56.1169C48.3231 56.3949 48.4154 56.6318 48.5213 56.9019C51.3946 55.4732 54.31 54.9913 57.3349 56.0565C57.3804 55.9073 57.4192 55.7899 57.4488 55.6691C57.4784 55.5484 57.5149 55.4014 57.5627 55.2134C54.3727 54.0696 51.2921 54.5298 48.2148 56.1169Z" fill="white"/>
<path d="M48.0942 58.5447C48.2082 58.8284 48.3016 59.0654 48.4098 59.3354C49.7675 58.6153 51.2463 58.1518 52.7722 57.9683C54.2733 57.7828 55.797 57.9602 57.2154 58.4855C57.2963 58.1973 57.3646 57.9569 57.4524 57.6424C54.2555 56.5054 51.1692 56.9372 48.0942 58.5447Z" fill="white"/>
<path d="M6.40106 57.9397L5.68575 55.2608L6.83418 54.9541L7.02754 55.6783L6.54995 55.8058L6.78068 56.6699L7.44486 56.4926L7.26633 55.8239L7.91052 55.6519L8.08905 56.3206L8.86874 56.1124L8.63801 55.2483L8.04047 55.4078L7.84711 54.6837L9.0533 54.3616L9.76862 57.0405L9.15997 57.203L9.06566 56.8499L6.9776 57.4074L7.07191 57.7606L6.40106 57.9397Z" fill="white"/>
<path d="M8.54244 51.5325L7.95327 51.6336C8.13401 51.699 8.27056 51.7697 8.3629 51.8456C8.45524 51.9215 8.53456 52.0121 8.60084 52.1173C8.66686 52.2211 8.71532 52.3675 8.74622 52.5566C8.76079 52.6505 8.76629 52.746 8.76273 52.843C8.75766 52.9403 8.74451 53.0359 8.7233 53.1298C8.70057 53.2239 8.67078 53.3176 8.63394 53.411C8.59533 53.5032 8.54787 53.5891 8.49156 53.6687C8.35114 53.8655 8.17794 54.0297 7.97195 54.1615C7.76419 54.292 7.52887 54.3799 7.26602 54.425C7.10437 54.4527 6.94465 54.4599 6.78684 54.4466C6.62903 54.4332 6.47831 54.4023 6.3347 54.3539C6.19108 54.3055 6.05708 54.2406 5.93271 54.1593C5.80657 54.0768 5.69447 53.9809 5.59642 53.8718C5.49811 53.7611 5.41562 53.6384 5.34895 53.5037C5.28227 53.3689 5.23558 53.2238 5.20887 53.0682C5.17827 52.8899 5.17587 52.7309 5.20165 52.5912C5.22592 52.4517 5.29005 52.2953 5.39404 52.1219L5.30691 51.6143L6.07282 51.4829L6.19301 52.1831C6.09768 52.271 6.03116 52.35 5.99345 52.4203C5.95548 52.489 5.92686 52.5623 5.90758 52.6403C5.88805 52.7167 5.8893 52.8192 5.91134 52.9476C5.93312 53.0745 5.98205 53.1874 6.05813 53.2863C6.1342 53.3852 6.22821 53.4663 6.34015 53.5295C6.45032 53.5915 6.57576 53.6337 6.71648 53.6562C6.85569 53.6789 6.99478 53.6784 7.13377 53.6545C7.27124 53.6309 7.39841 53.5881 7.51529 53.5261C7.63216 53.464 7.73332 53.3829 7.81876 53.2827C7.9027 53.1827 7.96163 53.0731 7.99558 52.9537C8.02952 52.8344 8.03573 52.712 8.01421 52.5866C7.98672 52.4265 7.91591 52.2948 7.80176 52.1915C7.68761 52.0883 7.54518 52.0241 7.37446 51.9989L7.48687 52.6538L6.86598 52.7604L6.59292 51.1696L8.42614 50.855L8.54244 51.5325Z" fill="white"/>
<path d="M7.74922 50.4116L7.72095 50.0564L5.50467 50.2327L5.53294 50.588L4.89807 50.6385L4.76787 48.9444C4.75535 48.787 4.77218 48.6412 4.81838 48.5068C4.86293 48.371 4.92957 48.2519 5.01829 48.1495C5.10548 48.0473 5.21119 47.965 5.3354 47.9029C5.45796 47.8393 5.59106 47.8018 5.73469 47.7904C5.90276 47.777 6.04417 47.7957 6.15893 47.8466C6.27356 47.8959 6.36881 47.9721 6.44467 48.0752C6.50889 47.9548 6.59263 47.8574 6.69589 47.7831C6.79749 47.7073 6.92546 47.6633 7.07978 47.651C7.23716 47.6385 7.38374 47.6545 7.51952 47.6991C7.65518 47.7421 7.77491 47.8071 7.87871 47.8942C7.98086 47.9799 8.06378 48.0848 8.12747 48.2089C8.18963 48.3331 8.22661 48.4693 8.23841 48.6175L8.37721 50.3616L7.74922 50.4116ZM6.85135 49.3598L7.6604 49.2955L7.61443 48.7179C7.61091 48.6736 7.59617 48.6332 7.57021 48.5969C7.54413 48.559 7.51166 48.5277 7.4728 48.5031C7.43229 48.4771 7.38692 48.4577 7.33669 48.4448C7.28493 48.432 7.23231 48.4277 7.17883 48.432C7.12229 48.4365 7.07101 48.449 7.02498 48.4696C6.97743 48.4903 6.93723 48.5165 6.9044 48.5484C6.87004 48.5803 6.84451 48.6169 6.82781 48.6582C6.80946 48.6981 6.80198 48.7395 6.80539 48.7823L6.85135 49.3598ZM5.44411 49.4718L6.22336 49.4098L6.17995 48.8643C6.17655 48.8216 6.16263 48.7819 6.1382 48.7454C6.11377 48.7089 6.08289 48.6783 6.04556 48.6536C6.00658 48.6275 5.96426 48.6078 5.91861 48.5945C5.87144 48.5814 5.8234 48.5767 5.77451 48.5806C5.72714 48.5844 5.68045 48.5966 5.63442 48.6171C5.58839 48.6377 5.54743 48.664 5.51154 48.6961C5.47553 48.7267 5.44759 48.7619 5.42771 48.802C5.4063 48.8421 5.3973 48.8836 5.4007 48.9263L5.44411 49.4718Z" fill="white"/>
<path d="M4.67771 47.2738L4.64786 45.7816L5.27783 45.769L5.28519 46.1369L7.51078 46.0924L7.50342 45.7245L8.13339 45.7119L8.16324 47.2041L7.53327 47.2167L7.52605 46.8557L5.30046 46.9002L5.30768 47.2612L4.67771 47.2738Z" fill="white"/>
<path d="M7.58119 43.548L7.59855 43.2008L7.08952 43.3321L7.03595 44.4035L7.52935 44.5849L7.54774 44.217L8.17771 44.2485L8.11161 45.5705L7.48164 45.539L7.49463 45.2792L4.68655 44.1869L4.73264 43.2649L7.63465 42.4789L7.6473 42.226L8.27727 42.2574L8.21117 43.5795L7.58119 43.548ZM6.45644 44.1924L6.49162 43.4889L5.34043 43.7863L6.45644 44.1924Z" fill="white"/>
<path d="M5.20288 39.3112L5.40022 38.0017L6.02544 38.0959L5.98329 38.3755L8.8047 38.8007L8.69095 39.5555L6.24674 40.6543L7.85182 40.8962L7.89533 40.6075L8.51827 40.7014L8.32127 42.0086L7.69833 41.9148L7.74116 41.6306L5.54269 41.2993L5.50055 41.5789L4.87534 41.4847L5.03226 40.4434L7.50465 39.3582L5.87229 39.1122L5.82809 39.4054L5.20288 39.3112Z" fill="white"/>
<path d="M7.41491 34.4184C7.27368 34.468 7.16941 34.5192 7.10209 34.5719C7.0333 34.6243 6.97783 34.6859 6.93566 34.7569C6.89202 34.8275 6.85842 34.9048 6.83485 34.9889C6.80012 35.1129 6.79591 35.2359 6.82222 35.3579C6.84706 35.4794 6.89649 35.5928 6.97052 35.6979C7.04348 35.8011 7.13722 35.8926 7.25175 35.9724C7.3648 36.0519 7.49217 36.1114 7.63386 36.1511C7.77703 36.1912 7.91808 36.2077 8.057 36.2004C8.19486 36.1913 8.32177 36.1616 8.43773 36.1113C8.55369 36.061 8.6546 35.9906 8.74046 35.9C8.82484 35.8091 8.88481 35.7001 8.92037 35.5732C8.94518 35.4846 8.95431 35.398 8.94777 35.3134C8.93975 35.2284 8.92081 35.1483 8.89095 35.0731C8.8615 34.9964 8.82313 34.9259 8.77585 34.8617C8.72709 34.7972 8.67322 34.7423 8.61425 34.6971L9.01321 34.04C9.14504 34.1263 9.26054 34.2311 9.35971 34.3544C9.4574 34.4773 9.53369 34.614 9.58858 34.7647C9.64388 34.9139 9.67545 35.074 9.68328 35.2449C9.69152 35.4143 9.67042 35.5891 9.61997 35.7692C9.57738 35.9212 9.51599 36.0608 9.4358 36.1879C9.3556 36.3151 9.26092 36.4287 9.15174 36.5286C9.04297 36.6271 8.9216 36.7109 8.78763 36.78C8.65407 36.8476 8.51337 36.8981 8.36553 36.9315C8.21621 36.9645 8.06238 36.9795 7.90404 36.9765C7.74422 36.9732 7.58387 36.9489 7.42299 36.9039C7.18241 36.8365 6.96911 36.7313 6.78309 36.5885C6.5956 36.4452 6.44409 36.2786 6.32858 36.0887C6.21159 35.8983 6.13557 35.6924 6.10053 35.4709C6.06443 35.2474 6.07821 35.0221 6.14189 34.7948C6.19275 34.6133 6.25842 34.4669 6.33891 34.3557C6.41792 34.2442 6.54472 34.1324 6.71932 34.0206L6.85825 33.5247L7.60656 33.7343L7.41491 34.4184Z" fill="white"/>
<path d="M10.7257 32.4445C10.6688 32.5917 10.5944 32.7248 10.5024 32.8438C10.4105 32.9627 10.3054 33.0667 10.1871 33.1557C10.0695 33.2433 9.94136 33.3154 9.80283 33.372C9.66342 33.4266 9.51854 33.4634 9.36818 33.4826C9.2164 33.5011 9.06184 33.5014 8.9045 33.4833C8.74716 33.4652 8.59057 33.4261 8.43473 33.3658C8.27889 33.3056 8.13667 33.2293 8.00806 33.1369C7.87803 33.0439 7.7638 32.9397 7.66539 32.8245C7.56554 32.7087 7.4831 32.584 7.41805 32.4504C7.35213 32.3148 7.3051 32.175 7.27694 32.031C7.24933 31.8856 7.24148 31.738 7.25339 31.5881C7.26529 31.4382 7.2997 31.2897 7.35661 31.1424C7.41353 30.9951 7.48797 30.8621 7.57994 30.7431C7.67246 30.6228 7.77756 30.5188 7.89523 30.4312C8.01346 30.3421 8.14227 30.2703 8.28168 30.2157C8.42021 30.1591 8.56537 30.1216 8.71715 30.103C8.86806 30.0825 9.0229 30.0815 9.18167 30.1001C9.339 30.1182 9.49559 30.1574 9.65143 30.2176C9.80584 30.2773 9.94806 30.3536 10.0781 30.4466C10.2067 30.539 10.3207 30.6438 10.4199 30.7611C10.5184 30.8764 10.6005 31.0018 10.6665 31.1374C10.7315 31.2709 10.7778 31.4104 10.8054 31.5559C10.8336 31.6999 10.8414 31.8475 10.829 31.9988C10.8171 32.1487 10.7827 32.2972 10.7257 32.4445ZM10.0523 32.1842C10.1004 32.0598 10.1179 31.936 10.1048 31.8126C10.0908 31.6872 10.0524 31.5697 9.98964 31.46C9.92544 31.3497 9.84031 31.2511 9.73426 31.1641C9.62732 31.0751 9.50523 31.0041 9.36798 30.951C9.22929 30.8974 9.09046 30.8676 8.95148 30.8616C8.8125 30.8555 8.68262 30.8727 8.56183 30.9131C8.44017 30.9515 8.333 31.012 8.24031 31.0945C8.1462 31.1764 8.07539 31.2789 8.02787 31.4018C7.98035 31.5248 7.96386 31.6482 7.97841 31.7722C7.99152 31.8955 8.03018 32.0124 8.09438 32.1226C8.15715 32.2323 8.24173 32.3324 8.34811 32.4228C8.45504 32.5118 8.57785 32.5831 8.71653 32.6367C8.85378 32.6897 8.9919 32.7193 9.13088 32.7253C9.26898 32.7294 9.39886 32.7122 9.52053 32.6738C9.64076 32.6348 9.74794 32.5743 9.84205 32.4924C9.93473 32.4099 10.0048 32.3072 10.0523 32.1842Z" fill="white"/>
<path d="M8.3293 28.9394L8.9888 27.6009L9.55596 27.8804L9.39338 28.2103L11.3877 29.193L11.7231 28.5124C11.7319 28.4945 11.7355 28.475 11.734 28.4537C11.7318 28.4304 11.7255 28.4085 11.7151 28.388C11.7054 28.3661 11.693 28.3463 11.6778 28.3286C11.6626 28.3109 11.6461 28.2976 11.6282 28.2888L11.2095 28.0825L11.5388 27.4143L12.6875 27.9803L11.4559 30.4799L10.8908 30.2015L11.0504 29.8777L9.05601 28.8951L8.89647 29.2189L8.3293 28.9394Z" fill="white"/>
<path d="M9.83224 25.96L10.5976 24.6791L11.1404 25.0034L10.9517 25.3192L12.8602 26.4596L13.2494 25.8083C13.2596 25.7912 13.2648 25.772 13.2651 25.7507C13.2648 25.7273 13.2603 25.705 13.2515 25.6837C13.2436 25.6611 13.2328 25.6404 13.2191 25.6215C13.2054 25.6026 13.19 25.588 13.1729 25.5778L12.7722 25.3384L13.1543 24.6989L14.2537 25.3558L12.8243 27.7479L12.2835 27.4247L12.4687 27.1149L10.5602 25.9745L10.375 26.2843L9.83224 25.96Z" fill="white"/>
<path d="M11.5953 23.1273L13.2035 20.8813L14.1664 21.5708L13.7316 22.1779L13.3312 21.8912L12.8125 22.6156L13.3693 23.0144L13.7707 22.4538L14.3108 22.8405L13.9094 23.4011L14.5631 23.8691L15.0818 23.1447L14.5808 22.786L15.0156 22.1789L16.0268 22.903L14.4186 25.1489L13.9083 24.7835L14.1203 24.4874L12.3698 23.2339L12.1577 23.53L11.5953 23.1273Z" fill="white"/>
<path d="M17.8728 20.684L17.4193 20.2945C17.4841 20.4755 17.5167 20.6257 17.5171 20.7452C17.5175 20.8648 17.4982 20.9836 17.4594 21.1018C17.4215 21.2188 17.3396 21.3495 17.2136 21.4938C17.1505 21.5649 17.0804 21.63 17.0034 21.6891C16.9252 21.7472 16.8432 21.798 16.7573 21.8415C16.6704 21.884 16.5791 21.9208 16.4837 21.9519C16.388 21.9809 16.2916 21.9991 16.1943 22.0065C15.9532 22.0237 15.7163 21.9949 15.4834 21.9202C15.2504 21.8433 15.0328 21.718 14.8304 21.5442C14.706 21.4374 14.5987 21.3189 14.5084 21.1888C14.4181 21.0587 14.3458 20.9229 14.2916 20.7813C14.2374 20.6398 14.2019 20.4952 14.1853 20.3476C14.1685 20.1977 14.1709 20.0503 14.1925 19.9052C14.2151 19.7589 14.257 19.6171 14.3183 19.4799C14.3797 19.3426 14.4618 19.2141 14.5646 19.0943C14.6825 18.9571 14.8034 18.8539 14.9275 18.7847C15.0505 18.7145 15.2119 18.6642 15.4117 18.6338L15.7473 18.2431L16.3368 18.7495L15.8739 19.2884C15.7454 19.271 15.6421 19.2702 15.5639 19.2859C15.4868 19.3004 15.412 19.3251 15.3397 19.36C15.2683 19.3936 15.1902 19.4599 15.1053 19.5587C15.0214 19.6564 14.9656 19.7661 14.9379 19.8877C14.9102 20.0094 14.9076 20.1335 14.9303 20.26C14.9528 20.3844 15.0002 20.508 15.0725 20.6308C15.1437 20.7525 15.2328 20.8594 15.3398 20.9512C15.4456 21.0421 15.5597 21.1128 15.682 21.1633C15.8043 21.2138 15.9313 21.24 16.0629 21.242C16.1934 21.243 16.3155 21.2185 16.4291 21.1686C16.5427 21.1186 16.641 21.0454 16.7238 20.9489C16.8297 20.8257 16.886 20.6872 16.8929 20.5334C16.8997 20.3796 16.8583 20.2289 16.7689 20.0814L16.3359 20.5854L15.858 20.175L16.9097 18.9506L18.3207 20.1625L17.8728 20.684Z" fill="white"/>
<path d="M16.2165 17.2837L18.2129 15.3427L19.0449 16.1986L18.5053 16.7232L18.1593 16.3673L17.5153 16.9934L17.9965 17.4883L18.4948 17.0039L18.9615 17.484L18.4633 17.9684L19.0282 18.5494L19.6721 17.9234L19.2392 17.4781L19.7788 16.9534L20.6527 17.8523L18.6563 19.7932L18.2154 19.3397L18.4786 19.0838L16.9657 17.5277L16.7025 17.7836L16.2165 17.2837Z" fill="white"/>
<path d="M22.9307 16.1017C22.806 16.198 22.6736 16.2731 22.5336 16.3271C22.3936 16.3811 22.2501 16.4155 22.1031 16.4305C21.9573 16.4444 21.8107 16.4398 21.6632 16.4164C21.516 16.391 21.3732 16.3475 21.235 16.2861C21.0958 16.2235 20.9637 16.1438 20.8387 16.047C20.7137 15.9502 20.6003 15.8359 20.4983 15.7039C20.3964 15.5719 20.3145 15.4332 20.2524 15.2878C20.1895 15.1412 20.1458 14.9932 20.1214 14.8439C20.096 14.6934 20.0901 14.5443 20.1036 14.3967C20.1174 14.2468 20.1495 14.1032 20.1999 13.9657C20.2515 13.8273 20.3212 13.6971 20.4088 13.5754C20.4965 13.4536 20.6026 13.3445 20.7274 13.2482C20.8521 13.1519 20.9844 13.0768 21.1245 13.0228C21.2657 12.9679 21.4092 12.9334 21.5549 12.9194C21.7019 12.9045 21.849 12.9098 21.9963 12.9353C22.1438 12.9586 22.2871 13.0016 22.4263 13.0642C22.5658 13.1246 22.6985 13.2039 22.8244 13.3019C22.9494 13.3986 23.0628 13.513 23.1647 13.645C23.2657 13.7758 23.3477 13.9145 23.4106 14.0611C23.4726 14.2065 23.5157 14.3549 23.5399 14.5064C23.5643 14.6556 23.5696 14.8052 23.5558 14.955C23.5423 15.1027 23.5097 15.2458 23.4581 15.3842C23.4077 15.5217 23.3381 15.6518 23.2492 15.7745C23.1616 15.8963 23.0554 16.0054 22.9307 16.1017ZM22.4903 15.5313C22.5956 15.45 22.6746 15.3533 22.7272 15.2411C22.7801 15.1269 22.8081 15.0067 22.8112 14.8806C22.8134 14.7532 22.7917 14.625 22.7461 14.4959C22.7008 14.3647 22.6333 14.2409 22.5435 14.1247C22.4528 14.0072 22.3497 13.91 22.2342 13.833C22.1187 13.7559 21.9989 13.7034 21.8749 13.6755C21.7512 13.6454 21.6284 13.6416 21.5066 13.6641C21.3839 13.6855 21.2705 13.7363 21.1663 13.8167C21.0622 13.8971 20.9843 13.994 20.9327 14.1073C20.8801 14.2195 20.8527 14.3392 20.8505 14.4665C20.8474 14.5926 20.8678 14.7218 20.9119 14.854C20.9572 14.9852 21.0252 15.1096 21.1159 15.227C21.2057 15.3433 21.3083 15.4399 21.4238 15.5169C21.5396 15.5918 21.6594 15.6443 21.7831 15.6744C21.9059 15.7033 22.0287 15.707 22.1514 15.6857C22.2732 15.6632 22.3862 15.6118 22.4903 15.5313Z" fill="white"/>
<path d="M22.6905 11.8577L24.9595 10.3999L25.602 11.3999L24.9734 11.8038L24.7086 11.3918L24.0142 11.838L24.4107 12.455L25.0122 12.0685L25.3739 12.6314L24.7723 13.0179L25.1799 13.6524L25.4894 13.4535L25.83 13.9836L24.5746 14.7901L24.234 14.2601L24.5377 14.065L23.372 12.2506L23.0683 12.4457L22.6905 11.8577Z" fill="white"/>
<path d="M28.4125 8.5663L29.7576 7.90874L30.0358 8.47778L29.7047 8.63964L30.6829 10.6406L31.014 10.4787L31.2912 11.0457L29.9462 11.7033L29.669 11.1363L29.9959 10.9765L29.6034 10.1736L28.1881 10.8656L28.5806 11.6684L28.9116 11.5066L29.1888 12.0735L27.8459 12.7301L27.5687 12.1631L27.8936 12.0043L26.9153 10.0033L26.5905 10.1621L26.3123 9.59311L27.6552 8.93656L27.9334 9.5056L27.6023 9.66746L27.921 10.3193L29.3363 9.62732L29.0177 8.9755L28.6907 9.13534L28.4125 8.5663Z" fill="white"/>
<path d="M30.5202 7.64923L33.1224 6.69179L33.5329 7.80735L32.8295 8.06616L32.6588 7.60224L31.8194 7.91107L32.0568 8.55624L32.7063 8.31727L32.9365 8.94302L32.287 9.18198L32.5657 9.93935L33.405 9.63053L33.1915 9.05009L33.8949 8.79128L34.326 9.96294L31.7237 10.9204L31.5062 10.3292L31.8493 10.2029L31.103 8.17464L30.7599 8.30087L30.5202 7.64923Z" fill="white"/>
<path d="M36.2267 8.77681L36.5617 8.68561L36.2791 8.24306L35.2454 8.52452L35.2262 9.0492L35.5811 8.95256L35.7466 9.56041L34.471 9.9077L34.3055 9.29985L34.5562 9.2316L34.7223 6.22689L35.6119 5.98469L37.2582 8.49596L37.5023 8.42952L37.6678 9.03737L36.3922 9.38465L36.2267 8.77681ZM35.266 7.90889L35.9448 7.72407L35.3054 6.7234L35.266 7.90889Z" fill="white"/>
<path d="M37.3078 5.59382L38.7701 5.32523L38.8839 5.94486L38.5234 6.01107L38.9236 8.1899L39.6672 8.05333C39.6867 8.04974 39.7045 8.04104 39.7206 8.02721C39.7379 8.01161 39.7517 7.99355 39.7619 7.97304C39.7736 7.95226 39.782 7.93052 39.7872 7.90784C39.7923 7.88515 39.7931 7.86405 39.7895 7.84452L39.7055 7.38712L40.4356 7.25304L40.6661 8.50806L37.9352 9.00964L37.8218 8.39227L38.1756 8.3273L37.7754 6.14847L37.4216 6.21344L37.3078 5.59382Z" fill="white"/>
<path d="M41.4708 7.77732L41.8301 7.74247L41.6132 5.50668L41.1921 5.54752L41.2356 5.99606L40.4896 6.06842L40.3873 5.01345L43.543 4.70737L43.6454 5.76233L42.8947 5.83513L42.8512 5.3866L42.373 5.43299L42.5898 7.66878L42.956 7.63327L43.0168 8.2603L41.5316 8.40435L41.4708 7.77732Z" fill="white"/>
<path d="M46.5226 4.67178L48.0169 4.69604L48.0066 5.32822L47.6388 5.32225L47.6027 7.54525L47.9705 7.55122L47.9603 8.18111L46.4661 8.15685L46.4763 7.52696L46.8395 7.53286L46.854 6.6409L45.2816 6.61538L45.2671 7.50734L45.6349 7.51331L45.6247 8.14319L44.1327 8.11898L44.1429 7.48909L44.5039 7.49495L44.54 5.27195L44.179 5.26609L44.1893 4.6339L45.6813 4.65812L45.671 5.29031L45.3032 5.28434L45.2914 6.00848L46.8638 6.034L46.8756 5.30986L46.5124 5.30397L46.5226 4.67178Z" fill="white"/>
<path d="M51.3622 5.99902C51.361 5.94484 51.348 5.89233 51.3233 5.84148C51.3001 5.79082 51.2669 5.7459 51.2238 5.70673C51.1823 5.66622 51.1331 5.6325 51.0762 5.60555C51.0207 5.57879 50.9611 5.56156 50.8972 5.55384C50.8393 5.54687 50.7846 5.54644 50.7329 5.55255C50.6812 5.55867 50.6348 5.57236 50.5936 5.59364C50.5542 5.61358 50.5206 5.64196 50.493 5.67877C50.4669 5.71576 50.4506 5.76165 50.444 5.81644C50.4357 5.88491 50.4436 5.94144 50.4675 5.98602C50.4932 6.02925 50.5273 6.06656 50.5698 6.09794C50.6139 6.1295 50.6631 6.15629 50.7176 6.1783C50.7721 6.20031 50.8248 6.22366 50.8759 6.24835L51.4783 6.53409C51.5613 6.57499 51.6377 6.62666 51.7074 6.6891C51.777 6.75154 51.8346 6.82411 51.8803 6.90681C51.9274 6.98969 51.9609 7.08251 51.981 7.18528C52.001 7.28805 52.0036 7.40106 51.9887 7.52433C51.9685 7.69172 51.9188 7.84089 51.8397 7.97184C51.7622 8.10297 51.6619 8.21129 51.5388 8.2968C51.4158 8.38231 51.2734 8.44309 51.1116 8.47915C50.9497 8.5152 50.7745 8.52185 50.5858 8.49908C50.4534 8.4831 50.3297 8.45274 50.2147 8.40798C50.101 8.36493 49.9988 8.30938 49.9082 8.24132C49.8176 8.17327 49.7405 8.09603 49.6768 8.00961C49.6133 7.92166 49.567 7.82575 49.5379 7.72188L49.3027 7.69352L49.3856 7.00645L50.212 7.10615L50.1949 7.24767C50.1866 7.31615 50.1896 7.38059 50.204 7.44099C50.2198 7.50157 50.2472 7.55582 50.2862 7.60376C50.3252 7.65169 50.3767 7.69187 50.4407 7.7243C50.5049 7.7552 50.5819 7.77607 50.6717 7.7869C50.8087 7.80343 50.9167 7.78481 50.9957 7.73105C51.075 7.67577 51.1214 7.59182 51.135 7.47921C51.1419 7.42138 51.1348 7.37189 51.1135 7.33072C51.0939 7.28822 51.0659 7.25165 51.0295 7.221C50.9932 7.18884 50.9518 7.16069 50.9054 7.13655C50.8589 7.11242 50.8129 7.08989 50.7676 7.06898L50.2653 6.837C50.17 6.79463 50.0793 6.74045 49.9931 6.67447C49.9084 6.60867 49.8352 6.53037 49.7736 6.43957C49.7135 6.34895 49.6688 6.24628 49.6394 6.13158C49.6117 6.01553 49.6064 5.88675 49.6235 5.74523C49.6433 5.58088 49.6914 5.43847 49.7677 5.31798C49.8442 5.19598 49.9425 5.09746 50.0627 5.02242C50.1829 4.94738 50.3211 4.89612 50.4773 4.86864C50.6335 4.84117 50.8013 4.83827 50.9809 4.85993C51.1224 4.87701 51.2513 4.90954 51.3674 4.95752C51.4838 5.00398 51.5858 5.0603 51.6736 5.12646C51.7628 5.19281 51.8359 5.2657 51.8927 5.34511C51.9512 5.42319 51.9934 5.50239 52.0192 5.5827L52.2474 5.61024L52.1643 6.29959L51.338 6.19989L51.3622 5.99902Z" fill="white"/>
<path d="M54.924 6.71457C54.8648 6.57708 54.8066 6.47657 54.7493 6.41304C54.6924 6.34802 54.6271 6.29691 54.5534 6.25972C54.48 6.22103 54.4005 6.19282 54.315 6.17509C54.1889 6.14895 54.0659 6.15321 53.946 6.18784C53.8265 6.22097 53.7168 6.27808 53.617 6.35914C53.5191 6.43902 53.4342 6.53884 53.3624 6.65858C53.291 6.77682 53.2403 6.90798 53.2104 7.05207C53.1803 7.19765 53.1735 7.33949 53.1903 7.47759C53.2089 7.6145 53.2473 7.73907 53.3054 7.8513C53.3635 7.96353 53.4407 8.05936 53.537 8.1388C53.6335 8.21673 53.7463 8.26907 53.8754 8.29582C53.9655 8.31449 54.0525 8.31765 54.1364 8.30531C54.2207 8.29147 54.2993 8.26707 54.3723 8.23211C54.4468 8.19745 54.5144 8.15434 54.5752 8.10276C54.6363 8.04968 54.6874 7.99216 54.7284 7.93022L55.4113 8.2831C55.3343 8.42054 55.2377 8.54297 55.1215 8.65037C55.0056 8.75628 54.8744 8.84179 54.7279 8.9069C54.5828 8.97232 54.4253 9.01481 54.2553 9.03437C54.0869 9.05423 53.9111 9.04519 53.728 9.00724C53.5734 8.97519 53.4299 8.92354 53.2975 8.85227C53.1651 8.78101 53.0453 8.69435 52.9381 8.59229C52.8324 8.49055 52.7405 8.37522 52.6623 8.24632C52.5857 8.11772 52.5256 7.98083 52.4821 7.83563C52.439 7.68893 52.4134 7.53649 52.4055 7.37832C52.3979 7.21864 52.4111 7.05701 52.445 6.89341C52.4957 6.64877 52.5859 6.42875 52.7156 6.23336C52.8457 6.03647 53.0015 5.87387 53.183 5.74558C53.3649 5.61578 53.5651 5.52579 53.7837 5.47562C54.0041 5.42425 54.2299 5.42252 54.461 5.47042C54.6456 5.50869 54.7962 5.56415 54.9126 5.63681C55.0293 5.70797 55.1495 5.82679 55.2731 5.99329L55.7774 6.09782L55.6197 6.85876L54.924 6.71457Z" fill="white"/>
<path d="M56.6015 6.03766L58.0372 6.4442L57.8656 7.05034L57.5116 6.95011L56.9053 9.09151L57.2592 9.19174L57.0876 9.79788L55.6519 9.39134L55.8235 8.7852L56.1708 8.88355L56.7772 6.74215L56.4299 6.6438L56.6015 6.03766Z" fill="white"/>
<path d="M58.6026 6.61214L61.2091 7.55489L60.8049 8.67224L60.1004 8.4174L60.2684 7.95274L59.4277 7.64865L59.194 8.29485L59.8445 8.53015L59.6178 9.1569L58.9673 8.92161L58.6929 9.68019L59.5336 9.98428L59.7439 9.40291L60.4485 9.65775L60.024 10.8313L57.4176 9.88854L57.6318 9.29637L57.9754 9.42066L58.7102 7.38912L58.3666 7.26483L58.6026 6.61214Z" fill="white"/>
<path d="M63.8235 8.70357L65.0246 9.26137L64.7583 9.83482L64.5018 9.71571L63.3 12.3035L62.6077 11.982L62.2409 9.3274L61.5572 10.7996L61.8221 10.9226L61.5567 11.494L60.3577 10.9371L60.623 10.3658L60.8837 10.4868L61.8201 8.47035L61.5636 8.35124L61.8299 7.77779L62.785 8.22131L63.1309 10.8992L63.8262 9.40195L63.5572 9.27702L63.8235 8.70357Z" fill="white"/>
<path d="M67.0276 11.6528C67.0159 11.5036 66.9931 11.3897 66.9593 11.3111C66.9263 11.2312 66.8809 11.1618 66.8231 11.1029C66.7661 11.0426 66.7 10.9903 66.6247 10.946C66.5137 10.8807 66.3959 10.8451 66.2713 10.8393C66.1474 10.8322 66.0252 10.8509 65.9046 10.8956C65.7862 10.9397 65.6737 11.0068 65.5672 11.0971C65.4615 11.186 65.3713 11.2939 65.2966 11.4207C65.2212 11.5488 65.1692 11.681 65.1406 11.8171C65.1141 11.9527 65.1103 12.083 65.1292 12.208C65.1481 12.3329 65.1904 12.4485 65.2559 12.5547C65.3222 12.6596 65.4122 12.7454 65.5258 12.8123C65.605 12.859 65.6864 12.89 65.7698 12.9053C65.8541 12.9194 65.9364 12.9216 66.0167 12.912C66.0984 12.9031 66.1763 12.8841 66.2505 12.8548C66.3254 12.8242 66.3923 12.7862 66.451 12.7408L66.984 13.2947C66.8668 13.4001 66.736 13.4849 66.5914 13.5492C66.4476 13.6121 66.2958 13.6508 66.1361 13.6653C65.9777 13.6806 65.8149 13.6701 65.6477 13.6339C65.4818 13.5984 65.3183 13.5333 65.1571 13.4384C65.0211 13.3583 64.9019 13.2632 64.7995 13.1531C64.6971 13.043 64.6116 12.9224 64.543 12.7913C64.4756 12.6609 64.4257 12.5221 64.3932 12.3749C64.3621 12.2285 64.3493 12.0796 64.3548 11.9281C64.3612 11.7753 64.3861 11.6228 64.4295 11.4705C64.4737 11.3168 64.5382 11.168 64.623 11.0241C64.7498 10.8088 64.906 10.6295 65.0917 10.4863C65.2782 10.3417 65.4781 10.238 65.6913 10.175C65.9052 10.1106 66.1238 10.0899 66.3469 10.1127C66.5721 10.1351 66.7864 10.2061 66.9898 10.3259C67.1523 10.4215 67.2769 10.5225 67.3638 10.6288C67.4514 10.7337 67.5269 10.8849 67.5903 11.0823L68.0341 11.3437L67.6398 12.0133L67.0276 11.6528Z" fill="white"/>
<path d="M68.8602 11.5874L71.1061 13.1956L70.4167 14.1584L69.8096 13.7237L70.0963 13.3233L69.3719 12.8046L68.9731 13.3614L69.5337 13.7628L69.147 14.3029L68.5864 13.9015L68.1184 14.5551L68.8428 15.0739L69.2015 14.5729L69.8086 15.0076L69.0845 16.0189L66.8386 14.4107L67.204 13.9004L67.5001 14.1124L68.7536 12.3618L68.4575 12.1498L68.8602 11.5874Z" fill="white"/>
<path d="M71.9229 17.5404L72.1833 17.773L72.4018 17.2923L71.5983 16.5745L71.1452 16.8456L71.4211 17.0921L70.999 17.5646L70.0075 16.6788L70.4296 16.2064L70.6244 16.3804L73.2498 14.875L73.9413 15.4927L72.7247 18.2567L72.9144 18.4261L72.4923 18.8986L71.5008 18.0129L71.9229 17.5404ZM72.1288 16.2547L72.6565 16.7261L73.1504 15.6388L72.1288 16.2547Z" fill="white"/>
<path d="M76.698 18.3402L77.597 19.3127L77.1327 19.7419L76.9407 19.5342L74.8455 21.471L74.3274 20.9105L74.9972 18.3157L73.8052 19.4176L74.0034 19.632L73.5408 20.0596L72.6434 19.0888L73.106 18.6612L73.3011 18.8722L74.9337 17.3631L74.7418 17.1554L75.206 16.7262L75.9208 17.4995L75.2229 20.1078L76.4351 18.9872L76.2338 18.7694L76.698 18.3402Z" fill="white"/>
<path d="M77.9335 19.7594L78.7498 20.8165C78.847 20.9424 78.9237 21.0755 78.9798 21.2158C79.0369 21.3573 79.0741 21.5006 79.0914 21.6457C79.1097 21.792 79.1084 21.938 79.0875 22.0836C79.0687 22.2296 79.0309 22.3708 78.9741 22.5075C78.9172 22.6442 78.8422 22.7736 78.7491 22.8958C78.6559 23.0179 78.5458 23.1281 78.4187 23.2263C78.2915 23.3245 78.1571 23.4032 78.0153 23.4624C77.8735 23.5216 77.7287 23.5619 77.5809 23.5832C77.4343 23.6036 77.2869 23.6054 77.1385 23.5885C76.9923 23.5719 76.8502 23.5367 76.712 23.483C76.576 23.4295 76.4468 23.3572 76.3243 23.2662C76.2028 23.1764 76.0934 23.0686 75.9962 22.9426L75.1799 21.8855L75.6776 21.5013L75.8473 21.721L77.6037 20.3648L77.434 20.145L77.9335 19.7594ZM78.0693 20.9678L76.3129 22.3241L76.4911 22.5547C76.5668 22.6528 76.6613 22.7277 76.7747 22.7793C76.888 22.831 77.0088 22.8585 77.1371 22.8619C77.2665 22.8644 77.399 22.8433 77.5346 22.7985C77.6713 22.7528 77.8015 22.6823 77.925 22.5869C78.0473 22.4925 78.1472 22.3854 78.2248 22.2656C78.3024 22.1457 78.3557 22.0234 78.3849 21.8984C78.414 21.7735 78.4174 21.6501 78.3948 21.5283C78.3723 21.4065 78.3232 21.2966 78.2475 21.1985L78.0693 20.9678Z" fill="white"/>
<path d="M78.6147 25.5833L78.8004 25.8928L80.7265 24.7369L80.5088 24.3741L80.1224 24.606L79.7367 23.9634L80.6455 23.4179L82.277 26.1365L81.3682 26.6819L80.9802 26.0353L81.3666 25.8034L81.1193 25.3914L79.1932 26.5473L79.3825 26.8627L78.8424 27.1869L78.0745 25.9075L78.6147 25.5833Z" fill="white"/>
<path d="M82.5441 26.6504L83.7661 29.1393L82.6991 29.6632L82.3688 28.9904L82.8125 28.7726L82.4184 27.9697L81.8013 28.2727L82.1063 28.8939L81.5078 29.1878L81.2028 28.5666L80.4784 28.9222L80.8725 29.725L81.4277 29.4525L81.758 30.1253L80.6374 30.6755L79.4153 28.1865L79.9808 27.9089L80.142 28.237L82.082 27.2845L81.9208 26.9564L82.5441 26.6504Z" fill="white"/>
<path d="M83.8656 32.2515C83.9491 32.1273 84.0021 32.0239 84.0245 31.9413C84.0483 31.8582 84.0558 31.7756 84.0472 31.6935C84.0399 31.6109 84.0206 31.5288 83.9892 31.4473C83.9428 31.3272 83.8727 31.2261 83.7786 31.1441C83.686 31.0615 83.5786 31.0003 83.4564 30.9603C83.3362 30.9213 83.2063 30.904 83.0668 30.9085C82.9287 30.9125 82.791 30.941 82.6537 30.9939C82.5149 31.0474 82.3921 31.1186 82.2851 31.2075C82.1801 31.2973 82.0962 31.397 82.0333 31.5067C81.9705 31.6164 81.9317 31.7332 81.9171 31.8571C81.9039 31.9805 81.921 32.1036 81.9684 32.2266C82.0015 32.3124 82.046 32.3873 82.1019 32.4512C82.1591 32.5145 82.2222 32.5674 82.2912 32.6098C82.3606 32.6536 82.4335 32.6871 82.5098 32.7103C82.5875 32.7329 82.6635 32.7446 82.7378 32.7456L82.8111 33.5108C82.6539 33.5205 82.4987 33.5056 82.3454 33.4661C82.1936 33.4261 82.0507 33.3621 81.9166 33.2742C81.783 33.1877 81.662 33.0783 81.5534 32.9461C81.4455 32.8152 81.3579 32.6625 81.2906 32.4881C81.2338 32.3408 81.1994 32.1922 81.1876 32.0423C81.1758 31.8924 81.1838 31.7448 81.2115 31.5994C81.2398 31.4554 81.2869 31.3157 81.3529 31.1802C81.4195 31.0461 81.502 30.9214 81.6005 30.8062C81.7004 30.6905 81.8147 30.5864 81.9434 30.4941C82.0735 30.4012 82.2165 30.3247 82.3724 30.2646C82.6055 30.1747 82.8393 30.1313 83.0738 30.1345C83.3098 30.1372 83.5308 30.18 83.737 30.2631C83.9446 30.3457 84.1287 30.4653 84.2893 30.6218C84.4519 30.7793 84.5757 30.9681 84.6606 31.1883C84.7284 31.3643 84.7634 31.5208 84.7654 31.658C84.7688 31.7947 84.734 31.9601 84.661 32.1542L84.8463 32.6347L84.1213 32.9143L83.8656 32.2515Z" fill="white"/>
<path d="M86.0143 35.6091L86.4049 37.0517L85.7946 37.2169L85.6984 36.8618L83.5524 37.4429L83.6486 37.798L83.0405 37.9626L82.6499 36.5201L83.258 36.3554L83.3529 36.7061L84.214 36.4729L83.803 34.955L82.9419 35.1881L83.0381 35.5432L82.43 35.7078L82.04 34.2675L82.6481 34.1029L82.7424 34.4513L84.8885 33.8703L84.7941 33.5218L85.4044 33.3566L85.7944 34.7969L85.1841 34.9621L85.0879 34.6071L84.3889 34.7963L84.7999 36.3143L85.4989 36.125L85.404 35.7744L86.0143 35.6091Z" fill="white"/>
<path d="M86.94 40.0257L87.1519 41.3368L86.5259 41.438L86.4807 41.158L83.6559 41.6145L83.5338 40.8588L85.5323 39.0621L83.9253 39.3218L83.9721 39.6108L83.3484 39.7116L83.1369 38.4028L83.7605 38.302L83.8065 38.5866L86.0076 38.2308L85.9623 37.9509L86.5883 37.8497L86.7568 38.8922L84.7272 40.6846L86.3615 40.4205L86.314 40.1269L86.94 40.0257Z" fill="white"/>
<path d="M83.7363 43.7858C83.7268 43.628 83.7392 43.4757 83.7735 43.3291C83.8078 43.1824 83.8602 43.0439 83.9309 42.9135C84.0016 42.7847 84.0883 42.6656 84.191 42.5564C84.2952 42.4486 84.4119 42.3547 84.5409 42.2747C84.6715 42.1945 84.8122 42.1299 84.9631 42.0809C85.114 42.0318 85.273 42.0023 85.44 41.9923C85.6071 41.9822 85.7685 41.9926 85.9242 42.0232C86.0814 42.0538 86.2288 42.1011 86.3665 42.1651C86.5057 42.2291 86.6327 42.3084 86.7476 42.403C86.8641 42.4991 86.9652 42.6068 87.0508 42.7263C87.1366 42.8473 87.2052 42.9786 87.2568 43.1201C87.3083 43.2616 87.3388 43.4113 87.3483 43.5691C87.3578 43.727 87.3454 43.8793 87.3111 44.0259C87.2769 44.1741 87.2245 44.3126 87.1538 44.4415C87.0831 44.5719 86.9957 44.6909 86.8914 44.7987C86.7887 44.9079 86.6721 45.0026 86.5415 45.0828C86.4126 45.1643 86.2719 45.2297 86.1195 45.2788C85.9686 45.3279 85.8096 45.3574 85.6426 45.3674C85.477 45.3774 85.3156 45.3671 85.1584 45.3365C85.0028 45.3058 84.8553 45.2578 84.716 45.1923C84.5783 45.1283 84.4512 45.0482 84.3347 44.9521C84.2198 44.8575 84.1195 44.7497 84.0338 44.6287C83.9482 44.5092 83.8795 44.378 83.8279 44.2349C83.7763 44.0934 83.7458 43.9437 83.7363 43.7858ZM84.4583 43.7425C84.4663 43.8759 84.5019 43.996 84.5653 44.103C84.6302 44.2114 84.7141 44.3025 84.817 44.3763C84.9214 44.45 85.0401 44.5045 85.1729 44.5396C85.3074 44.5761 85.4482 44.59 85.5954 44.5811C85.7441 44.5722 85.883 44.5416 86.0121 44.4892C86.1413 44.4368 86.2525 44.3671 86.3457 44.28C86.4405 44.1943 86.513 44.0946 86.5631 43.9808C86.6147 43.867 86.6366 43.7441 86.6287 43.6123C86.6208 43.4805 86.5844 43.3611 86.5195 43.2543C86.4562 43.1473 86.3723 43.057 86.2679 42.9833C86.165 42.9094 86.0463 42.8535 85.9117 42.8154C85.7772 42.7789 85.6356 42.7651 85.4869 42.774C85.3398 42.7828 85.2017 42.8134 85.0725 42.8658C84.945 42.9196 84.8338 42.9893 84.7389 43.075C84.6456 43.1606 84.5732 43.2603 84.5215 43.3742C84.4714 43.4879 84.4503 43.6107 84.4583 43.7425Z" fill="white"/>
<path d="M87.3543 45.9807L87.309 47.4722L86.677 47.453L86.6882 47.0853L84.4659 47.0178L84.4429 47.7762C84.4423 47.7961 84.4471 47.8154 84.4572 47.8341C84.4689 47.8544 84.4837 47.8717 84.5017 47.8861C84.5196 47.9019 84.5391 47.9148 84.5603 47.9247C84.5815 47.9345 84.602 47.9397 84.6219 47.9403L85.0884 47.9545L85.0658 48.6991L83.7858 48.6602L83.8704 45.8749L84.5001 45.894L84.4891 46.2548L86.7114 46.3223L86.7223 45.9615L87.3543 45.9807Z" fill="white"/>
<path d="M83.5236 50.4779C83.5423 50.3211 83.5815 50.1737 83.6412 50.0357C83.7008 49.8977 83.7769 49.771 83.8694 49.6554C83.9617 49.5414 84.068 49.4398 84.1882 49.3508C84.3098 49.2634 84.441 49.1918 84.582 49.1361C84.7245 49.0805 84.8741 49.042 85.0311 49.0206C85.188 48.9992 85.3494 48.9983 85.5153 49.0181C85.6812 49.0379 85.8379 49.0767 85.9854 49.1344C86.1344 49.1923 86.2708 49.2649 86.3947 49.3522C86.5201 49.4397 86.6308 49.5401 86.7269 49.6535C86.8243 49.7685 86.9045 49.8923 86.9674 50.0248C87.0302 50.1589 87.0743 50.3 87.0999 50.4482C87.1254 50.5963 87.1289 50.7488 87.1102 50.9055C87.0915 51.0623 87.0523 51.2097 86.9926 51.3477C86.9328 51.4872 86.8567 51.6139 86.7644 51.728C86.6719 51.8435 86.5648 51.945 86.4433 52.0324C86.323 52.1214 86.1917 52.1938 86.0492 52.2493C85.9081 52.3066 85.7583 52.3458 85.5999 52.3671C85.443 52.3885 85.2816 52.3893 85.1157 52.3696C84.9513 52.35 84.7946 52.3112 84.6456 52.2533C84.4981 52.1956 84.3618 52.1222 84.2365 52.0332C84.1126 51.9459 84.002 51.8447 83.9046 51.7296C83.8085 51.6163 83.7291 51.4926 83.6663 51.3585C83.6034 51.226 83.5593 51.0849 83.5339 50.9352C83.5083 50.7871 83.5049 50.6346 83.5236 50.4779ZM84.2405 50.5633C84.2247 50.6957 84.2384 50.8201 84.2816 50.9364C84.3262 51.0544 84.3925 51.1588 84.4805 51.2495C84.57 51.3405 84.6769 51.415 84.8011 51.473C84.9268 51.5328 85.0626 51.5713 85.2088 51.5888C85.3564 51.6064 85.4983 51.6009 85.6344 51.5724C85.7706 51.5438 85.8922 51.4951 85.9992 51.426C86.1076 51.3587 86.1965 51.2736 86.2658 51.1707C86.3367 51.068 86.38 50.9512 86.3956 50.8203C86.4112 50.6894 86.3966 50.5657 86.3519 50.4493C86.3086 50.333 86.2422 50.2293 86.1528 50.1384C86.0648 50.0476 85.9581 49.9716 85.8326 49.9104C85.707 49.8506 85.5704 49.8119 85.4227 49.7943C85.2766 49.7769 85.1355 49.7825 84.9993 49.811C84.8645 49.8412 84.7429 49.89 84.6346 49.9574C84.5277 50.0249 84.4388 50.11 84.3679 50.2127C84.2986 50.3156 84.2561 50.4324 84.2405 50.5633Z" fill="white"/>
<path d="M82.7973 55.0384L83.3831 55.1639C83.2393 55.0357 83.1386 54.9191 83.081 54.814C83.0234 54.709 82.9834 54.5951 82.961 54.4725C82.9382 54.3514 82.9477 54.1971 82.9895 54.0096C83.0109 53.9168 83.0414 53.8259 83.0809 53.737C83.1219 53.6484 83.1697 53.5644 83.2244 53.485C83.2807 53.4059 83.3433 53.3298 83.4124 53.2566C83.4827 53.1852 83.5589 53.123 83.6409 53.0699C83.8449 52.9392 84.0673 52.851 84.308 52.8051C84.55 52.7612 84.8017 52.7672 85.063 52.8232C85.2238 52.8576 85.375 52.9105 85.5169 52.9817C85.6587 53.0529 85.7874 53.1379 85.903 53.2365C86.0185 53.3351 86.119 53.4454 86.2044 53.5674C86.291 53.6912 86.3596 53.8221 86.4101 53.9602C86.4603 54.0998 86.4913 54.2447 86.5031 54.3949C86.5149 54.5451 86.5043 54.6976 86.4711 54.8523C86.4331 55.0296 86.3761 55.1784 86.3 55.2988C86.2255 55.4195 86.1075 55.5411 85.9461 55.6636L85.838 56.1683L85.0764 56.0051L85.2256 55.3089C85.347 55.2627 85.4384 55.2139 85.4997 55.1626C85.5606 55.1128 85.6146 55.0553 85.6616 54.9899C85.7082 54.9261 85.7453 54.8303 85.7726 54.7026C85.7997 54.5765 85.7962 54.4532 85.7623 54.3328C85.7284 54.2124 85.6712 54.102 85.5906 54.0014C85.5112 53.9027 85.4102 53.8167 85.2877 53.7433C85.1667 53.6702 85.0371 53.6189 84.8989 53.5893C84.7622 53.56 84.6279 53.5524 84.496 53.5666C84.3642 53.5807 84.2398 53.6185 84.123 53.6799C84.0076 53.7416 83.9119 53.8216 83.8358 53.92C83.7598 54.0184 83.7084 54.1299 83.6817 54.2546C83.6475 54.4138 83.6643 54.5627 83.732 54.7014C83.7997 54.84 83.9083 54.9528 84.0578 55.0398L84.1973 54.3887L84.8147 54.5209L84.4757 56.1027L82.6529 55.7121L82.7973 55.0384Z" fill="white"/>
<path d="M85.8491 57.1005L85.3866 58.518L84.7859 58.322L84.8764 58.0446L83.9716 58.24L84.5785 58.9576L84.6819 58.6409L85.2825 58.8369L84.8199 60.2545L84.2193 60.0585L84.2991 59.8138L83.2838 58.3926L82.5084 58.1395L82.3773 58.5414L81.7788 58.3461L82.2606 56.8696L82.8591 57.0649L82.7394 57.4318L83.5235 57.6877L85.1537 57.195L85.2485 56.9045L85.8491 57.1005Z" fill="white"/>
<path d="M31.1393 81.9079L32.3159 82.4146L32.074 82.9763L31.8228 82.8681L30.731 85.4031L30.0529 85.111L29.626 82.5541L29.005 83.9962L29.2644 84.1079L29.0233 84.6676L27.8488 84.1618L28.0898 83.6021L28.3452 83.7121L29.1959 81.7368L28.9446 81.6286L29.1865 81.0668L30.1221 81.4698L30.5293 84.0497L31.1609 82.5831L30.8974 82.4696L31.1393 81.9079Z" fill="white"/>
<path d="M33.0292 82.638L34.3973 83.0982L34.203 83.6758L33.8657 83.5623L33.1794 85.6029L33.5167 85.7163L33.3224 86.2939L31.9543 85.8338L32.1486 85.2562L32.4795 85.3675L33.1659 83.3269L32.8349 83.2156L33.0292 82.638Z" fill="white"/>
<path d="M36.656 87.1967L36.7948 86.6358C36.6668 86.7705 36.5513 86.8641 36.4483 86.9164C36.3453 86.9688 36.2344 87.0039 36.1155 87.0218C35.998 87.0401 35.8496 87.0262 35.6701 86.9803C35.5813 86.9568 35.4947 86.9247 35.4101 86.8839C35.3259 86.8417 35.2464 86.793 35.1715 86.7379C35.097 86.6813 35.0255 86.6186 34.9571 86.5497C34.8904 86.4798 34.8327 86.4045 34.784 86.3238C34.6642 86.1232 34.5859 85.9062 34.5491 85.6727C34.514 85.4381 34.5274 85.1957 34.5893 84.9455C34.6274 84.7916 34.6829 84.6473 34.7559 84.5128C34.8289 84.3782 34.9147 84.2567 35.0132 84.1483C35.1118 84.0399 35.2212 83.9464 35.3413 83.8678C35.4633 83.7881 35.5916 83.7259 35.7263 83.6814C35.8624 83.6372 36.003 83.6117 36.1481 83.6049C36.2933 83.5981 36.4399 83.613 36.5881 83.6497C36.7578 83.6917 36.8995 83.7512 37.0133 83.8281C37.1274 83.9037 37.241 84.0211 37.3542 84.1804L37.8375 84.2999L37.6571 85.0291L36.9904 84.8642C36.9495 84.7457 36.9053 84.6561 36.8577 84.5955C36.8116 84.5353 36.7577 84.4815 36.6962 84.4342C36.6361 84.3873 36.5449 84.3487 36.4226 84.3184C36.3018 84.2886 36.1829 84.2881 36.0658 84.3172C35.9487 84.3462 35.8405 84.398 35.7411 84.4726C35.6436 84.5462 35.5576 84.6409 35.4831 84.7568C35.409 84.8712 35.3556 84.9946 35.3228 85.1269C35.2905 85.2578 35.2791 85.387 35.2887 85.5146C35.2984 85.6421 35.331 85.7631 35.3866 85.8776C35.4426 85.9907 35.5169 86.0854 35.6094 86.1617C35.7019 86.238 35.8079 86.2909 35.9273 86.3205C36.0797 86.3582 36.2238 86.3465 36.3595 86.2855C36.4952 86.2244 36.6072 86.1232 36.6956 85.9817L36.0721 85.8275L36.2184 85.2363L37.7329 85.6111L37.301 87.3563L36.656 87.1967Z" fill="white"/>
<path d="M39.0003 84.2488L41.6535 84.6424L41.4847 85.7798L40.7675 85.6734L40.8377 85.2004L39.9819 85.0734L39.8843 85.7312L40.5465 85.8295L40.4519 86.4675L39.7897 86.3692L39.6751 87.1414L40.5309 87.2684L40.6187 86.6766L41.3359 86.783L41.1586 87.9776L38.5055 87.5839L38.5949 86.9811L38.9447 87.033L39.2515 84.9651L38.9017 84.9132L39.0003 84.2488Z" fill="white"/>
<path d="M42.4072 84.7201L44.1882 84.8174C44.3614 84.8269 44.5147 84.8613 44.6481 84.9206C44.7814 84.9798 44.8924 85.0557 44.9809 85.1481C45.0695 85.2391 45.135 85.3437 45.1776 85.4618C45.2217 85.5786 45.2403 85.6991 45.2335 85.8235C45.2273 85.9375 45.2092 86.0367 45.1794 86.1212C45.151 86.2058 45.1113 86.2801 45.0603 86.3441C45.0107 86.4082 44.9505 86.4643 44.8795 86.5124C44.8087 86.559 44.7285 86.6007 44.6388 86.6374C44.7122 86.68 44.7756 86.7429 44.829 86.826C44.8824 86.9076 44.9205 87.0121 44.9433 87.1396L45.0326 87.5833L45.3102 87.5984L45.2788 88.2538L44.3017 88.2004L44.2121 87.3936C44.204 87.2981 44.1877 87.2156 44.1633 87.1459C44.1405 87.0749 44.1073 87.0167 44.0637 86.9712C44.0203 86.9243 43.9658 86.8886 43.9003 86.8643C43.8363 86.84 43.7591 86.8254 43.6688 86.8204L43.3823 86.8048L43.3423 87.5376L43.651 87.5545L43.6177 88.163L42.2231 88.0867L42.2563 87.4782L42.605 87.4973L42.7224 85.3498L42.3738 85.3308L42.4072 84.7201ZM43.4597 85.3901L43.4151 86.2052L43.8571 86.2293C43.9415 86.2339 44.0174 86.2307 44.0848 86.2195C44.1538 86.2069 44.2129 86.1857 44.262 86.1557C44.3127 86.1243 44.3521 86.0841 44.38 86.0352C44.4094 85.9863 44.426 85.9271 44.4298 85.8575C44.4369 85.7272 44.3958 85.6232 44.3065 85.5456C44.2172 85.4679 44.0823 85.4242 43.9016 85.4143L43.4597 85.3901Z" fill="white"/>
<path d="M49.1842 85.6845C49.1733 85.6332 49.1515 85.5856 49.1189 85.5417C49.0877 85.4978 49.0481 85.461 49 85.4316C48.9534 85.4005 48.9005 85.3773 48.8415 85.362C48.784 85.3465 48.7242 85.3409 48.6621 85.345C48.6059 85.3488 48.5537 85.3582 48.5057 85.3734C48.4577 85.3885 48.416 85.4098 48.3807 85.4375C48.3468 85.4635 48.3201 85.4965 48.3004 85.5365C48.2823 85.5763 48.275 85.6229 48.2786 85.6761C48.2831 85.7427 48.3007 85.795 48.3315 85.8331C48.3637 85.8696 48.4028 85.8989 48.4489 85.9211C48.4964 85.9431 48.548 85.9597 48.6038 85.9708C48.6595 85.982 48.7139 85.9947 48.7668 86.0089L49.3908 86.1721C49.4771 86.1961 49.559 86.2314 49.6364 86.2782C49.7139 86.3251 49.7817 86.3837 49.8399 86.4541C49.8996 86.5244 49.9482 86.6065 49.9857 86.7006C50.0233 86.7947 50.046 86.9016 50.0541 87.0215C50.065 87.1842 50.0447 87.3349 49.993 87.4736C49.9429 87.6122 49.8671 87.7332 49.7655 87.8366C49.664 87.94 49.5396 88.0234 49.3922 88.0868C49.2449 88.1502 49.0795 88.188 48.8961 88.2004C48.7674 88.209 48.6443 88.2024 48.527 88.1806C48.4112 88.1601 48.3041 88.1257 48.2057 88.0773C48.1074 88.0289 48.0202 87.9694 47.9441 87.8987C47.8679 87.8265 47.8066 87.7437 47.7602 87.6502L47.5317 87.6656L47.4868 86.9976L48.2901 86.9437L48.2994 87.0813C48.3038 87.1479 48.3183 87.2086 48.3428 87.2634C48.3688 87.3181 48.4046 87.3648 48.4503 87.4033C48.496 87.4418 48.5521 87.4708 48.6188 87.4901C48.6854 87.5079 48.7623 87.5139 48.8496 87.508C48.9828 87.4991 49.0821 87.4619 49.1475 87.3966C49.2129 87.3298 49.2419 87.2417 49.2345 87.1322C49.2308 87.076 49.2151 87.0302 49.1874 86.9949C49.1612 86.9581 49.128 86.9283 49.0878 86.9058C49.0476 86.8817 49.0032 86.8624 48.9546 86.8478C48.9061 86.8333 48.8584 86.8201 48.8116 86.8084L48.2924 86.6783C48.1942 86.6552 48.0983 86.62 48.0044 86.5728C47.9121 86.5255 47.8285 86.4642 47.7536 86.389C47.6802 86.3137 47.6192 86.2242 47.5706 86.1204C47.5234 86.0151 47.4952 85.8937 47.486 85.7561C47.4752 85.5963 47.4953 85.4523 47.5461 85.3241C47.5969 85.1944 47.6726 85.083 47.7734 84.9901C47.8741 84.8971 47.9962 84.8235 48.1397 84.7693C48.2832 84.7151 48.4422 84.6821 48.6168 84.6704C48.7544 84.6612 48.8827 84.6689 49.0018 84.6936C49.1207 84.7168 49.2278 84.752 49.3231 84.7991C49.4199 84.8461 49.5024 84.9022 49.5707 84.9675C49.6404 85.0312 49.6947 85.0989 49.7337 85.1706L49.9556 85.1557L50.0006 85.8258L49.1973 85.8797L49.1842 85.6845Z" fill="white"/>
<path d="M51.6358 87.2471L51.9809 87.1938L51.6488 85.0464L51.2444 85.1089L51.311 85.5397L50.5945 85.6505L50.4378 84.6372L53.4688 84.1686L53.6254 85.1818L52.9045 85.2933L52.8379 84.8625L52.3785 84.9335L52.7106 87.0809L53.0623 87.0265L53.1554 87.6288L51.7289 87.8494L51.6358 87.2471Z" fill="white"/>
<path d="M56.2766 86.3377L56.6026 86.2574L56.3398 85.8228L55.3335 86.0707L55.3026 86.5777L55.6482 86.4925L55.7939 87.0842L54.5522 87.3902L54.4064 86.7985L54.6505 86.7383L54.8816 83.8365L55.7475 83.6232L57.2807 86.0903L57.5183 86.0318L57.664 86.6235L56.4223 86.9294L56.2766 86.3377ZM55.3679 85.4759L56.0287 85.3131L55.4339 84.3304L55.3679 85.4759Z" fill="white"/>
<path d="M58.7319 85.6368L59.0623 85.5237L58.3585 83.4679L57.9713 83.6005L58.1125 84.0129L57.4265 84.2477L57.0944 83.2777L59.9961 82.2843L60.3282 83.2543L59.638 83.4906L59.4968 83.0782L59.057 83.2287L59.7609 85.2845L60.0975 85.1692L60.2949 85.7458L58.9293 86.2133L58.7319 85.6368Z" fill="white"/>
<path d="M60.6404 82.0188L63.0888 80.9235L63.5583 81.9732L62.8965 82.2692L62.7012 81.8327L61.9115 82.186L62.183 82.793L62.7941 82.5197L63.0575 83.1084L62.4464 83.3818L62.7652 84.0944L63.5549 83.7411L63.3106 83.195L63.9725 82.8989L64.4656 84.0013L62.0172 85.0966L61.7683 84.5403L62.0911 84.3959L61.2375 82.4875L60.9147 82.6319L60.6404 82.0188Z" fill="white"/>
</svg>
