<svg width="100" height="100" viewBox="0 0 100 100" fill="none" xmlns="http://www.w3.org/2000/svg">
<path d="M30.5656 98.5342H11.528V91.8188C11.528 89.8649 13.1118 88.2811 15.0657 88.2811H27.0278C28.9817 88.2811 30.5656 89.8649 30.5656 91.8188V98.5342Z" fill="#A7C7D3"/>
<path d="M49.6041 98.5342H30.5657V83.0366C30.5657 81.0827 32.1495 79.4988 34.1034 79.4988H46.0663C48.0202 79.4988 49.6041 81.0827 49.6041 83.0366V98.5342Z" fill="#89B4C9"/>
<path d="M68.6424 98.5343H49.604V73.6022C49.604 71.6483 51.1879 70.0645 53.1418 70.0645H65.1046C67.0578 70.0645 68.6424 71.6483 68.6424 73.6022V98.5343Z" fill="#6C96B3"/>
<path d="M87.6801 98.5343H68.6425V59.2917C68.6425 57.3378 70.2263 55.754 72.1802 55.754H84.1423C86.0962 55.754 87.6801 57.3378 87.6801 59.2917V98.5343Z" fill="#618AAA"/>
<path d="M73.8098 15.67H92.9588C93.5516 15.67 93.8293 14.9353 93.3838 14.5432L88.4094 10.1639C88.1187 9.90756 88.1187 9.45438 88.4094 9.19803L93.3838 4.81799C93.8293 4.42584 93.5516 3.69189 92.9588 3.69189H73.8098V15.67Z" fill="#FDB659"/>
<path d="M75.335 21.2753L54.5914 32.5401C52.7405 33.5449 52.2347 35.3119 51.5885 37.5877L47.4633 52.1744L57.5722 48.0324L61.496 36.1717L71.9353 29.8294C74.852 28.0571 76.2398 24.5659 75.335 21.2753Z" fill="#83D9FF"/>
<path d="M75.335 21.2753L72.9416 22.5746C72.538 24.6346 71.2937 26.4946 69.4115 27.6382L59.8999 33.4167C59.301 33.7807 58.8517 34.346 58.6312 35.0113L57.2731 39.1174C55.8609 43.3853 52.6543 46.8224 48.4948 48.5268L47.4633 52.1751L57.5722 48.0324L61.496 36.1725L71.9353 29.8302C74.852 28.0571 76.2398 24.5659 75.335 21.2753Z" fill="#5FC9ED"/>
<path d="M57.5722 48.0323L63.5468 55.0918C64.5363 56.4025 65.3977 57.3241 65.2192 58.7661L63.8214 70.0584H60.1761L59.2232 60.3499C59.1652 59.7632 58.7929 59.2536 58.2512 59.0201L47.4633 52.175L57.5722 48.0323Z" fill="#052D8A"/>
<path d="M47.4633 52.175L46.8804 62.8783C46.843 63.7656 46.9674 64.3661 46.6203 65.026L39.7408 79.499H43.6082L53.9514 65.76C54.5564 65.0558 54.6258 64.1006 54.8295 63.2209L57.5723 48.0323L47.4633 52.175Z" fill="#0A369D"/>
<path d="M56.8307 23.5855L58.5275 26.8966C59.3248 28.453 58.7091 30.3611 57.1527 31.1584L55.8412 31.8298C54.2848 32.6271 52.3774 32.0114 51.5802 30.455L49.8834 27.1438C49.0861 25.5874 49.7018 23.6793 51.2582 22.882L52.5697 22.2106C54.1261 21.4134 56.0334 22.0291 56.8307 23.5855Z" fill="#FECBAA"/>
<path d="M94.3525 13.443L90.0793 9.68016L94.3525 5.91811C95.0171 5.33217 95.2444 4.41894 94.9324 3.59039C94.6188 2.76107 93.8444 2.22549 92.9587 2.22549H75.2753V1.4656C75.2753 0.656127 74.6192 0 73.8097 0C73.0002 0 72.3441 0.656127 72.3441 1.4656V21.2318L60.3072 27.7679C60.2408 27.2384 60.0821 26.7181 59.8311 26.2283L58.1351 22.9171C56.9709 20.6436 54.1739 19.7425 51.9019 20.906L50.5904 21.5774C49.4887 22.142 48.6732 23.1002 48.2932 24.2782C47.9133 25.4554 48.0147 26.7105 48.5793 27.8114L50.2753 31.1233C50.6713 31.8961 51.2565 32.508 51.9446 32.9368C51.0444 34.1491 50.6171 35.6399 50.1777 37.1886L49.8618 38.3071C49.6413 39.0861 50.0945 39.8963 50.8735 40.116C51.0062 40.1542 51.1405 40.1717 51.2725 40.1717C51.9118 40.1717 52.4993 39.7506 52.6824 39.1044L52.9983 37.9882C53.6407 35.723 54.0351 34.51 55.2909 33.8279L57.5423 32.6049L57.82 32.463C57.9123 32.4157 57.9986 32.3623 58.0863 32.3097L74.1324 23.5961C74.0309 25.6019 72.9514 27.497 71.1737 28.5766L60.739 34.9166C60.7268 34.9235 60.7146 34.9304 60.7032 34.938L57.4553 36.9109C56.7641 37.3313 56.5436 38.2331 56.964 38.9251C57.36 39.5774 58.1839 39.8093 58.8561 39.482L56.3918 46.9314L54.5905 47.6699L49.6924 49.6772L51.1039 44.6876C51.3236 43.9086 50.8712 43.0984 50.0922 42.8779C49.3125 42.6566 48.503 43.1106 48.2825 43.8895L46.0525 51.776C46.0235 51.8775 46.0044 51.9889 45.9998 52.0949L45.4162 62.8157C45.3986 63.2247 45.4856 63.9975 45.2964 64.3965L38.8145 78.0333H34.1041C31.3446 78.0333 29.1 80.2779 29.1 83.0366V87.2671C28.4683 86.978 27.7671 86.8162 27.0278 86.8162H15.0657C12.307 86.8162 10.0624 89.06 10.0624 91.8196V97.0686H6.54373C5.73425 97.0686 5.07812 97.7247 5.07812 98.5342C5.07812 99.3437 5.73425 99.9998 6.54373 99.9998H92.9571C93.7666 99.9998 94.4227 99.3437 94.4227 98.5342C94.4227 97.7247 93.7666 97.0686 92.9571 97.0686H89.1455V59.2917C89.1455 56.5329 86.9009 54.2884 84.1421 54.2884H75.2753V28.72C76.9003 26.5174 77.5023 23.6305 76.7477 20.887C76.6295 20.4559 76.3205 20.1019 75.9085 19.9272C75.7063 19.841 75.4897 19.8028 75.2753 19.8112V17.1356H92.9579C93.8444 17.1356 94.6188 16.6 94.9316 15.7715C95.2444 14.9429 95.0171 14.0289 94.3525 13.443ZM51.0833 25.1785C51.2229 24.7459 51.522 24.3934 51.9263 24.1867L53.2378 23.5153C53.485 23.3886 53.749 23.3284 54.0099 23.3284C54.6279 23.3284 55.2253 23.6663 55.5259 24.253L57.2226 27.5649C57.6186 28.3386 57.3623 29.2762 56.6581 29.75L56.1805 30.0086L55.1726 30.5251C54.3387 30.9524 53.3118 30.6213 52.8846 29.7866L51.1878 26.4755C50.981 26.0711 50.9437 25.6103 51.0833 25.1785ZM48.1383 78.4842C47.6401 78.2568 47.0985 78.1081 46.5293 78.0554L48.1383 75.9184V78.4842ZM55.0971 66.6747C55.8021 65.8301 55.9966 64.8436 56.1538 64.0486C56.1934 63.8594 56.9167 59.9089 56.9167 59.9089C56.9167 59.9089 57.6011 60.3354 57.6728 60.3659C57.7224 60.3881 57.7575 60.4369 57.7628 60.4941L58.5601 68.5988H53.6483L55.0971 66.6747ZM63.7641 58.5852L62.5266 68.5919H61.505L60.6803 60.2072C60.575 59.133 59.9173 58.1954 58.9538 57.7292L57.4798 56.7946L58.4617 51.3526C58.4617 51.3526 62.5983 56.2667 62.6944 56.3918C63.5505 57.5049 63.8434 57.9505 63.7641 58.5852ZM47.9331 65.6783C48.2291 64.7872 48.3665 63.88 48.3436 62.9576L48.8761 53.1798L55.6548 50.402L54.4227 57.2272C54.4188 57.2455 54.415 57.2646 54.4127 57.2829L53.3935 62.9264C53.2607 63.5108 53.1447 64.3973 52.7801 64.8787L42.8764 78.0333H42.06L47.9331 65.6783ZM12.9936 91.8188C12.9936 90.6767 13.9229 89.7474 15.0657 89.7474H27.0278C28.1707 89.7474 29.1008 90.6767 29.1008 91.8188V97.0686H12.9936V91.8188ZM32.0312 91.8188V83.0366C32.0312 81.8938 32.9612 80.9645 34.1041 80.9645H46.0662C47.2091 80.9645 48.1383 81.8938 48.1383 83.0366V97.0686H32.032V91.8188H32.0312ZM86.2143 59.2917V97.0686H70.1079V88.2811C70.1079 87.4716 69.4518 86.8155 68.6423 86.8155C67.8321 86.8155 67.1759 87.4716 67.1759 88.2811V97.0686H51.0695V73.6014C51.0695 72.4593 51.9988 71.53 53.1417 71.53H65.1038C66.2467 71.53 67.1759 72.4593 67.1759 73.6014V80.9485C67.1759 81.758 67.8321 82.4141 68.6415 82.4141C69.4518 82.4141 70.1071 81.758 70.1071 80.9485V59.2917C70.1071 58.1488 71.0372 57.2196 72.18 57.2196H73.7944C73.799 57.2196 73.8043 57.2203 73.8097 57.2203C73.8143 57.2203 73.8196 57.2196 73.8242 57.2196H84.1414C85.2843 57.2196 86.2143 58.1496 86.2143 59.2917ZM72.18 54.2884C69.4213 54.2884 67.1767 56.5329 67.1767 59.2917V69.0497C66.6518 68.8101 66.0796 68.6583 65.4776 68.6141L66.6732 58.9461C66.9081 57.0617 65.9468 55.8127 65.0176 54.6042C64.9192 54.4761 59.2223 47.7118 59.2223 47.7118L62.7173 37.1452L72.3441 31.2965V54.2884H72.18ZM75.2753 14.2036V5.15746H90.7805L87.4411 8.09782C86.9864 8.49837 86.7255 9.07515 86.7255 9.68092C86.7255 10.2867 86.9864 10.8635 87.4411 11.264L90.7805 14.2044H75.2753V14.2036Z" fill="black"/>
</svg>
