<svg width="32" height="32" viewBox="0 0 32 32" fill="none" xmlns="http://www.w3.org/2000/svg">
<path d="M21.493 12.5955V12.5511C21.493 9.88443 19.413 7.92887 16.2663 7.92887C15.3031 7.91295 14.3482 8.10938 13.4694 8.50421C12.5907 8.89903 11.8097 9.48256 11.1819 10.2133C11.0947 10.2941 11.0246 10.3916 10.9757 10.5C10.9269 10.6085 10.9003 10.7256 10.8975 10.8444C10.8974 10.9541 10.9194 11.0627 10.9622 11.1637C11.0049 11.2647 11.0675 11.356 11.1463 11.4323C11.2251 11.5086 11.3184 11.5683 11.4208 11.6078C11.5231 11.6473 11.6323 11.6658 11.7419 11.6622C11.9767 11.6564 12.2013 11.5647 12.373 11.4044C12.8481 10.8477 13.4381 10.4005 14.1026 10.0936C14.767 9.78672 15.49 9.62741 16.2219 9.62665C18.3197 9.62665 19.6263 10.9778 19.6263 12.6578V12.7022C19.6263 14.6667 18.0619 15.76 15.5908 15.9467C15.4907 15.9505 15.3926 15.9755 15.3029 16.0199C15.2131 16.0643 15.1338 16.1271 15.07 16.2043C15.0062 16.2815 14.9595 16.3713 14.9328 16.4679C14.9061 16.5644 14.9001 16.6654 14.9152 16.7644V19.2089C14.9373 19.4289 15.0407 19.6328 15.205 19.7807C15.3694 19.9286 15.583 20.01 15.8041 20.0089H15.9019C16.1219 19.9868 16.3258 19.8834 16.4737 19.7191C16.6217 19.5547 16.703 19.3411 16.7019 19.12V17.2889C19.333 16.8889 21.493 15.5111 21.493 12.5955Z" fill="#828282"/>
<path d="M15.8045 24.4C16.4181 24.4 16.9156 23.9025 16.9156 23.2889C16.9156 22.6752 16.4181 22.1778 15.8045 22.1778C15.1908 22.1778 14.6934 22.6752 14.6934 23.2889C14.6934 23.9025 15.1908 24.4 15.8045 24.4Z" fill="#828282"/>
<path d="M29.4402 11.3867C28.9001 11.6341 28.329 11.8075 27.7424 11.9022C28.6805 14.5728 28.6835 17.4828 27.751 20.1554C26.8185 22.8279 25.0058 25.1043 22.61 26.6117C20.2142 28.119 17.3774 28.7678 14.5646 28.4517C11.7518 28.1357 9.12976 26.8734 7.12828 24.872C5.12679 22.8705 3.86457 20.2484 3.54848 17.4356C3.2324 14.6228 3.88119 11.786 5.38854 9.39024C6.89588 6.99446 9.17236 5.18177 11.8449 4.24927C14.5174 3.31677 17.4274 3.31978 20.098 4.2578C20.1928 3.67128 20.3662 3.10022 20.6135 2.56002C17.5614 1.50465 14.2415 1.51538 11.1962 2.59045C8.1509 3.66553 5.56011 5.74142 3.84696 8.47908C2.13382 11.2167 1.39957 14.4544 1.76412 17.6633C2.12867 20.8721 3.57049 23.8625 5.85409 26.1461C8.13769 28.4297 11.1281 29.8716 14.337 30.2361C17.5458 30.6007 20.7835 29.8664 23.5211 28.1533C26.2588 26.4401 28.3347 23.8493 29.4098 20.804C30.4849 17.7587 30.4956 14.4389 29.4402 11.3867Z" fill="#828282"/>
<path d="M26.6666 9.77777C29.1212 9.77777 31.1111 7.78793 31.1111 5.33333C31.1111 2.87873 29.1212 0.888885 26.6666 0.888885C24.212 0.888885 22.2222 2.87873 22.2222 5.33333C22.2222 7.78793 24.212 9.77777 26.6666 9.77777Z" fill="#828282"/>
</svg>
