<svg width="22" height="22" viewBox="0 0 22 22" fill="none" xmlns="http://www.w3.org/2000/svg">
<path d="M6.9265 3.00606L7.87392 2.70317C8.76323 2.41965 9.71154 2.87839 10.0928 3.77474L10.8491 5.5604C11.1785 6.33789 10.9962 7.25273 10.3966 7.82153L8.72889 9.40468C8.83103 10.3521 9.14977 11.2846 9.68336 12.202C10.1903 13.0898 10.8703 13.8667 11.683 14.4869L13.6861 13.8178C14.446 13.5651 15.2728 13.8565 15.7377 14.5407L16.8234 16.1344C17.3649 16.9303 17.268 18.0274 16.5962 18.7019L15.8759 19.4248C15.1592 20.1442 14.1352 20.4057 13.1886 20.1098C10.953 19.4125 8.89795 17.3424 7.02248 13.8996C5.14437 10.4516 4.48135 7.52481 5.0343 5.12279C5.26676 4.11198 5.98613 3.30631 6.9265 3.00606Z" fill="white"/>
</svg>
