<svg width="37" height="37" viewBox="0 0 37 37" fill="none" xmlns="http://www.w3.org/2000/svg">
<path d="M16.4148 19.306L13.4797 16.3709L11.8818 17.9687L16.4148 22.5017L25.4807 13.4358L23.8829 11.8379L16.4148 19.306Z" fill="#0A369D"/>
<path d="M18.6814 34.5027L11.6825 30.771C9.68726 29.7095 8.01872 28.1247 6.85596 26.1867C5.6932 24.2487 5.08012 22.0306 5.08253 19.7706V5.03846C5.08313 4.43753 5.32211 3.86139 5.74703 3.43647C6.17194 3.01155 6.74809 2.77257 7.34901 2.77197H30.0138C30.6148 2.77257 31.1909 3.01155 31.6158 3.43647C32.0407 3.86139 32.2797 4.43753 32.2803 5.03846V19.7706C32.2827 22.0306 31.6696 24.2487 30.5069 26.1867C29.3441 28.1247 27.6756 29.7095 25.6803 30.771L18.6814 34.5027ZM7.34901 5.03846V19.7706C7.34713 21.6198 7.84889 23.4347 8.80042 25.0203C9.75196 26.6059 11.1174 27.9025 12.75 28.7708L18.6814 31.9337L24.6128 28.7719C26.2457 27.9035 27.6112 26.6068 28.5627 25.0209C29.5143 23.4351 30.0159 21.62 30.0138 19.7706V5.03846H7.34901Z" fill="#0A369D"/>
</svg>
