<svg width="33" height="22" viewBox="0 0 33 22" fill="none" xmlns="http://www.w3.org/2000/svg">
<path d="M31.3342 3.67594C31.153 3.02958 30.8 2.4444 30.3128 1.98261C29.8119 1.50661 29.1979 1.16612 28.5288 0.993272C26.0248 0.333272 15.9928 0.333272 15.9928 0.333272C11.8106 0.285689 7.6294 0.494971 3.47282 0.959938C2.80374 1.14556 2.19091 1.49365 1.68882 1.97327C1.19549 2.44794 0.838156 3.03327 0.65149 3.67461C0.20308 6.09026 -0.0147877 8.54306 0.000822911 10.9999C-0.0151771 13.4546 0.202156 15.9066 0.65149 18.3253C0.834156 18.9639 1.19016 19.5466 1.68482 20.0173C2.17949 20.4879 2.79549 20.8279 3.47282 21.0079C6.01016 21.6666 15.9928 21.6666 15.9928 21.6666C20.1804 21.7143 24.3669 21.505 28.5288 21.0399C29.1979 20.8671 29.8119 20.5266 30.3128 20.0506C30.8062 19.5799 31.1568 18.9946 31.3328 18.3573C31.7929 15.9425 32.0167 13.4887 32.0008 11.0306C32.0354 8.56208 31.812 6.09669 31.3342 3.67461V3.67594ZM12.8035 15.5653V6.43594L21.1502 11.0013L12.8035 15.5653Z" fill="#E5E5E5"/>
</svg>
